Commissioner-FlairItalic.ufo
<glyph name="numbersign" format="2">
  <advance width="1365.536842105263"/>
  <unicode hex="0023"/>
  <outline>
    <contour>
      <point x="-6.231578947368421" y="300.2315789473684" type="line"/>
      <point x="119.62105263157895" y="306.9684210526316"/>
      <point x="238.92631578947368" y="307.5157894736842"/>
      <point x="341.13684210526316" y="307.5157894736842" type="curve"/>
      <point x="832.378947368421" y="307.5157894736842" type="line"/>
      <point x="934.5894736842105" y="307.5157894736842"/>
      <point x="1052.8000000000002" y="306.9684210526316"/>
      <point x="1177.5578947368422" y="300.2315789473684" type="curve"/>
      <point x="1206.5263157894735" y="443.0526315789474" type="line"/>
      <point x="1080.6736842105263" y="436.3157894736842"/>
      <point x="961.9157894736842" y="435.7684210526316"/>
      <point x="859.7052631578947" y="435.7684210526316" type="curve"/>
      <point x="368.46315789473687" y="435.7684210526316" type="line"/>
      <point x="266.2526315789474" y="435.7684210526316"/>
      <point x="147.49473684210528" y="436.3157894736842"/>
      <point x="22.736842105263158" y="443.0526315789474" type="curve"/>
    </contour>
    <contour>
      <point x="119.89473684210525" y="0.0" type="curve"/>
      <point x="283.11578947368423" y="0.0" type="line"/>
      <point x="330.7157894736842" y="136.54736842105262"/>
      <point x="377.2631578947368" y="256.37894736842105"/>
      <point x="445.62105263157895" y="423.4736842105263" type="curve"/>
      <point x="634.1473684210526" y="882.7578947368421" type="line"/>
      <point x="707.957894736842" y="1062.4"/>
      <point x="757.2210526315789" y="1174.7578947368422"/>
      <point x="823.2421052631579" y="1316.9473684210527" type="curve"/>
      <point x="661.1157894736842" y="1316.9473684210527" type="line"/>
      <point x="612.2315789473685" y="1172.5684210526315"/>
      <point x="566.0631578947368" y="1057.8526315789475"/>
      <point x="494.25263157894733" y="882.7578947368421" type="curve"/>
      <point x="305.7263157894737" y="423.4736842105263" type="line"/>
      <point x="237.3684210526316" y="257.8315789473684"/>
      <point x="183.72631578947372" y="134.3578947368421"/>
    </contour>
    <contour>
      <point x="226.1052631578947" y="867.8947368421053" type="line"/>
      <point x="352.5052631578948" y="874.6315789473684"/>
      <point x="471.2631578947369" y="875.1789473684211"/>
      <point x="573.4736842105264" y="875.1789473684211" type="curve"/>
      <point x="1064.7157894736843" y="875.1789473684211" type="line"/>
      <point x="1166.9263157894738" y="875.1789473684211"/>
      <point x="1285.6842105263158" y="874.6315789473684"/>
      <point x="1409.8947368421054" y="867.8947368421053" type="curve"/>
      <point x="1439.4105263157896" y="1010.7157894736841" type="line"/>
      <point x="1313.0105263157895" y="1003.978947368421"/>
      <point x="1194.2526315789476" y="1003.4315789473684"/>
      <point x="1092.042105263158" y="1003.4315789473684" type="curve"/>
      <point x="600.8000000000001" y="1003.4315789473684" type="line"/>
      <point x="498.58947368421053" y="1003.4315789473684"/>
      <point x="379.8315789473684" y="1003.978947368421"/>
      <point x="255.62105263157895" y="1010.7157894736841" type="curve"/>
    </contour>
    <contour>
      <point x="596.3157894736842" y="0.0" type="curve"/>
      <point x="759.5368421052632" y="0.0" type="line"/>
      <point x="807.1368421052632" y="136.54736842105262"/>
      <point x="853.6842105263158" y="256.37894736842105"/>
      <point x="922.0421052631579" y="423.4736842105263" type="curve"/>
      <point x="1110.5684210526315" y="882.7578947368421" type="line"/>
      <point x="1184.378947368421" y="1062.4"/>
      <point x="1233.6421052631579" y="1174.7578947368422"/>
      <point x="1299.6631578947367" y="1316.9473684210527" type="curve"/>
      <point x="1137.5368421052633" y="1316.9473684210527" type="line"/>
      <point x="1088.6526315789474" y="1172.5684210526315"/>
      <point x="1042.4842105263158" y="1057.8526315789475"/>
      <point x="970.6736842105263" y="882.7578947368421" type="curve"/>
      <point x="782.1473684210526" y="423.4736842105263" type="line"/>
      <point x="713.7894736842105" y="257.8315789473684"/>
      <point x="660.1473684210526" y="134.3578947368421"/>
    </contour>
  </outline>
</glyph>
<glyph name="percent" format="2">
  <advance width="1761.0526315789473"/>
  <unicode hex="0025"/>
  <outline>
    <contour>
      <point x="277.05263157894734" y="0.0" type="curve"/>
      <point x="463.7684210526316" y="0.0" type="line"/>
      <point x="565.7473684210527" y="147.45263157894738"/>
      <point x="665.3894736842105" y="275.4526315789474"/>
      <point x="808.1263157894737" y="458.5473684210526" type="curve"/>
      <point x="1195.957894736842" y="956.9052631578948" type="line"/>
      <point x="1343.6" y="1146.3578947368421"/>
      <point x="1445.0736842105264" y="1273.0947368421052"/>
      <point x="1575.6421052631579" y="1426.0" type="curve"/>
      <point x="1390.021052631579" y="1426.0" type="line"/>
      <point x="1283.4947368421053" y="1273.0947368421052"/>
      <point x="1184.2105263157894" y="1146.3578947368421"/>
      <point x="1036.5684210526315" y="956.9052631578948" type="curve"/>
      <point x="648.7368421052632" y="458.5473684210526" type="line"/>
      <point x="505.99999999999994" y="275.4526315789474"/>
      <point x="404.7157894736842" y="147.45263157894738"/>
    </contour>
    <contour>
      <point x="545.6631578947369" y="742.8631578947368" type="curve" smooth="yes"/>
      <point x="742.6315789473684" y="742.8631578947368"/>
      <point x="887.7263157894737" y="842.8631578947368"/>
      <point x="932.8210526315789" y="1055.9789473684211" type="curve" smooth="yes"/>
      <point x="975.9157894736842" y="1261.4526315789474"/>
      <point x="831.1789473684211" y="1452.1894736842105"/>
      <point x="593.4736842105264" y="1452.1894736842105" type="curve" smooth="yes"/>
      <point x="389.5999999999999" y="1452.1894736842105"/>
      <point x="247.05263157894737" y="1338.7368421052631"/>
      <point x="203.05263157894737" y="1137.6421052631579" type="curve" smooth="yes"/>
      <point x="156.31578947368422" y="921.5999999999999"/>
      <point x="298.6947368421052" y="742.8631578947368"/>
    </contour>
    <contour>
      <point x="550.9473684210526" y="859.6" type="curve"/>
      <point x="382.8842105263158" y="864.6947368421053"/>
      <point x="302.40000000000003" y="974.9894736842105"/>
      <point x="331.8315789473684" y="1120.1473684210528" type="curve" smooth="yes"/>
      <point x="360.3578947368421" y="1260.042105263158"/>
      <point x="450.10526315789474" y="1329.8105263157895"/>
      <point x="587.6421052631579" y="1335.4526315789474" type="curve"/>
      <point x="745.3473684210526" y="1329.8105263157895"/>
      <point x="830.7368421052631" y="1209.157894736842"/>
      <point x="801.3052631578947" y="1070.5473684210526" type="curve" smooth="yes"/>
      <point x="771.3263157894736" y="924.1052631578948"/>
      <point x="685.1999999999999" y="864.6947368421053"/>
    </contour>
    <contour>
      <point x="1266.126315789474" y="-21.83157894736842" type="curve" smooth="yes"/>
      <point x="1463.0947368421052" y="-21.83157894736842"/>
      <point x="1608.1894736842105" y="78.16842105263157"/>
      <point x="1653.284210526316" y="291.28421052631575" type="curve" smooth="yes"/>
      <point x="1696.3789473684212" y="496.7578947368421"/>
      <point x="1551.6421052631579" y="687.4947368421052"/>
      <point x="1313.936842105263" y="687.4947368421052" type="curve" smooth="yes"/>
      <point x="1110.063157894737" y="687.4947368421052"/>
      <point x="967.5157894736842" y="574.0421052631579"/>
      <point x="923.5157894736842" y="372.9473684210526" type="curve" smooth="yes"/>
      <point x="876.7789473684211" y="156.90526315789472"/>
      <point x="1019.1578947368422" y="-21.83157894736842"/>
    </contour>
    <contour>
      <point x="1271.4105263157896" y="94.90526315789474" type="curve"/>
      <point x="1103.3473684210526" y="100.0"/>
      <point x="1022.8631578947368" y="210.2947368421053"/>
      <point x="1052.294736842105" y="355.4526315789474" type="curve" smooth="yes"/>
      <point x="1080.2736842105262" y="495.3473684210527"/>
      <point x="1170.5684210526315" y="565.1157894736842"/>
      <point x="1308.1052631578946" y="570.7578947368421" type="curve"/>
      <point x="1465.8105263157895" y="565.1157894736842"/>
      <point x="1551.2" y="444.46315789473687"/>
      <point x="1521.7684210526318" y="305.85263157894735" type="curve" smooth="yes"/>
      <point x="1491.242105263158" y="159.41052631578947"/>
      <point x="1405.663157894737" y="100.0"/>
    </contour>
  </outline>
</glyph>
<glyph name="ampersand" format="2">
  <advance width="1472.5977011494253"/>
  <unicode hex="0026"/>
  <outline>
    <contour>
      <point x="1119.83908045977" y="0.0" type="curve"/>
      <point x="1340.137931034483" y="0.0" type="line"/>
      <point x="1234.5977011494253" y="120.73563218390805"/>
      <point x="1136.6436781609198" y="243.4712643678161"/>
      <point x="1040.6666666666667" y="363.816091954023" type="curve"/>
      <point x="680.5747126436781" y="820.2528735632184" type="line" smooth="yes"/>
      <point x="587.3103448275862" y="938.7126436781609"/>
      <point x="556.0689655172413" y="1035.9770114942528"/>
      <point x="580.4827586206895" y="1148.8505747126437" type="curve" smooth="yes"/>
      <point x="605.7011494252873" y="1260.942528735632"/>
      <point x="684.183908045977" y="1318.2528735632184"/>
      <point x="802.7126436781609" y="1322.2528735632184" type="curve"/>
      <point x="914.7816091954022" y="1317.057471264368"/>
      <point x="992.0229885057472" y="1240.1609195402298"/>
      <point x="968.0" y="1118.4597701149423" type="curve" smooth="yes"/>
      <point x="942.3678160919541" y="987.9310344827586"/>
      <point x="804.2528735632184" y="924.2988505747126"/>
      <point x="650.551724137931" y="848.2758620689656" type="curve"/>
      <point x="729.5862068965516" y="747.6781609195402" type="line"/>
      <point x="887.6321839080459" y="826.8735632183908"/>
      <point x="1082.0459770114942" y="911.6781609195402"/>
      <point x="1120.0459770114942" y="1096.896551724138" type="curve" smooth="yes"/>
      <point x="1160.4367816091954" y="1294.4597701149426"/>
      <point x="1011.3333333333334" y="1452.3908045977012"/>
      <point x="803.5172413793103" y="1452.3908045977012" type="curve" smooth="yes"/>
      <point x="619.9770114942528" y="1452.3908045977012"/>
      <point x="458.4597701149425" y="1355.9540229885058"/>
      <point x="419.2643678160919" y="1166.022988505747" type="curve" smooth="yes"/>
      <point x="385.6551724137931" y="1002.3908045977012"/>
      <point x="448.8735632183908" y="864.0229885057471"/>
      <point x="547.3103448275863" y="738.0" type="curve" smooth="yes"/>
      <point x="916.5747126436781" y="272.0" type="line"/>
      <point x="988.9885057471265" y="182.0"/>
      <point x="1063.4022988505747" y="88.0"/>
    </contour>
    <contour>
      <point x="472.8045977011495" y="-20.39080459770115" type="curve" smooth="yes"/>
      <point x="648.0459770114943" y="-20.39080459770115"/>
      <point x="780.0689655172414" y="81.67816091954023"/>
      <point x="940.8965517241379" y="217.33333333333331" type="curve"/>
      <point x="967.2873563218391" y="217.33333333333331" type="line"/>
      <point x="958.1149425287356" y="250.0919540229885" type="line"/>
      <point x="879.0344827586207" y="345.8620689655172" type="line"/>
      <point x="738.8965517241379" y="201.77011494252875"/>
      <point x="618.4597701149426" y="122.89655172413795"/>
      <point x="491.93103448275866" y="122.89655172413795" type="curve"/>
      <point x="295.37931034482756" y="128.09195402298852"/>
      <point x="210.4597701149425" y="258.2068965517241"/>
      <point x="243.28735632183907" y="415.14942528735634" type="curve" smooth="yes"/>
      <point x="276.91954022988506" y="575.7011494252873"/>
      <point x="401.44827586206895" y="657.7471264367815"/>
      <point x="582.8045977011495" y="722.5747126436781" type="curve"/>
      <point x="523.3563218390805" y="831.5632183908046" type="line"/>
      <point x="322.9425287356322" y="766.3678160919541"/>
      <point x="132.48275862068965" y="657.1954022988506"/>
      <point x="82.8735632183908" y="420.367816091954" type="curve" smooth="yes"/>
      <point x="37.678160919540225" y="204.80459770114942"/>
      <point x="175.24137931034485" y="-20.39080459770115"/>
    </contour>
    <contour>
      <point x="1059.8160919540228" y="324.2758620689655" type="line"/>
      <point x="1176.9885057471265" y="449.4942528735632"/>
      <point x="1287.3563218390802" y="569.1034482758621"/>
      <point x="1410.1149425287356" y="687.9310344827586" type="curve"/>
      <point x="1263.2413793103447" y="791.2873563218391" type="line"/>
      <point x="1173.2183908045977" y="663.2873563218391"/>
      <point x="1076.4137931034484" y="548.4827586206897"/>
      <point x="972.0" y="424.45977011494256" type="curve"/>
    </contour>
  </outline>
</glyph>
<glyph name="parenleft" format="2">
  <advance width="770.1473684210526"/>
  <unicode hex="0028"/>
  <outline>
    <contour>
      <point x="411.0526315789474" y="-242.06315789473683" type="curve"/>
      <point x="556.5894736842105" y="-193.24210526315787" type="line"/>
      <point x="377.8947368421053" y="50.757894736842104"/>
      <point x="250.10526315789474" y="313.6210526315789"/>
      <point x="327.5578947368421" y="675.4315789473684" type="curve" smooth="yes"/>
      <point x="405.01052631578943" y="1039.242105263158"/>
      <point x="638.6105263157893" y="1277.0526315789475"/>
      <point x="906.4000000000001" y="1477.2421052631578" type="curve"/>
      <point x="764.5052631578947" y="1536.9684210526316" type="line"/>
      <point x="506.7368421052631" y="1343.5789473684213"/>
      <point x="243.93684210526317" y="1087.536842105263"/>
      <point x="160.65263157894736" y="694.5684210526316" type="curve" smooth="yes"/>
      <point x="77.36842105263158" y="303.0526315789473"/>
      <point x="239.62105263157892" y="-6.863157894736846"/>
    </contour>
  </outline>
</glyph>
<glyph name="asterisk" format="2">
  <advance width="946.1052631578948"/>
  <unicode hex="002A"/>
  <outline>
    <contour>
      <point x="872.5473684210526" y="672.8210526315789" type="curve"/>
      <point x="962.5052631578947" y="770.2526315789473" type="line"/>
      <point x="843.9368421052632" y="864.421052631579"/>
      <point x="727.5578947368421" y="962.5894736842106"/>
      <point x="614.0842105263157" y="1061.3052631578948" type="curve"/>
      <point x="506.63157894736844" y="1172.042105263158"/>
      <point x="403.7263157894737" y="1281.8736842105263"/>
      <point x="301.36842105263156" y="1394.8" type="curve"/>
      <point x="212.86315789473684" y="1297.3684210526314" type="line"/>
      <point x="329.43157894736845" y="1203.2"/>
      <point x="446.90526315789475" y="1104.4842105263158"/>
      <point x="559.8315789473685" y="1003.7684210526315" type="curve"/>
      <point x="666.7368421052631" y="895.0315789473684"/>
      <point x="770.1894736842105" y="784.6526315789473"/>
    </contour>
    <contour>
      <point x="180.42105263157893" y="820.9894736842106" type="line"/>
      <point x="318.9684210526316" y="881.9157894736842"/>
      <point x="458.06315789473683" y="939.7473684210527"/>
      <point x="600.6105263157895" y="997.0315789473684" type="curve"/>
      <point x="744.4421052631578" y="1041.5578947368422"/>
      <point x="891.1789473684211" y="1084.084210526316"/>
      <point x="1037.0105263157895" y="1122.6105263157895" type="curve"/>
      <point x="993.4947368421052" y="1246.6315789473683" type="line"/>
      <point x="854.9473684210526" y="1185.157894736842"/>
      <point x="715.8526315789474" y="1127.3263157894737"/>
      <point x="575.3052631578947" y="1072.042105263158" type="curve"/>
      <point x="429.47368421052636" y="1025.5157894736842"/>
      <point x="284.18947368421055" y="984.4421052631578"/>
      <point x="136.3578947368421" y="945.0105263157894" type="curve"/>
    </contour>
    <contour>
      <point x="427.0315789473685" y="603.4526315789474" type="curve"/>
      <point x="556.6947368421053" y="574.8631578947368" type="line"/>
      <point x="577.2210526315789" y="725.5999999999999"/>
      <point x="600.8421052631579" y="876.3368421052633"/>
      <point x="625.0105263157895" y="1027.9789473684211" type="curve"/>
      <point x="663.9368421052632" y="1173.0736842105264"/>
      <point x="702.8631578947368" y="1319.621052631579"/>
      <point x="746.3368421052631" y="1464.7157894736843" type="curve"/>
      <point x="617.2210526315789" y="1492.757894736842" type="line"/>
      <point x="596.6947368421053" y="1342.0210526315789"/>
      <point x="573.0736842105264" y="1191.8315789473684"/>
      <point x="548.9052631578948" y="1044.0" type="curve"/>
      <point x="509.9789473684211" y="894.5473684210527"/>
      <point x="471.0526315789474" y="748.0"/>
    </contour>
  </outline>
</glyph>
<glyph name="plus" format="2">
  <advance width="1177.8736842105263"/>
  <unicode hex="002B"/>
  <outline>
    <contour>
      <point x="424.2105263157895" y="118.50526315789473" type="curve"/>
      <point x="592.1894736842105" y="118.50526315789473" type="line"/>
      <point x="613.0947368421052" y="242.3578947368421"/>
      <point x="636.7368421052631" y="362.5684210526316"/>
      <point x="658.378947368421" y="464.2315789473684" type="curve"/>
      <point x="715.0947368421052" y="729.4526315789474" type="line"/>
      <point x="737.2842105263157" y="832.7578947368421"/>
      <point x="763.4736842105262" y="951.5157894736842"/>
      <point x="796.4" y="1076.821052631579" type="curve"/>
      <point x="628.4210526315791" y="1076.821052631579" type="line"/>
      <point x="607.5157894736842" y="952.9684210526316"/>
      <point x="583.8736842105263" y="832.7578947368421"/>
      <point x="561.6842105263158" y="728.9052631578948" type="curve"/>
      <point x="504.96842105263164" y="464.2315789473684" type="line"/>
      <point x="483.3263157894737" y="362.5684210526316"/>
      <point x="457.1368421052632" y="242.3578947368421"/>
    </contour>
    <contour>
      <point x="128.27368421052628" y="516.5894736842106" type="line"/>
      <point x="256.12631578947367" y="523.3263157894737"/>
      <point x="374.88421052631577" y="523.8736842105263"/>
      <point x="477.09473684210525" y="523.8736842105263" type="curve"/>
      <point x="713.8105263157895" y="523.8736842105263" type="line"/>
      <point x="816.021052631579" y="523.8736842105263"/>
      <point x="934.7789473684211" y="523.3263157894737"/>
      <point x="1057.5368421052633" y="516.5894736842106" type="curve"/>
      <point x="1093.242105263158" y="678.7368421052631" type="line"/>
      <point x="965.9368421052632" y="672.0"/>
      <point x="847.1789473684211" y="671.4526315789474"/>
      <point x="744.9684210526316" y="671.4526315789474" type="curve"/>
      <point x="508.2526315789474" y="671.4526315789474" type="line"/>
      <point x="406.0421052631579" y="671.4526315789474"/>
      <point x="287.2842105263158" y="672.0"/>
      <point x="163.97894736842105" y="678.7368421052631" type="curve"/>
    </contour>
  </outline>
</glyph>
<glyph name="comma" format="2">
  <advance width="459.7473684210526"/>
  <unicode hex="002C"/>
  <outline>
    <contour>
      <point x="-107.91578947368421" y="-314.0" type="curve"/>
      <point x="0.6105263157894725" y="-311.4526315789474" type="line"/>
      <point x="95.15789473684214" y="-216.37894736842108"/>
      <point x="244.18947368421053" y="-38.88421052631579"/>
      <point x="272.9263157894737" y="100.8" type="curve" smooth="yes"/>
      <point x="287.85263157894735" y="174.88421052631577"/>
      <point x="267.2842105263158" y="230.23157894736843"/>
      <point x="194.82105263157897" y="245.34736842105264" type="curve"/>
      <point x="96.10526315789474" y="238.96842105263158" type="line"/>
      <point x="94.29473684210527" y="174.0"/>
      <point x="85.2" y="109.03157894736842"/>
      <point x="72.46315789473685" y="47.347368421052636" type="curve"/>
      <point x="47.91578947368421" y="-69.93684210526315"/>
      <point x="-13.03157894736843" y="-196.54736842105262"/>
    </contour>
  </outline>
</glyph>
<glyph name="hyphen" format="2">
  <advance width="845.4736842105264"/>
  <unicode hex="002D"/>
  <outline>
    <contour>
      <point x="127.72631578947367" y="513.8526315789475" type="line"/>
      <point x="236.8421052631579" y="520.5894736842106"/>
      <point x="339.41052631578947" y="521.1368421052632"/>
      <point x="427.43157894736845" y="521.1368421052632" type="curve"/>
      <point x="515.4526315789474" y="521.1368421052632"/>
      <point x="618.021052631579" y="520.5894736842106"/>
      <point x="726.042105263158" y="513.8526315789475" type="curve"/>
      <point x="759.7473684210527" y="676.0" type="line"/>
      <point x="649.1789473684211" y="669.2631578947369"/>
      <point x="546.0631578947368" y="668.7157894736843"/>
      <point x="458.0421052631579" y="668.7157894736843" type="curve"/>
      <point x="370.0210526315789" y="668.7157894736843"/>
      <point x="268.0" y="669.2631578947369"/>
      <point x="161.4315789473684" y="676.0" type="curve"/>
    </contour>
  </outline>
</glyph>
<glyph name="slash" format="2">
  <advance width="901.7263157894737"/>
  <unicode hex="002F"/>
  <outline>
    <contour>
      <point x="-51.53684210526316" y="0.0" type="curve"/>
      <point x="145.60000000000002" y="0.0" type="line"/>
      <point x="228.6526315789474" y="148.0"/>
      <point x="305.7263157894737" y="274.0"/>
      <point x="421.70526315789476" y="456.0" type="curve"/>
      <point x="731.8315789473685" y="948.0" type="line"/>
      <point x="853.8105263157895" y="1142.0"/>
      <point x="936.5263157894738" y="1272.0"/>
      <point x="1044.1684210526316" y="1426.0" type="curve"/>
      <point x="847.578947368421" y="1426.0" type="line"/>
      <point x="759.621052631579" y="1272.0"/>
      <point x="680.0000000000001" y="1142.0"/>
      <point x="560.5684210526316" y="952.5473684210526" type="curve"/>
      <point x="247.89473684210526" y="456.0" type="line"/>
      <point x="131.91578947368419" y="274.0"/>
      <point x="49.199999999999996" y="148.0"/>
    </contour>
  </outline>
</glyph>
<glyph name="one" format="2">
  <advance width="860.8842105263159"/>
  <unicode hex="0031"/>
  <outline>
    <contour>
      <point x="208.69473684210527" y="959.1578947368421" type="line"/>
      <point x="372.88421052631577" y="1048.8000000000002"/>
      <point x="538.7157894736843" y="1128.9684210526316"/>
      <point x="705.4526315789474" y="1208.042105263158" type="curve"/>
      <point x="744.0842105263158" y="1377.4736842105262" type="line"/>
      <point x="560.4" y="1289.4736842105262"/>
      <point x="378.1684210526316" y="1202.9263157894736"/>
      <point x="193.57894736842104" y="1126.3999999999999" type="curve"/>
    </contour>
    <contour>
      <point x="352.7578947368421" y="0.0" type="curve"/>
      <point x="549.2" y="0.0" type="line"/>
      <point x="572.6315789473684" y="146.7157894736842"/>
      <point x="594.8000000000001" y="273.9789473684211"/>
      <point x="629.3473684210527" y="437.62105263157895" type="curve"/>
      <point x="726.4421052631579" y="895.0947368421052" type="line"/>
      <point x="761.3473684210527" y="1061.8105263157895"/>
      <point x="798.9894736842106" y="1222.7157894736843"/>
      <point x="840.6526315789474" y="1371.2842105263157" type="curve"/>
      <point x="744.0842105263158" y="1377.4736842105262" type="line"/>
      <point x="633.8315789473684" y="1297.1368421052632" type="line"/>
      <point x="610.2105263157895" y="1152.0631578947368"/>
      <point x="581.8526315789474" y="1013.3473684210527"/>
      <point x="550.9473684210526" y="868.2736842105263" type="curve"/>
      <point x="459.87368421052633" y="437.62105263157895" type="line"/>
      <point x="425.3263157894737" y="273.9789473684211"/>
      <point x="393.13684210526316" y="146.7157894736842"/>
    </contour>
  </outline>
</glyph>
<glyph name="two" format="2">
  <advance width="1108.9894736842105"/>
  <unicode hex="0032"/>
  <outline>
    <contour>
      <point x="-6.757894736842104" y="0.0" type="line"/>
      <point x="898.6736842105263" y="0.0" type="line"/>
      <point x="934.0210526315789" y="166.1684210526316" type="line"/>
      <point x="779.8736842105263" y="152.31578947368422"/>
      <point x="625.5578947368421" y="149.7684210526316"/>
      <point x="474.14736842105265" y="149.7684210526316" type="curve"/>
      <point x="195.6842105263158" y="149.7684210526316" type="line"/>
      <point x="217.89473684210526" y="107.51578947368422" type="line"/>
      <point x="478.7157894736842" y="295.2421052631579" type="line"/>
      <point x="835.1578947368422" y="551.8526315789474"/>
      <point x="1026.3368421052633" y="723.2631578947369"/>
      <point x="1074.1473684210528" y="953.221052631579" type="curve" smooth="yes"/>
      <point x="1124.5263157894738" y="1196.7368421052631"/>
      <point x="998.6315789473684" y="1397.4736842105262"/>
      <point x="699.6421052631579" y="1397.4736842105262" type="curve" smooth="yes"/>
      <point x="568.1894736842105" y="1397.4736842105262"/>
      <point x="371.0947368421053" y="1326.0421052631577"/>
      <point x="255.43157894736842" y="1285.3263157894737" type="curve"/>
      <point x="239.19999999999996" y="1102.421052631579" type="line"/>
      <point x="417.70526315789476" y="1196.2315789473685"/>
      <point x="598.9894736842105" y="1246.9894736842105"/>
      <point x="666.8" y="1246.9894736842105" type="curve"/>
      <point x="860.4842105263158" y="1243.8947368421052"/>
      <point x="935.1789473684211" y="1125.2631578947367"/>
      <point x="899.7473684210526" y="959.5578947368422" type="curve" smooth="yes"/>
      <point x="856.6736842105263" y="753.2842105263157"/>
      <point x="646.3578947368421" y="586.0631578947368"/>
      <point x="308.65263157894736" y="335.4315789473684" type="curve"/>
      <point x="211.4105263157895" y="264.5473684210526"/>
      <point x="116.35789473684211" y="198.04210526315788"/>
      <point x="21.115789473684213" y="134.98947368421054" type="curve"/>
    </contour>
  </outline>
</glyph>
<glyph name="four" format="2">
  <advance width="1199.5172413793102"/>
  <unicode hex="0034"/>
  <outline>
    <contour>
      <point x="602.5977011494252" y="0.0" type="curve"/>
      <point x="799.3103448275863" y="0.0" type="line"/>
      <point x="814.1379310344828" y="126.7816091954023"/>
      <point x="835.3333333333334" y="228.75862068965517"/>
      <point x="866.528735632184" y="377.9310344827586" type="curve"/>
      <point x="974.9425287356322" y="889.5862068965517" type="line"/>
      <point x="1007.7471264367816" y="1047.5862068965516"/>
      <point x="1042.1379310344826" y="1205.5862068965516"/>
      <point x="1091.310344827586" y="1371.5862068965516" type="curve"/>
      <point x="890.5977011494252" y="1371.5862068965516" type="line"/>
      <point x="820.1609195402299" y="1283.1724137931035"/>
      <point x="738.1379310344828" y="1191.1494252873563"/>
      <point x="656.919540229885" y="1101.9310344827586" type="curve"/>
      <point x="427.67816091954023" y="851.4942528735633" type="line"/>
      <point x="312.85057471264366" y="725.4712643678162"/>
      <point x="156.02298850574712" y="557.0344827586207"/>
      <point x="50.39080459770115" y="448.98850574712645" type="curve"/>
      <point x="23.6551724137931" y="316.48275862068965" type="line"/>
      <point x="758.0689655172414" y="316.48275862068965" type="line"/>
      <point x="862.8275862068965" y="316.48275862068965"/>
      <point x="1013.9770114942529" y="315.28735632183907"/>
      <point x="1107.5402298850574" y="307.7011494252873" type="curve"/>
      <point x="1143.0574712643677" y="476.11494252873564" type="line"/>
      <point x="1046.2988505747128" y="467.33333333333337"/>
      <point x="892.7586206896551" y="466.1379310344828"/>
      <point x="788.0" y="466.1379310344828" type="curve"/>
      <point x="759.6091954022988" y="466.1379310344828" type="line"/>
      <point x="193.26436781609195" y="466.1379310344828" type="line"/>
      <point x="203.24137931034483" y="399.86206896551727" type="line"/>
      <point x="278.8735632183908" y="489.88505747126436"/>
      <point x="358.09195402298855" y="580.2988505747127"/>
      <point x="440.11494252873564" y="670.3218390804598" type="curve"/>
      <point x="750.5977011494253" y="1008.8045977011494" type="line"/>
      <point x="845.816091954023" y="1114.0229885057472"/>
      <point x="939.448275862069" y="1214.4597701149426"/>
      <point x="1033.4712643678163" y="1307.310344827586" type="curve"/>
      <point x="884.2068965517241" y="1290.1379310344828" type="line"/>
      <point x="863.3793103448276" y="1147.7241379310344"/>
      <point x="834.5747126436781" y="1005.7011494252873"/>
      <point x="803.7701149425287" y="862.0919540229885" type="curve"/>
      <point x="708.528735632184" y="412.2988505747127" type="line"/>
      <point x="696.551724137931" y="377.9310344827586" type="line"/>
      <point x="665.3563218390805" y="228.75862068965517"/>
      <point x="642.1609195402299" y="126.7816091954023"/>
    </contour>
  </outline>
</glyph>
<glyph name="five" format="2">
  <advance width="1150.3448275862067"/>
  <unicode hex="0035"/>
  <outline>
    <contour>
      <point x="472.7816091954023" y="-21.586206896551722" type="curve" smooth="yes"/>
      <point x="788.6666666666667" y="-21.586206896551722"/>
      <point x="968.2758620689655" y="117.58620689655172"/>
      <point x="1027.4712643678158" y="397.95402298850576" type="curve" smooth="yes"/>
      <point x="1090.2758620689654" y="693.9540229885057"/>
      <point x="905.8390804597701" y="883.9310344827586"/>
      <point x="669.816091954023" y="883.9310344827586" type="curve" smooth="yes"/>
      <point x="572.528735632184" y="883.9310344827586"/>
      <point x="502.48275862068965" y="858.7126436781609"/>
      <point x="422.82758620689657" y="820.2758620689655" type="curve"/>
      <point x="406.04597701149424" y="820.2758620689655" type="line"/>
      <point x="424.45977011494256" y="907.1494252873563" type="line"/>
      <point x="450.8735632183908" y="1030.4367816091956"/>
      <point x="480.09195402298855" y="1156.9195402298851"/>
      <point x="511.28735632183907" y="1281.0114942528735" type="curve"/>
      <point x="431.4712643678161" y="1221.9310344827586" type="line"/>
      <point x="635.8850574712644" y="1221.9310344827586" type="line"/>
      <point x="794.2988505747127" y="1221.9310344827586"/>
      <point x="957.9080459770115" y="1220.7356321839081"/>
      <point x="1115.126436781609" y="1205.1724137931035" type="curve"/>
      <point x="1149.4482758620688" y="1371.5862068965516" type="line"/>
      <point x="344.89655172413796" y="1371.5862068965516" type="line"/>
      <point x="324.8735632183908" y="1218.0229885057472"/>
      <point x="290.48275862068965" y="1048.4597701149426"/>
      <point x="252.09195402298852" y="867.7011494252873" type="curve"/>
      <point x="207.70114942528735" y="653.7471264367816" type="line"/>
      <point x="281.93103448275866" y="647.3563218390805" type="line"/>
      <point x="404.0229885057471" y="717.4252873563219"/>
      <point x="486.0459770114943" y="739.8390804597701"/>
      <point x="590.1149425287357" y="739.8390804597701" type="curve"/>
      <point x="768.6206896551723" y="736.6436781609195"/>
      <point x="899.1494252873564" y="628.551724137931"/>
      <point x="855.1034482758621" y="411.54022988505744" type="curve" smooth="yes"/>
      <point x="814.6666666666666" y="212.16091954022988"/>
      <point x="684.1609195402299" y="131.67816091954023"/>
      <point x="471.97701149425285" y="128.48275862068965" type="curve"/>
      <point x="349.9540229885058" y="128.48275862068965"/>
      <point x="201.58620689655172" y="188.0689655172414"/>
      <point x="57.95402298850575" y="271.67816091954023" type="curve"/>
      <point x="6.850574712643676" y="108.04597701149426" type="line"/>
      <point x="112.85057471264368" y="62.02298850574713"/>
      <point x="277.2413793103448" y="-21.586206896551722"/>
    </contour>
  </outline>
</glyph>
<glyph name="six" format="2">
  <advance width="1214.735632183908"/>
  <unicode hex="0036"/>
  <outline>
    <contour>
      <point x="582.7586206896551" y="-21.586206896551722" type="curve" smooth="yes"/>
      <point x="884.6666666666666" y="-21.586206896551722"/>
      <point x="1049.471264367816" y="172.36781609195404"/>
      <point x="1097.471264367816" y="401.58620689655174" type="curve" smooth="yes"/>
      <point x="1153.0574712643677" y="663.5402298850574"/>
      <point x="1007.4712643678162" y="887.9310344827586"/>
      <point x="734.2298850574713" y="887.9310344827586" type="curve" smooth="yes"/>
      <point x="602.5517241379309" y="887.9310344827586"/>
      <point x="443.2413793103449" y="806.6666666666667"/>
      <point x="350.4137931034483" y="730.2528735632184" type="curve"/>
      <point x="321.632183908046" y="732.2528735632184" type="line"/>
      <point x="275.7701149425287" y="668.3908045977012"/>
      <point x="267.7701149425287" y="634.7816091954023"/>
      <point x="288.8735632183908" y="571.264367816092" type="curve"/>
      <point x="406.5977011494253" y="674.9655172413793"/>
      <point x="561.5402298850576" y="743.0344827586207"/>
      <point x="679.6321839080459" y="745.0344827586207" type="curve"/>
      <point x="892.6436781609195" y="740.6436781609195"/>
      <point x="968.2988505747127" y="585.6781609195402"/>
      <point x="933.4712643678162" y="422.34482758620686" type="curve" smooth="yes"/>
      <point x="898.6436781609195" y="259.01149425287355"/>
      <point x="787.3563218390804" y="133.67816091954023"/>
      <point x="585.5402298850574" y="128.48275862068965" type="curve"/>
      <point x="346.89655172413796" y="137.26436781609195"/>
      <point x="244.4367816091954" y="335.448275862069"/>
      <point x="319.264367816092" y="685.5862068965516" type="curve" smooth="yes"/>
      <point x="403.3103448275862" y="1081.7931034482758"/>
      <point x="553.0114942528736" y="1241.5172413793102"/>
      <point x="813.9540229885058" y="1246.712643678161" type="curve"/>
      <point x="869.1494252873564" y="1246.712643678161"/>
      <point x="1007.5402298850577" y="1211.126436781609"/>
      <point x="1148.3678160919542" y="1139.1034482758619" type="curve"/>
      <point x="1199.862068965517" y="1299.1494252873565" type="line"/>
      <point x="1105.8850574712644" y="1334.7586206896553"/>
      <point x="931.1264367816092" y="1397.9770114942528"/>
      <point x="813.9540229885057" y="1397.9770114942528" type="curve" smooth="yes"/>
      <point x="482.7356321839081" y="1397.9770114942528"/>
      <point x="257.2413793103448" y="1194.2528735632184"/>
      <point x="154.45977011494253" y="708.735632183908" type="curve" smooth="yes"/>
      <point x="62.068965517241374" y="267.1954022988506"/>
      <point x="227.65517241379308" y="-21.586206896551722"/>
    </contour>
  </outline>
</glyph>
<glyph name="seven" format="2">
  <advance width="1055.9368421052632"/>
  <unicode hex="0037"/>
  <outline>
    <contour>
      <point x="105.70526315789475" y="0.0" type="curve"/>
      <point x="326.5473684210526" y="0.0" type="line"/>
      <point x="420.67368421052635" y="163.78947368421052"/>
      <point x="524.6315789473684" y="328.4842105263158"/>
      <point x="630.9684210526316" y="488.82105263157894" type="curve"/>
      <point x="815.2842105263157" y="766.5894736842105" type="line"/>
      <point x="925.978947368421" y="934.1894736842105"/>
      <point x="1027.221052631579" y="1087.7894736842106"/>
      <point x="1132.4631578947367" y="1239.3684210526314" type="curve"/>
      <point x="1160.8842105263157" y="1371.2842105263157" type="line"/>
      <point x="234.0" y="1371.2842105263157" type="line"/>
      <point x="198.65263157894736" y="1203.4736842105262" type="line"/>
      <point x="369.8947368421053" y="1218.2315789473685"/>
      <point x="538.042105263158" y="1221.5157894736842"/>
      <point x="703.6421052631579" y="1221.5157894736842" type="curve"/>
      <point x="984.1263157894737" y="1221.5157894736842" type="line"/>
      <point x="939.1157894736842" y="1259.578947368421" type="line"/>
      <point x="878.0631578947368" y="1157.6"/>
      <point x="815.1789473684211" y="1058.1684210526316"/>
      <point x="747.0105263157894" y="954.5473684210526" type="curve"/>
      <point x="471.2631578947368" y="540.0842105263158" type="line"/>
      <point x="352.9263157894737" y="362.29473684210524"/>
      <point x="230.58947368421053" y="179.6"/>
    </contour>
  </outline>
</glyph>
<glyph name="eight" format="2">
  <advance width="1213.9310344827586"/>
  <unicode hex="0038"/>
  <outline>
    <contour>
      <point x="562.7586206896552" y="-21.586206896551722" type="curve" smooth="yes"/>
      <point x="870.2758620689656" y="-21.586206896551722"/>
      <point x="1033.471264367816" y="114.02298850574712"/>
      <point x="1079.8620689655172" y="332.0" type="curve" smooth="yes"/>
      <point x="1129.8620689655172" y="565.2183908045977"/>
      <point x="985.4252873563219" y="692.0459770114942"/>
      <point x="875.448275862069" y="726.0229885057471" type="curve"/>
      <point x="878.6436781609195" y="742.8045977011494" type="line"/>
      <point x="1015.816091954023" y="767.6091954022988"/>
      <point x="1139.8390804597702" y="851.6321839080459"/>
      <point x="1172.6436781609198" y="1007.632183908046" type="curve" smooth="yes"/>
      <point x="1218.6436781609198" y="1223.6091954022988"/>
      <point x="1053.471264367816" y="1397.9770114942528"/>
      <point x="747.5862068965517" y="1397.9770114942528" type="curve" smooth="yes"/>
      <point x="504.45977011494256" y="1397.9770114942528"/>
      <point x="315.28735632183907" y="1301.5862068965516"/>
      <point x="274.0919540229885" y="1105.6091954022988" type="curve" smooth="yes"/>
      <point x="237.28735632183907" y="933.6091954022988"/>
      <point x="338.5057471264368" y="807.1954022988506"/>
      <point x="442.48275862068965" y="770.3908045977012" type="curve"/>
      <point x="439.28735632183907" y="753.6091954022988" type="line"/>
      <point x="314.11494252873564" y="732.4137931034483"/>
      <point x="134.8735632183908" y="660.8045977011494"/>
      <point x="88.06896551724138" y="440.7816091954023" type="curve" smooth="yes"/>
      <point x="39.67816091954023" y="209.60919540229884"/>
      <point x="176.85057471264366" y="-21.586206896551722"/>
    </contour>
    <contour>
      <point x="567.5402298850576" y="129.67816091954023" type="curve"/>
      <point x="305.67816091954023" y="134.0689655172414"/>
      <point x="227.21839080459773" y="278.62068965517244"/>
      <point x="260.8505747126437" y="435.17241379310343" type="curve" smooth="yes"/>
      <point x="298.4827586206897" y="614.9425287356321"/>
      <point x="447.44827586206895" y="662.5977011494252"/>
      <point x="635.2183908045978" y="666.9885057471264" type="curve"/>
      <point x="825.3793103448277" y="662.5977011494252"/>
      <point x="956.2988505747126" y="553.2873563218391"/>
      <point x="917.0574712643678" y="365.10344827586204" type="curve" smooth="yes"/>
      <point x="886.2298850574712" y="215.77011494252875"/>
      <point x="776.5287356321838" y="134.0689655172414"/>
    </contour>
    <contour>
      <point x="682.7356321839081" y="803.4942528735633" type="curve"/>
      <point x="494.1609195402299" y="806.6896551724138"/>
      <point x="403.28735632183907" y="922.8045977011494"/>
      <point x="434.11494252873564" y="1064.1379310344828" type="curve" smooth="yes"/>
      <point x="463.3333333333333" y="1198.6436781609195"/>
      <point x="585.0574712643678" y="1245.9080459770114"/>
      <point x="740.0" y="1250.2988505747126" type="curve"/>
      <point x="930.9885057471265" y="1245.9080459770114"/>
      <point x="1037.080459770115" y="1154.206896551724"/>
      <point x="1005.448275862069" y="1004.4827586206898" type="curve" smooth="yes"/>
      <point x="978.6206896551724" y="875.5632183908046"/>
      <point x="864.9195402298851" y="806.6896551724138"/>
    </contour>
  </outline>
</glyph>
<glyph name="less" format="2">
  <advance width="1136.421052631579"/>
  <unicode hex="003C"/>
  <outline>
    <contour>
      <point x="936.9052631578948" y="137.5157894736842" type="curve"/>
      <point x="973.1578947368421" y="304.7578947368421" type="line"/>
      <point x="842.4842105263158" y="354.5263157894737"/>
      <point x="705.4526315789474" y="417.93684210526317"/>
      <point x="574.4210526315788" y="479.89473684210526" type="curve"/>
      <point x="363.7894736842105" y="578.7368421052632" type="line"/>
      <point x="368.33684210526314" y="596.2105263157895" type="line"/>
      <point x="618.7578947368421" y="693.9578947368421" type="line"/>
      <point x="777.4105263157894" y="755.9157894736843"/>
      <point x="940.9684210526316" y="818.2315789473685"/>
      <point x="1093.0736842105264" y="868.0" type="curve"/>
      <point x="1130.9684210526316" y="1054.9052631578948" type="line"/>
      <point x="994.5684210526316" y="995.978947368421"/>
      <point x="863.8105263157895" y="943.978947368421"/>
      <point x="750.6947368421053" y="899.978947368421" type="curve"/>
      <point x="537.0736842105263" y="816.5473684210526" type="line"/>
      <point x="426.31578947368416" y="774.0"/>
      <point x="296.1052631578947" y="724.5473684210526"/>
      <point x="162.79999999999998" y="679.8315789473685" type="curve"/>
      <point x="126.54736842105261" y="512.5894736842105" type="line"/>
      <point x="241.49473684210528" y="467.87368421052633"/>
      <point x="351.1578947368421" y="418.42105263157896"/>
      <point x="442.4631578947368" y="375.87368421052633" type="curve"/>
      <point x="621.7263157894737" y="292.4421052631579" type="line"/>
      <point x="715.3894736842105" y="248.44210526315788"/>
      <point x="826.1473684210526" y="194.9894736842105"/>
    </contour>
  </outline>
</glyph>
<glyph name="equal" format="2">
  <advance width="1136.421052631579"/>
  <unicode hex="003D"/>
  <outline>
    <contour>
      <point x="87.01052631578946" y="292.9052631578947" type="line"/>
      <point x="213.41052631578947" y="299.6421052631579"/>
      <point x="332.1684210526316" y="300.1894736842105"/>
      <point x="434.37894736842105" y="300.1894736842105" type="curve"/>
      <point x="620.1473684210526" y="300.1894736842105" type="line"/>
      <point x="722.3578947368421" y="300.1894736842105"/>
      <point x="841.1157894736842" y="299.6421052631579"/>
      <point x="965.3263157894737" y="292.9052631578947" type="curve"/>
      <point x="999.578947368421" y="455.0526315789474" type="line"/>
      <point x="872.2736842105263" y="448.3157894736842"/>
      <point x="753.5157894736842" y="447.7684210526316"/>
      <point x="651.3052631578947" y="447.7684210526316" type="curve"/>
      <point x="465.5368421052632" y="447.7684210526316" type="line"/>
      <point x="363.3263157894737" y="447.7684210526316"/>
      <point x="244.56842105263158" y="448.3157894736842"/>
      <point x="121.26315789473685" y="455.0526315789474" type="curve"/>
    </contour>
    <contour>
      <point x="179.57894736842107" y="740.2736842105263" type="line"/>
      <point x="305.9789473684211" y="747.0105263157894"/>
      <point x="424.7368421052632" y="747.5578947368421"/>
      <point x="526.9473684210526" y="747.5578947368421" type="curve"/>
      <point x="712.7157894736841" y="747.5578947368421" type="line"/>
      <point x="814.9263157894736" y="747.5578947368421"/>
      <point x="933.6842105263157" y="747.0105263157894"/>
      <point x="1057.8947368421054" y="740.2736842105263" type="curve"/>
      <point x="1092.1473684210528" y="902.421052631579" type="line"/>
      <point x="964.8421052631579" y="895.6842105263158"/>
      <point x="846.0842105263158" y="895.1368421052632"/>
      <point x="743.8736842105263" y="895.1368421052632" type="curve"/>
      <point x="558.1052631578948" y="895.1368421052632" type="line"/>
      <point x="455.89473684210526" y="895.1368421052632"/>
      <point x="337.13684210526316" y="895.6842105263158"/>
      <point x="213.83157894736843" y="902.421052631579" type="curve"/>
    </contour>
  </outline>
</glyph>
<glyph name="greater" format="2">
  <advance width="1136.421052631579"/>
  <unicode hex="003E"/>
  <outline>
    <contour>
      <point x="47.915789473684214" y="137.5157894736842" type="line"/>
      <point x="184.3157894736842" y="196.44210526315788"/>
      <point x="315.07368421052627" y="248.44210526315788"/>
      <point x="428.1894736842105" y="292.4421052631579" type="curve"/>
      <point x="641.8105263157895" y="375.87368421052633" type="line"/>
      <point x="752.5684210526316" y="418.42105263157896"/>
      <point x="882.7789473684211" y="467.87368421052633"/>
      <point x="1016.0842105263158" y="512.5894736842105" type="curve"/>
      <point x="1052.3368421052633" y="679.8315789473685" type="line"/>
      <point x="937.3894736842105" y="724.5473684210526"/>
      <point x="827.7263157894737" y="774.0"/>
      <point x="736.421052631579" y="816.5473684210526" type="curve"/>
      <point x="557.1578947368421" y="899.978947368421" type="line"/>
      <point x="463.4947368421052" y="943.978947368421"/>
      <point x="352.7368421052631" y="997.4315789473684"/>
      <point x="241.97894736842105" y="1054.9052631578948" type="curve"/>
      <point x="205.7263157894737" y="887.6631578947369" type="line"/>
      <point x="336.4" y="837.8947368421052"/>
      <point x="473.4315789473684" y="774.4842105263158"/>
      <point x="604.4631578947368" y="712.5263157894736" type="curve"/>
      <point x="815.0947368421052" y="613.6842105263157" type="line"/>
      <point x="810.5473684210526" y="596.2105263157895" type="line"/>
      <point x="560.1263157894737" y="498.46315789473687" type="line"/>
      <point x="401.4736842105263" y="436.5052631578948"/>
      <point x="237.9157894736842" y="374.18947368421055"/>
      <point x="85.81052631578949" y="324.42105263157896" type="curve"/>
    </contour>
  </outline>
</glyph>
<glyph name="at" format="2">
  <advance width="1764.778947368421"/>
  <unicode hex="0040"/>
  <outline>
    <contour>
      <point x="954.9473684210527" y="-263.1578947368421" type="curve" smooth="yes"/>
      <point x="1124.042105263158" y="-263.1578947368421"/>
      <point x="1355.8526315789472" y="-189.17894736842106"/>
      <point x="1520.0421052631577" y="-118.82105263157895" type="curve"/>
      <point x="1520.0421052631577" y="13.010526315789477" type="line"/>
      <point x="1310.9263157894736" y="-89.36842105263158"/>
      <point x="1088.1894736842105" y="-145.3473684210526"/>
      <point x="954.9473684210527" y="-152.44210526315788" type="curve"/>
      <point x="400.65263157894736" y="-145.3473684210526"/>
      <point x="152.31578947368422" y="235.09473684210528"/>
      <point x="244.50526315789475" y="668.7368421052631" type="curve" smooth="yes"/>
      <point x="325.93684210526317" y="1052.6105263157895"/>
      <point x="591.4736842105264" y="1233.3894736842105"/>
      <point x="944.9473684210527" y="1240.4842105263158" type="curve"/>
      <point x="1376.336842105263" y="1233.3894736842105"/>
      <point x="1623.578947368421" y="925.3263157894737"/>
      <point x="1542.6736842105263" y="517.3473684210526" type="curve" smooth="yes"/>
      <point x="1513.4105263157894" y="370.4842105263158"/>
      <point x="1381.4736842105262" y="237.45263157894735"/>
      <point x="1292.421052631579" y="235.26315789473682" type="curve"/>
      <point x="1191.5578947368422" y="240.3578947368421"/>
      <point x="1153.221052631579" y="297.62105263157895"/>
      <point x="1181.957894736842" y="438.5684210526316" type="curve"/>
      <point x="1218.2947368421053" y="612.8" type="line"/>
      <point x="1244.8421052631577" y="729.8736842105263"/>
      <point x="1274.4842105263156" y="845.1368421052631"/>
      <point x="1314.673684210526" y="962.5684210526316" type="curve"/>
      <point x="1176.5894736842106" y="953.8315789473684" type="line"/>
      <point x="1144.0421052631577" y="846.5684210526316" type="line"/>
      <point x="1129.6631578947367" y="846.5684210526316" type="line"/>
      <point x="1072.5894736842106" y="918.0421052631579"/>
      <point x="963.8947368421053" y="974.021052631579"/>
      <point x="869.7473684210527" y="974.021052631579" type="curve" smooth="yes"/>
      <point x="682.8421052631579" y="974.021052631579"/>
      <point x="541.9578947368421" y="826.7157894736843"/>
      <point x="496.69473684210527" y="607.6631578947369" type="curve" smooth="yes"/>
      <point x="446.1473684210526" y="364.5473684210526"/>
      <point x="544.7157894736843" y="142.7157894736842"/>
      <point x="779.0526315789474" y="142.7157894736842" type="curve" smooth="yes"/>
      <point x="858.8421052631579" y="142.7157894736842"/>
      <point x="954.2947368421053" y="187.81052631578947"/>
      <point x="1039.178947368421" y="277.07368421052627" type="curve"/>
      <point x="1053.0105263157893" y="277.07368421052627" type="line"/>
      <point x="1075.4105263157894" y="199.78947368421052"/>
      <point x="1148.2105263157894" y="123.81052631578947"/>
      <point x="1300.9473684210525" y="123.81052631578947" type="curve" smooth="yes"/>
      <point x="1400.421052631579" y="123.81052631578947"/>
      <point x="1611.3894736842105" y="263.05263157894734"/>
      <point x="1656.3157894736842" y="494.4" type="curve" smooth="yes"/>
      <point x="1746.6947368421052" y="963.1789473684211"/>
      <point x="1441.557894736842" y="1351.2"/>
      <point x="947.4947368421053" y="1351.2" type="curve" smooth="yes"/>
      <point x="563.1157894736842" y="1351.2"/>
      <point x="223.78947368421055" y="1145.9157894736843"/>
      <point x="129.95789473684212" y="690.421052631579" type="curve" smooth="yes"/>
      <point x="28.294736842105262" y="200.86315789473684"/>
      <point x="327.978947368421" y="-263.1578947368421"/>
    </contour>
    <contour>
      <point x="814.9684210526316" y="268.94736842105266" type="curve"/>
      <point x="656.7578947368421" y="272.94736842105266"/>
      <point x="596.9894736842106" y="411.0315789473684"/>
      <point x="633.6842105263158" y="585.7894736842105" type="curve" smooth="yes"/>
      <point x="665.1157894736842" y="733.6842105263158"/>
      <point x="752.5052631578948" y="840.1473684210526"/>
      <point x="898.3789473684211" y="844.6947368421053" type="curve"/>
      <point x="979.5789473684212" y="845.0526315789474"/>
      <point x="1053.136842105263" y="801.6421052631579"/>
      <point x="1107.6210526315788" y="744.6105263157895" type="curve"/>
      <point x="1036.2105263157894" y="412.63157894736844" type="line"/>
      <point x="964.1052631578948" y="312.5473684210526"/>
      <point x="883.0947368421054" y="272.94736842105266"/>
    </contour>
  </outline>
</glyph>
<glyph name="A" format="2">
  <advance width="1382.5263157894738"/>
  <unicode hex="0041"/>
  <anchor x="586.9894736842106" y="0.0" name="bottom"/>
  <anchor x="1230.0421052631577" y="0.0" name="ogonek"/>
  <anchor x="885.8947368421053" y="1426.0" name="top"/>
  <outline>
    <contour>
      <point x="-61.705263157894734" y="0.0" type="curve"/>
      <point x="166.23157894736846" y="0.0" type="line"/>
      <point x="248.5263157894737" y="169.4105263157895"/>
      <point x="342.82105263157894" y="346.82105263157894"/>
      <point x="434.58947368421053" y="512.7789473684211" type="curve"/>
      <point x="850.5473684210526" y="1262.5894736842106" type="line"/>
      <point x="868.021052631579" y="1262.5894736842106" type="line"/>
      <point x="969.3473684210527" y="510.2315789473684" type="line"/>
      <point x="991.1368421052632" y="348.2736842105263"/>
      <point x="1013.6421052631579" y="165.60000000000002"/>
      <point x="1022.8631578947368" y="0.0" type="curve"/>
      <point x="1233.3263157894737" y="0.0" type="line"/>
      <point x="1202.778947368421" y="150.0"/>
      <point x="1170.2315789473685" y="326.0"/>
      <point x="1146.6105263157895" y="483.81052631578945" type="curve"/>
      <point x="1074.6526315789474" y="973.4526315789474" type="line"/>
      <point x="1049.0315789473684" y="1148.0"/>
      <point x="1033.6" y="1282.7157894736843"/>
      <point x="1025.4526315789474" y="1426.0" type="curve"/>
      <point x="752.3368421052631" y="1426.0" type="line"/>
      <point x="678.7368421052631" y="1276.9052631578948"/>
      <point x="606.2105263157895" y="1143.4526315789474"/>
      <point x="510.0421052631579" y="974.3578947368421" type="curve"/>
      <point x="231.7263157894737" y="486.0" type="line"/>
      <point x="143.55789473684212" y="332.0"/>
      <point x="38.294736842105266" y="152.90526315789475"/>
    </contour>
    <contour>
      <point x="294.86315789473684" y="358.37894736842105" type="line"/>
      <point x="1045.4526315789474" y="358.37894736842105" type="line"/>
      <point x="1061.8315789473684" y="500.4842105263158" type="line"/>
      <point x="339.15789473684214" y="500.4842105263158" type="line"/>
    </contour>
  </outline>
</glyph>
<glyph name="B" format="2">
  <advance width="1294.0919540229886"/>
  <unicode hex="0042"/>
  <outline>
    <contour>
      <point x="568.1379310344828" y="-6.781609195402299" type="curve"/>
      <point x="1008.0229885057471" y="-6.781609195402299"/>
      <point x="1139.2413793103449" y="137.60919540229884"/>
      <point x="1184.8275862068963" y="351.5632183908046" type="curve" smooth="yes"/>
      <point x="1229.6321839080458" y="567.5862068965517"/>
      <point x="1108.8045977011495" y="684.3678160919541"/>
      <point x="978.8505747126436" y="728.3678160919541" type="curve"/>
      <point x="982.8505747126437" y="746.3448275862069" type="line"/>
      <point x="1136.4367816091956" y="788.3678160919541"/>
      <point x="1249.218390804598" y="867.6091954022988"/>
      <point x="1286.4137931034484" y="1044.0" type="curve" smooth="yes"/>
      <point x="1330.0229885057472" y="1257.2413793103449"/>
      <point x="1215.9540229885058" y="1431.5862068965516"/>
      <point x="870.5977011494251" y="1431.5862068965516" type="curve"/>
      <point x="683.0344827586207" y="1431.5862068965516"/>
      <point x="519.5402298850574" y="1426.0"/>
      <point x="369.5632183908046" y="1426.0" type="curve"/>
      <point x="345.54022988505744" y="1266.3908045977012"/>
      <point x="321.1264367816092" y="1127.5862068965516"/>
      <point x="283.1264367816092" y="946.0" type="curve"/>
      <point x="181.9310344827586" y="471.2183908045977" type="line"/>
      <point x="144.73563218390805" y="294.82758620689657"/>
      <point x="112.3448275862069" y="158.41379310344828"/>
      <point x="69.56321839080461" y="0.0" type="curve"/>
      <point x="162.2528735632184" y="0.0"/>
      <point x="357.42528735632186" y="-6.781609195402299"/>
    </contour>
    <contour>
      <point x="299.0114942528736" y="150.45977011494253" type="line"/>
      <point x="318.22988505747134" y="262.55172413793105"/>
      <point x="339.448275862069" y="370.62068965517244"/>
      <point x="367.86206896551727" y="504.6896551724138" type="curve"/>
      <point x="454.712643678161" y="915.3333333333334" type="line"/>
      <point x="483.12643678160924" y="1050.5977011494253"/>
      <point x="507.5402298850575" y="1157.471264367816"/>
      <point x="538.3448275862069" y="1275.5402298850574" type="curve"/>
      <point x="850.2528735632184" y="1275.5402298850574" type="line" smooth="yes"/>
      <point x="1043.2413793103449" y="1275.5402298850574"/>
      <point x="1130.528735632184" y="1187.4482758620688"/>
      <point x="1098.0919540229886" y="1031.6781609195402" type="curve" smooth="yes"/>
      <point x="1069.2643678160919" y="894.7586206896551"/>
      <point x="955.1954022988505" y="794.2528735632184"/>
      <point x="733.7701149425286" y="794.2528735632184" type="curve" smooth="yes"/>
      <point x="387.17241379310343" y="794.2528735632184" type="line"/>
      <point x="356.4367816091954" y="649.3793103448276" type="line"/>
      <point x="715.0344827586206" y="649.3793103448276" type="line" smooth="yes"/>
      <point x="928.8045977011494" y="649.3793103448276"/>
      <point x="1038.9195402298851" y="552.8965517241379"/>
      <point x="1002.4827586206895" y="378.2988505747126" type="curve" smooth="yes"/>
      <point x="969.6551724137929" y="219.74712643678163"/>
      <point x="853.9540229885057" y="150.45977011494253"/>
      <point x="583.264367816092" y="150.45977011494253" type="curve" smooth="yes"/>
    </contour>
  </outline>
</glyph>
<glyph name="C" format="2">
  <advance width="1369.9894736842105"/>
  <unicode hex="0043"/>
  <anchor x="693.8" y="0.0" name="bottom"/>
  <anchor x="979.2736842105263" y="1426.0" name="top"/>
  <outline>
    <contour>
      <point x="765.4631578947369" y="-21.83157894736842" type="curve" smooth="yes"/>
      <point x="902.7473684210526" y="-21.83157894736842"/>
      <point x="1058.3894736842103" y="18.16842105263158"/>
      <point x="1170.2" y="70.50526315789475" type="curve"/>
      <point x="1193.9052631578948" y="257.7684210526316" type="line"/>
      <point x="1068.0736842105262" y="179.57894736842107"/>
      <point x="914.0526315789473" y="134.4842105263158"/>
      <point x="788.6421052631579" y="134.4842105263158" type="curve"/>
      <point x="413.0210526315789" y="141.03157894736842"/>
      <point x="273.8421052631579" y="449.6"/>
      <point x="342.34736842105264" y="773.9578947368421" type="curve" smooth="yes"/>
      <point x="417.94736842105266" y="1130.8842105263157"/>
      <point x="656.5578947368421" y="1285.4947368421053"/>
      <point x="955.7578947368422" y="1292.042105263158" type="curve"/>
      <point x="1032.663157894737" y="1292.042105263158"/>
      <point x="1196.6421052631579" y="1254.9473684210527"/>
      <point x="1394.4736842105262" y="1164.5684210526315" type="curve"/>
      <point x="1447.4842105263156" y="1341.6631578947367" type="line"/>
      <point x="1327.842105263158" y="1387.4736842105265"/>
      <point x="1136.9368421052632" y="1452.1894736842105"/>
      <point x="972.3473684210527" y="1452.1894736842105" type="curve" smooth="yes"/>
      <point x="543.7157894736841" y="1452.1894736842105"/>
      <point x="249.56842105263158" y="1226.1894736842105"/>
      <point x="160.1157894736842" y="800.1894736842106" type="curve" smooth="yes"/>
      <point x="69.92631578947369" y="372.6947368421052"/>
      <point x="282.8736842105263" y="-21.83157894736842"/>
    </contour>
  </outline>
</glyph>
<glyph name="D" format="2">
  <advance width="1475.8105263157895"/>
  <unicode hex="0044"/>
  <anchor x="598.1894736842105" y="0.0" name="bottom"/>
  <anchor x="785.3578947368421" y="714.0" name="center"/>
  <anchor x="898.1894736842105" y="1426.0" name="top"/>
  <outline>
    <contour>
      <point x="69.85263157894738" y="0.0" type="curve"/>
      <point x="242.39999999999998" y="0.0"/>
      <point x="382.8421052631579" y="-6.378947368421053"/>
      <point x="576.9052631578946" y="-6.378947368421053" type="curve"/>
      <point x="1114.2315789473685" y="-6.378947368421053"/>
      <point x="1328.9684210526316" y="258.5473684210527"/>
      <point x="1413.8736842105263" y="664.9052631578948" type="curve" smooth="yes"/>
      <point x="1498.421052631579" y="1072.9263157894736"/>
      <point x="1290.2315789473685" y="1431.2842105263157"/>
      <point x="824.0842105263157" y="1431.2842105263157" type="curve"/>
      <point x="670.5263157894736" y="1431.2842105263157"/>
      <point x="529.6631578947369" y="1426.0"/>
      <point x="369.85263157894735" y="1426.0" type="curve"/>
      <point x="345.87368421052633" y="1266.1894736842105"/>
      <point x="321.70526315789476" y="1127.8315789473684"/>
      <point x="283.15789473684214" y="946.5473684210526" type="curve"/>
      <point x="182.06315789473683" y="471.0736842105263" type="line"/>
      <point x="145.5157894736842" y="294.88421052631577"/>
      <point x="112.77894736842106" y="158.16842105263157"/>
    </contour>
    <contour>
      <point x="302.0" y="150.67368421052632" type="line"/>
      <point x="321.0736842105263" y="264.2315789473684"/>
      <point x="342.69473684210527" y="373.2631578947368"/>
      <point x="370.86315789473684" y="507.2" type="curve"/>
      <point x="457.17894736842106" y="916.0631578947368" type="line"/>
      <point x="485.89473684210526" y="1052.1894736842105"/>
      <point x="511.15789473684214" y="1160.1263157894737"/>
      <point x="539.8736842105264" y="1275.3263157894737" type="curve"/>
      <point x="780.7157894736843" y="1275.3263157894737" type="line"/>
      <point x="1167.3473684210524" y="1267.6842105263158"/>
      <point x="1297.0526315789473" y="1000.4000000000001"/>
      <point x="1229.4526315789474" y="686.021052631579" type="curve" smooth="yes"/>
      <point x="1160.9473684210527" y="359.8526315789474"/>
      <point x="1015.4105263157894" y="158.86315789473684"/>
      <point x="590.9473684210526" y="150.67368421052632" type="curve"/>
    </contour>
  </outline>
</glyph>
<glyph name="E" format="2">
  <advance width="1188.5747126436784"/>
  <unicode hex="0045"/>
  <anchor x="525.83908045977" y="0.0" name="bottom"/>
  <anchor x="968.1379310344827" y="0.0" name="ogonek"/>
  <anchor x="825.83908045977" y="1426.0" name="top"/>
  <anchor x="269.4022988505747" y="1426.0" name="topleft"/>
  <outline>
    <contour>
      <point x="69.5632183908046" y="0.0" type="curve"/>
      <point x="275.05747126436785" y="0.0" type="line"/>
      <point x="281.8390804597702" y="27.126436781609197" type="line"/>
      <point x="302.6666666666667" y="185.54022988505747"/>
      <point x="328.2758620689656" y="321.14942528735634"/>
      <point x="366.2758620689656" y="498.3448275862069" type="curve"/>
      <point x="455.90804597701157" y="923.6781609195402" type="line"/>
      <point x="493.1034482758621" y="1103.2643678160919"/>
      <point x="527.4942528735633" y="1240.0689655172414"/>
      <point x="570.2758620689656" y="1399.6781609195402" type="curve"/>
      <point x="575.0574712643679" y="1426.0" type="line"/>
      <point x="369.5632183908046" y="1426.0" type="line"/>
      <point x="345.54022988505744" y="1266.3908045977012"/>
      <point x="321.1264367816092" y="1127.5862068965516"/>
      <point x="283.1264367816092" y="946.0" type="curve"/>
      <point x="181.9310344827586" y="471.2183908045977" type="line"/>
      <point x="144.73563218390805" y="294.82758620689657"/>
      <point x="112.3448275862069" y="158.41379310344828"/>
    </contour>
    <contour>
      <point x="237.93103448275858" y="0.0" type="line"/>
      <point x="970.5287356321838" y="0.0" type="line"/>
      <point x="1007.2413793103448" y="171.60919540229884" type="line"/>
      <point x="860.4137931034483" y="158.4367816091954"/>
      <point x="707.1724137931035" y="155.24137931034483"/>
      <point x="533.1264367816092" y="155.24137931034483" type="curve"/>
      <point x="271.0574712643678" y="155.24137931034483" type="line"/>
    </contour>
    <contour>
      <point x="356.4367816091954" y="647.3793103448276" type="line"/>
      <point x="632.4827586206897" y="647.3793103448276" type="line"/>
      <point x="812.1149425287356" y="647.3793103448276"/>
      <point x="933.3333333333333" y="646.183908045977"/>
      <point x="1064.16091954023" y="640.5977011494252" type="curve"/>
      <point x="1099.6781609195402" y="808.6206896551724" type="line"/>
      <point x="973.2643678160919" y="799.0344827586207"/>
      <point x="850.0459770114942" y="797.8390804597701"/>
      <point x="666.4137931034483" y="797.8390804597701" type="curve"/>
      <point x="388.367816091954" y="797.8390804597701" type="line"/>
    </contour>
    <contour>
      <point x="495.2413793103449" y="1270.7586206896551" type="line"/>
      <point x="751.7011494252872" y="1270.7586206896551" type="line"/>
      <point x="958.5517241379309" y="1270.7586206896551"/>
      <point x="1100.9885057471267" y="1266.367816091954"/>
      <point x="1233.4252873563219" y="1254.3908045977012" type="curve"/>
      <point x="1268.9425287356323" y="1426.0" type="line"/>
      <point x="528.367816091954" y="1426.0" type="line"/>
    </contour>
  </outline>
</glyph>
<glyph name="F" format="2">
  <advance width="1150.2105263157894"/>
  <unicode hex="0046"/>
  <outline>
    <contour>
      <point x="69.85263157894738" y="0.0" type="curve"/>
      <point x="275.7684210526316" y="0.0" type="line"/>
      <point x="297.7473684210526" y="158.16842105263157"/>
      <point x="321.9157894736842" y="291.9789473684211"/>
      <point x="359.91578947368424" y="471.0736842105263" type="curve"/>
      <point x="456.0842105263158" y="923.2" type="line"/>
      <point x="493.17894736842106" y="1103.0315789473684"/>
      <point x="527.9157894736842" y="1239.9368421052632"/>
      <point x="571.3894736842104" y="1399.7473684210527" type="curve"/>
      <point x="575.7684210526315" y="1426.0" type="line"/>
      <point x="369.85263157894735" y="1426.0" type="line"/>
      <point x="345.87368421052633" y="1266.1894736842105"/>
      <point x="321.70526315789476" y="1127.8315789473684"/>
      <point x="283.15789473684214" y="946.5473684210526" type="curve"/>
      <point x="182.06315789473683" y="471.0736842105263" type="line"/>
      <point x="145.5157894736842" y="294.88421052631577"/>
      <point x="112.77894736842106" y="158.16842105263157"/>
    </contour>
    <contour>
      <point x="352.3157894736842" y="638.1684210526316" type="line"/>
      <point x="613.7473684210527" y="638.1684210526316" type="line"/>
      <point x="793.5368421052632" y="638.1684210526316"/>
      <point x="914.0631578947368" y="637.0736842105264"/>
      <point x="1044.9473684210527" y="630.6947368421053" type="curve"/>
      <point x="1080.2947368421053" y="799.7684210526317" type="line"/>
      <point x="954.6736842105263" y="789.9368421052632"/>
      <point x="831.6" y="788.8421052631579"/>
      <point x="647.2631578947369" y="788.8421052631579" type="curve"/>
      <point x="384.37894736842105" y="788.8421052631579" type="line"/>
    </contour>
    <contour>
      <point x="493.41052631578947" y="1270.4" type="line"/>
      <point x="735.0105263157894" y="1270.4" type="line"/>
      <point x="941.8736842105263" y="1270.4"/>
      <point x="1084.021052631579" y="1265.663157894737"/>
      <point x="1216.7157894736843" y="1254.7368421052633" type="curve"/>
      <point x="1252.0631578947368" y="1426.0" type="line"/>
      <point x="526.5684210526315" y="1426.0" type="line"/>
    </contour>
  </outline>
</glyph>
<glyph name="G" format="2">
  <advance width="1466.5157894736842"/>
  <unicode hex="0047"/>
  <anchor x="693.8" y="0.0" name="bottom"/>
  <anchor x="993.8" y="1426.0" name="top"/>
  <outline>
    <contour>
      <point x="800.0105263157895" y="-21.28421052631579" type="curve" smooth="yes"/>
      <point x="944.1789473684211" y="-21.28421052631579"/>
      <point x="1134.7684210526315" y="21.621052631578948"/>
      <point x="1245.8631578947368" y="59.410526315789475" type="curve"/>
      <point x="1245.6947368421054" y="235.38947368421054" type="line"/>
      <point x="1096.9578947368423" y="163.74736842105264"/>
      <point x="958.2631578947368" y="131.74736842105264"/>
      <point x="810.2210526315789" y="131.74736842105264" type="curve"/>
      <point x="402.4947368421053" y="138.29473684210527"/>
      <point x="271.6526315789474" y="446.31578947368416"/>
      <point x="341.2526315789474" y="775.0526315789474" type="curve" smooth="yes"/>
      <point x="418.8526315789474" y="1139.4315789473683"/>
      <point x="662.4105263157895" y="1286.042105263158"/>
      <point x="958.3263157894738" y="1292.042105263158" type="curve"/>
      <point x="1039.2315789473685" y="1292.042105263158"/>
      <point x="1213.2105263157896" y="1250.5894736842106"/>
      <point x="1423.5894736842104" y="1147.136842105263" type="curve"/>
      <point x="1476.6000000000001" y="1323.6842105263156" type="line"/>
      <point x="1346.221052631579" y="1376.757894736842"/>
      <point x="1140.0315789473684" y="1452.1894736842105"/>
      <point x="960.1578947368421" y="1452.1894736842105" type="curve" smooth="yes"/>
      <point x="537.021052631579" y="1452.1894736842105"/>
      <point x="250.66315789473686" y="1227.6631578947367"/>
      <point x="160.1157894736842" y="800.1894736842106" type="curve" smooth="yes"/>
      <point x="69.56842105263158" y="371.8105263157895"/>
      <point x="270.85263157894735" y="-21.28421052631579"/>
    </contour>
    <contour>
      <point x="1057.2736842105262" y="59.410526315789475" type="curve"/>
      <point x="1245.8631578947368" y="59.410526315789475" type="line"/>
      <point x="1268.578947368421" y="197.97894736842105"/>
      <point x="1287.1263157894737" y="298.3578947368421"/>
      <point x="1308.7684210526318" y="403.8315789473684" type="curve"/>
      <point x="1335.3157894736844" y="528.7578947368421"/>
      <point x="1359.1473684210528" y="616.5894736842105"/>
      <point x="1389.7157894736845" y="715.5157894736842" type="curve"/>
      <point x="1186.915789473684" y="715.5157894736842" type="line"/>
      <point x="1177.2947368421053" y="616.5894736842105"/>
      <point x="1163.4842105263158" y="528.7578947368421"/>
      <point x="1136.9368421052632" y="403.8315789473684" type="curve"/>
      <point x="1115.294736842105" y="298.3578947368421"/>
      <point x="1092.557894736842" y="197.97894736842105"/>
    </contour>
  </outline>
</glyph>
<glyph name="H" format="2">
  <advance width="1506.0210526315789"/>
  <unicode hex="0048"/>
  <anchor x="648.7368421052631" y="0.0" name="bottom"/>
  <anchor x="798.7368421052631" y="714.0" name="center"/>
  <anchor x="948.7368421052631" y="1426.0" name="top"/>
  <anchor x="271.2842105263158" y="1426.0" name="topleft"/>
  <outline>
    <contour>
      <point x="1017.8736842105262" y="0.0" type="curve"/>
      <point x="1227.0736842105264" y="0.0" type="line"/>
      <point x="1249.0526315789473" y="158.16842105263157"/>
      <point x="1273.221052631579" y="291.9789473684211"/>
      <point x="1311.221052631579" y="471.0736842105263" type="curve"/>
      <point x="1412.3157894736842" y="946.5473684210526" type="line"/>
      <point x="1450.8631578947368" y="1127.8315789473684"/>
      <point x="1483.6" y="1266.1894736842105"/>
      <point x="1527.0736842105264" y="1426.0" type="curve"/>
      <point x="1317.8736842105263" y="1426.0" type="line"/>
      <point x="1293.8947368421052" y="1266.1894736842105"/>
      <point x="1269.7263157894736" y="1127.8315789473684"/>
      <point x="1231.178947368421" y="946.5473684210526" type="curve"/>
      <point x="1130.0842105263157" y="471.0736842105263" type="line"/>
      <point x="1093.536842105263" y="294.88421052631577"/>
      <point x="1060.8" y="158.16842105263157"/>
    </contour>
    <contour>
      <point x="69.85263157894738" y="0.0" type="curve"/>
      <point x="279.0526315789474" y="0.0" type="line"/>
      <point x="301.0315789473684" y="158.16842105263157"/>
      <point x="325.2" y="291.9789473684211"/>
      <point x="363.20000000000005" y="471.0736842105263" type="curve"/>
      <point x="464.2947368421053" y="946.5473684210526" type="line"/>
      <point x="502.8421052631579" y="1127.8315789473684"/>
      <point x="535.5789473684212" y="1266.1894736842105"/>
      <point x="579.0526315789474" y="1426.0" type="curve"/>
      <point x="369.85263157894735" y="1426.0" type="line"/>
      <point x="345.87368421052633" y="1266.1894736842105"/>
      <point x="321.70526315789476" y="1127.8315789473684"/>
      <point x="283.15789473684214" y="946.5473684210526" type="curve"/>
      <point x="182.06315789473683" y="471.0736842105263" type="line"/>
      <point x="145.5157894736842" y="294.88421052631577"/>
      <point x="112.77894736842106" y="158.16842105263157"/>
    </contour>
    <contour>
      <point x="336.0" y="644.1894736842105" type="line"/>
      <point x="1235.578947368421" y="644.1894736842105" type="line"/>
      <point x="1269.284210526316" y="799.7894736842105" type="line"/>
      <point x="369.70526315789476" y="799.7894736842105" type="line"/>
    </contour>
  </outline>
</glyph>
<glyph name="I" format="2">
  <advance width="566.2105263157895"/>
  <unicode hex="0049"/>
  <anchor x="175.3684210526316" y="0.0" name="bottom"/>
  <anchor x="281.7894736842105" y="0.0" name="ogonek"/>
  <anchor x="475.3684210526316" y="1426.0" name="top"/>
  <anchor x="266.1684210526316" y="1426.0" name="topleft"/>
  <outline>
    <contour>
      <point x="72.58947368421053" y="0.0" type="curve"/>
      <point x="284.5263157894737" y="0.0" type="line"/>
      <point x="306.5052631578947" y="158.16842105263157"/>
      <point x="330.6736842105263" y="291.9789473684211"/>
      <point x="368.67368421052635" y="471.0736842105263" type="curve"/>
      <point x="469.7684210526316" y="946.5473684210526" type="line"/>
      <point x="508.3157894736842" y="1127.8315789473684"/>
      <point x="541.0526315789474" y="1266.1894736842105"/>
      <point x="584.5263157894736" y="1426.0" type="curve"/>
      <point x="372.5894736842105" y="1426.0" type="line"/>
      <point x="348.61052631578946" y="1266.1894736842105"/>
      <point x="324.4421052631579" y="1127.8315789473684"/>
      <point x="285.89473684210526" y="946.5473684210526" type="curve"/>
      <point x="184.79999999999998" y="471.0736842105263" type="line"/>
      <point x="148.25263157894736" y="294.88421052631577"/>
      <point x="115.51578947368421" y="158.16842105263157"/>
    </contour>
  </outline>
</glyph>
<glyph name="J" format="2">
  <advance width="589.0736842105263"/>
  <unicode hex="004A"/>
  <anchor x="198.96842105263158" y="0.0" name="bottom"/>
  <anchor x="498.9684210526316" y="1426.0" name="top"/>
  <outline>
    <contour>
      <point x="-149.1578947368421" y="-315.62105263157895" type="curve"/>
      <point x="60.65263157894737" y="-315.62105263157895" type="line"/>
      <point x="153.74736842105264" y="-224.52631578947367"/>
      <point x="284.842105263158" y="-81.97894736842105"/>
      <point x="328.48421052631585" y="124.58947368421053" type="curve" smooth="yes"/>
      <point x="359.22105263157897" y="268.82105263157894"/>
      <point x="381.38947368421054" y="423.6"/>
      <point x="417.5789473684211" y="594.5473684210526" type="curve"/>
      <point x="492.63157894736844" y="946.5473684210526" type="line"/>
      <point x="531.1789473684211" y="1127.8315789473684"/>
      <point x="563.9157894736842" y="1266.1894736842105"/>
      <point x="607.3894736842105" y="1426.0" type="curve"/>
      <point x="398.1894736842105" y="1426.0" type="line"/>
      <point x="374.2105263157894" y="1266.1894736842105"/>
      <point x="350.04210526315785" y="1127.8315789473684"/>
      <point x="311.4947368421052" y="946.5473684210526" type="curve"/>
      <point x="226.2736842105263" y="546.6105263157895" type="line"/>
      <point x="137.87368421052633" y="135.5157894736842" type="line"/>
      <point x="100.42105263157897" y="-40.29473684210526"/>
      <point x="-12.98947368421053" y="-185.9578947368421"/>
    </contour>
  </outline>
</glyph>
<glyph name="K" format="2">
  <advance width="1344.5263157894738"/>
  <unicode hex="004B"/>
  <anchor x="583.5368421052631" y="0.0" name="bottom"/>
  <anchor x="883.5368421052631" y="1426.0" name="top"/>
  <outline>
    <contour>
      <point x="952.6526315789474" y="0.0" type="curve"/>
      <point x="1197.5157894736844" y="0.0" type="line"/>
      <point x="1093.3684210526314" y="120.73684210526316"/>
      <point x="942.7157894736841" y="316.58947368421053"/>
      <point x="832.778947368421" y="463.1578947368421" type="curve"/>
      <point x="594.0" y="781.9368421052632" type="line"/>
      <point x="595.8105263157895" y="696.6736842105263" type="line"/>
      <point x="921.1578947368421" y="977.7894736842105" type="line"/>
      <point x="1094.7368421052631" y="1124.7157894736843"/>
      <point x="1267.7684210526315" y="1272.0"/>
      <point x="1460.9894736842107" y="1426.0" type="curve"/>
      <point x="1194.2947368421053" y="1426.0" type="line"/>
      <point x="1035.178947368421" y="1277.4947368421053"/>
      <point x="918.3578947368421" y="1172.9684210526316"/>
      <point x="784.2736842105262" y="1057.7263157894736" type="curve"/>
      <point x="497.0315789473685" y="811.978947368421" type="line"/>
      <point x="414.67368421052635" y="811.978947368421" type="line"/>
      <point x="383.15789473684214" y="663.4947368421052" type="line"/>
      <point x="466.2526315789474" y="663.4947368421052" type="line"/>
      <point x="686.9473684210526" y="370.10526315789474" type="line"/>
      <point x="772.8631578947368" y="257.2210526315789"/>
      <point x="858.2315789473683" y="140.8842105263158"/>
    </contour>
    <contour>
      <point x="69.85263157894738" y="0.0" type="curve"/>
      <point x="278.5052631578948" y="0.0" type="line"/>
      <point x="300.4842105263158" y="158.16842105263157"/>
      <point x="324.65263157894736" y="291.9789473684211"/>
      <point x="362.6526315789474" y="471.0736842105263" type="curve"/>
      <point x="463.74736842105267" y="946.5473684210526" type="line"/>
      <point x="502.2947368421053" y="1127.8315789473684"/>
      <point x="535.0315789473685" y="1266.1894736842105"/>
      <point x="578.5052631578948" y="1426.0" type="curve"/>
      <point x="369.85263157894735" y="1426.0" type="line"/>
      <point x="345.87368421052633" y="1266.1894736842105"/>
      <point x="321.70526315789476" y="1127.8315789473684"/>
      <point x="283.15789473684214" y="946.5473684210526" type="curve"/>
      <point x="182.06315789473683" y="471.0736842105263" type="line"/>
      <point x="145.5157894736842" y="294.88421052631577"/>
      <point x="112.77894736842106" y="158.16842105263157"/>
    </contour>
  </outline>
</glyph>
<glyph name="L" format="2">
  <advance width="1139.1157894736843"/>
  <unicode hex="004C"/>
  <anchor x="521.9578947368421" y="0.0" name="bottom"/>
  <anchor x="893.5368421052632" y="715.6421052631579" name="center"/>
  <anchor x="600.5052631578948" y="1426.0" name="top"/>
  <anchor x="672.2947368421053" y="992.3789473684211" name="topright"/>
  <outline>
    <contour>
      <point x="69.85263157894738" y="0.0" type="curve"/>
      <point x="279.0526315789474" y="0.0" type="line"/>
      <point x="285.43157894736845" y="27.705263157894738" type="line"/>
      <point x="306.86315789473684" y="185.8736842105263"/>
      <point x="333.0315789473684" y="322.58947368421053"/>
      <point x="369.5789473684211" y="498.77894736842103" type="curve"/>
      <point x="464.2947368421053" y="946.5473684210526" type="line"/>
      <point x="502.8421052631579" y="1127.8315789473684"/>
      <point x="535.5789473684212" y="1266.1894736842105"/>
      <point x="579.0526315789474" y="1426.0" type="curve"/>
      <point x="369.85263157894735" y="1426.0" type="line"/>
      <point x="345.87368421052633" y="1266.1894736842105"/>
      <point x="321.70526315789476" y="1127.8315789473684"/>
      <point x="283.15789473684214" y="946.5473684210526" type="curve"/>
      <point x="182.06315789473683" y="471.0736842105263" type="line"/>
      <point x="145.5157894736842" y="294.88421052631577"/>
      <point x="112.77894736842106" y="158.16842105263157"/>
    </contour>
    <contour>
      <point x="238.06315789473683" y="0.0" type="line"/>
      <point x="966.2315789473685" y="0.0" type="line"/>
      <point x="1003.7684210526315" y="180.56842105263158" type="line"/>
      <point x="845.6210526315789" y="166.90526315789475"/>
      <point x="712.9263157894736" y="161.07368421052632"/>
      <point x="484.44210526315794" y="161.07368421052632" type="curve"/>
      <point x="272.8631578947369" y="161.07368421052632" type="line"/>
    </contour>
  </outline>
</glyph>
<glyph name="M" format="2">
  <advance width="1911.4947368421053"/>
  <unicode hex="004D"/>
  <anchor x="850.9263157894737" y="0.0" name="bottom"/>
  <anchor x="1150.9263157894736" y="1426.0" name="top"/>
  <outline>
    <contour>
      <point x="14.063157894736845" y="0.0" type="curve"/>
      <point x="217.9578947368421" y="0.0" type="line"/>
      <point x="289.5157894736842" y="248.0421052631579"/>
      <point x="361.4526315789474" y="482.0842105263158"/>
      <point x="427.05263157894734" y="679.7894736842105" type="curve"/>
      <point x="567.1578947368421" y="1106.2736842105264" type="line"/>
      <point x="580.2736842105264" y="1106.2736842105264" type="line"/>
      <point x="671.2842105263157" y="643.4526315789474" type="line"/>
      <point x="711.4315789473684" y="429.0315789473684"/>
      <point x="750.4631578947368" y="182.82105263157894"/>
      <point x="778.2315789473685" y="0.0" type="curve"/>
      <point x="931.0947368421054" y="0.0" type="line"/>
      <point x="1041.1789473684212" y="192.44210526315788"/>
      <point x="1177.2421052631578" y="425.0315789473684"/>
      <point x="1310.2315789473685" y="646.3578947368421" type="curve"/>
      <point x="1587.4736842105262" y="1106.2736842105264" type="line"/>
      <point x="1600.5894736842106" y="1106.2736842105264" type="line"/>
      <point x="1562.6105263157895" y="679.7894736842105" type="line"/>
      <point x="1545.3473684210526" y="482.0842105263158"/>
      <point x="1517.3473684210528" y="251.85263157894738"/>
      <point x="1481.5157894736842" y="0.0" type="curve"/>
      <point x="1688.3368421052633" y="0.0" type="line"/>
      <point x="1694.3157894736842" y="157.62105263157895"/>
      <point x="1701.9368421052632" y="298.5263157894737"/>
      <point x="1717.3894736842105" y="471.0736842105263" type="curve"/>
      <point x="1759.7473684210527" y="945.4526315789474" type="line"/>
      <point x="1775.2" y="1120.3578947368421"/>
      <point x="1791.9368421052632" y="1264.1894736842105"/>
      <point x="1813.7684210526318" y="1426.0" type="curve"/>
      <point x="1598.2105263157896" y="1426.0" type="line"/>
      <point x="1484.1263157894737" y="1219.9157894736843"/>
      <point x="1372.7578947368422" y="1033.663157894737"/>
      <point x="1257.2" y="844.6736842105263" type="curve"/>
      <point x="915.978947368421" y="286.2526315789474" type="line"/>
      <point x="901.957894736842" y="286.2526315789474" type="line"/>
      <point x="794.5894736842105" y="844.6736842105263" type="line"/>
      <point x="758.8" y="1033.663157894737"/>
      <point x="723.5578947368421" y="1221.5578947368422"/>
      <point x="698.8842105263157" y="1426.0" type="curve"/>
      <point x="489.70526315789476" y="1426.0" type="line"/>
      <point x="446.63157894736844" y="1262.1894736842105"/>
      <point x="401.7263157894737" y="1117.4526315789474"/>
      <point x="343.7263157894737" y="945.4526315789474" type="curve"/>
      <point x="186.0842105263158" y="471.0736842105263" type="line"/>
      <point x="128.0842105263158" y="297.62105263157895"/>
      <point x="76.25263157894737" y="155.97894736842105"/>
    </contour>
  </outline>
</glyph>
<glyph name="N" format="2">
  <advance width="1519.2631578947369"/>
  <unicode hex="004E"/>
  <anchor x="653.4526315789474" y="0.0" name="bottom"/>
  <anchor x="953.4526315789474" y="1426.0" name="top"/>
  <outline>
    <contour>
      <point x="69.85263157894738" y="0.0" type="curve"/>
      <point x="269.74736842105267" y="0.0" type="line"/>
      <point x="291.7263157894737" y="158.16842105263157"/>
      <point x="315.89473684210526" y="291.9789473684211"/>
      <point x="353.8947368421053" y="471.0736842105263" type="curve"/>
      <point x="494.12631578947367" y="1137.536842105263" type="line"/>
      <point x="508.69473684210527" y="1137.536842105263" type="line"/>
      <point x="725.4526315789473" y="690.5263157894738" type="line"/>
      <point x="854.6315789473683" y="425.0526315789474"/>
      <point x="956.1894736842105" y="207.17894736842103"/>
      <point x="1043.9157894736843" y="0.0" type="curve"/>
      <point x="1235.9578947368423" y="0.0" type="line"/>
      <point x="1257.9368421052632" y="158.16842105263157"/>
      <point x="1282.1052631578948" y="291.9789473684211"/>
      <point x="1320.1052631578948" y="471.0736842105263" type="curve"/>
      <point x="1421.2" y="946.5473684210526" type="line"/>
      <point x="1459.7473684210527" y="1127.8315789473684"/>
      <point x="1492.4842105263158" y="1266.1894736842105"/>
      <point x="1535.9578947368423" y="1426.0" type="curve"/>
      <point x="1336.0631578947368" y="1426.0" type="line"/>
      <point x="1312.0842105263157" y="1266.1894736842105"/>
      <point x="1287.915789473684" y="1127.8315789473684"/>
      <point x="1249.3684210526314" y="946.5473684210526" type="curve"/>
      <point x="1110.2315789473682" y="294.2736842105263" type="line"/>
      <point x="1095.1157894736841" y="294.2736842105263" type="line"/>
      <point x="881.4526315789474" y="737.8315789473684" type="line"/>
      <point x="777.3473684210527" y="954.0631578947368"/>
      <point x="673.621052631579" y="1180.842105263158"/>
      <point x="567.7263157894737" y="1426.0" type="curve"/>
      <point x="369.85263157894735" y="1426.0" type="line"/>
      <point x="345.87368421052633" y="1266.1894736842105"/>
      <point x="321.70526315789476" y="1127.8315789473684"/>
      <point x="283.15789473684214" y="946.5473684210526" type="curve"/>
      <point x="182.06315789473683" y="471.0736842105263" type="line"/>
      <point x="145.5157894736842" y="294.88421052631577"/>
      <point x="112.77894736842106" y="158.16842105263157"/>
    </contour>
  </outline>
</glyph>
<glyph name="P" format="2">
  <advance width="1256.4597701149428"/>
  <unicode hex="0050"/>
  <outline>
    <contour>
      <point x="701.6321839080459" y="565.0114942528736" type="curve"/>
      <point x="1093.7011494252874" y="565.0114942528736"/>
      <point x="1221.632183908046" y="712.5977011494252"/>
      <point x="1276.0229885057472" y="974.5287356321838" type="curve" smooth="yes"/>
      <point x="1335.195402298851" y="1258.7816091954023"/>
      <point x="1188.0459770114944" y="1431.5862068965516"/>
      <point x="863.3103448275862" y="1431.5862068965516" type="curve"/>
      <point x="645.4022988505747" y="1431.5862068965516"/>
      <point x="491.9080459770115" y="1426.0"/>
      <point x="369.5632183908046" y="1426.0" type="curve"/>
      <point x="506.75862068965523" y="1275.5402298850574" type="line"/>
      <point x="830.2068965517241" y="1275.5402298850574" type="line" smooth="yes"/>
      <point x="972.7126436781608" y="1275.5402298850574"/>
      <point x="1143.7241379310346" y="1223.1494252873563"/>
      <point x="1092.873563218391" y="985.7241379310345" type="curve" smooth="yes"/>
      <point x="1049.632183908046" y="779.1034482758621"/>
      <point x="945.9310344827585" y="717.8620689655172"/>
      <point x="694.4827586206895" y="717.8620689655172" type="curve" smooth="yes"/>
      <point x="389.9080459770115" y="717.8620689655172" type="line"/>
      <point x="357.9770114942529" y="568.2068965517242" type="line"/>
      <point x="437.9770114942529" y="568.2068965517242"/>
      <point x="600.8275862068965" y="565.0114942528736"/>
    </contour>
    <contour>
      <point x="69.5632183908046" y="0.0" type="curve"/>
      <point x="277.448275862069" y="0.0" type="line"/>
      <point x="299.4712643678161" y="158.41379310344828"/>
      <point x="322.68965517241384" y="292.02298850574715"/>
      <point x="360.68965517241384" y="471.2183908045977" type="curve"/>
      <point x="457.10344827586215" y="923.6781609195402" type="line"/>
      <point x="494.2988505747127" y="1103.2643678160919"/>
      <point x="528.6896551724138" y="1240.0689655172414"/>
      <point x="572.6666666666667" y="1399.6781609195402" type="curve"/>
      <point x="369.5632183908046" y="1426.0" type="line"/>
      <point x="345.54022988505744" y="1266.3908045977012"/>
      <point x="321.1264367816092" y="1127.5862068965516"/>
      <point x="283.1264367816092" y="946.0" type="curve"/>
      <point x="181.9310344827586" y="471.2183908045977" type="line"/>
      <point x="144.73563218390805" y="294.82758620689657"/>
      <point x="112.34482758620689" y="158.41379310344828"/>
    </contour>
  </outline>
</glyph>
<glyph name="R" format="2">
  <advance width="1348.0689655172414"/>
  <unicode hex="0052"/>
  <anchor x="570.1379310344828" y="0.0" name="bottom"/>
  <anchor x="854.8505747126437" y="1426.0" name="top"/>
  <outline>
    <contour>
      <point x="960.1149425287356" y="0.0" type="curve"/>
      <point x="1194.3678160919542" y="0.0" type="line"/>
      <point x="1119.5402298850577" y="108.80459770114942"/>
      <point x="1014.2988505747126" y="277.58620689655174"/>
      <point x="937.4482758620688" y="407.97701149425285" type="curve"/>
      <point x="769.7471264367815" y="690.3678160919541" type="line"/>
      <point x="702.3908045977012" y="612.528735632184" type="line"/>
      <point x="1083.264367816092" y="609.7241379310345"/>
      <point x="1215.1954022988505" y="751.7241379310344"/>
      <point x="1266.3908045977012" y="994.8965517241379" type="curve" smooth="yes"/>
      <point x="1322.367816091954" y="1257.9770114942528"/>
      <point x="1172.8275862068965" y="1431.5862068965516"/>
      <point x="846.8965517241379" y="1431.5862068965516" type="curve"/>
      <point x="646.919540229885" y="1431.5862068965516"/>
      <point x="499.08045977011494" y="1426.0"/>
      <point x="369.5632183908046" y="1426.0" type="curve"/>
      <point x="474.48275862068965" y="1275.5402298850574" type="line"/>
      <point x="814.9885057471264" y="1275.5402298850574" type="line" smooth="yes"/>
      <point x="957.4942528735631" y="1275.5402298850574"/>
      <point x="1126.505747126437" y="1227.1264367816093"/>
      <point x="1078.4597701149426" y="1000.1149425287357" type="curve" smooth="yes"/>
      <point x="1032.8275862068967" y="785.9540229885058"/>
      <point x="923.5402298850573" y="728.2988505747127"/>
      <point x="676.8735632183908" y="728.2988505747127" type="curve" smooth="yes"/>
      <point x="380.3448275862069" y="728.2988505747127" type="line"/>
      <point x="348.4137931034483" y="578.6436781609195" type="line"/>
      <point x="685.5862068965517" y="578.6436781609195" type="line"/>
      <point x="590.9885057471264" y="672.3678160919541" type="line"/>
      <point x="778.2758620689655" y="338.48275862068965" type="line"/>
      <point x="839.1494252873562" y="232.04597701149424"/>
      <point x="900.0229885057472" y="122.41379310344827"/>
    </contour>
    <contour>
      <point x="69.5632183908046" y="0.0" type="curve"/>
      <point x="277.448275862069" y="0.0" type="line"/>
      <point x="299.4712643678161" y="158.41379310344828"/>
      <point x="322.68965517241384" y="292.02298850574715"/>
      <point x="360.68965517241384" y="471.2183908045977" type="curve"/>
      <point x="457.1034482758621" y="923.6781609195402" type="line"/>
      <point x="494.2988505747127" y="1103.2643678160919"/>
      <point x="528.6896551724138" y="1240.0689655172414"/>
      <point x="572.6666666666667" y="1399.6781609195402" type="curve"/>
      <point x="369.5632183908046" y="1426.0" type="line"/>
      <point x="345.54022988505744" y="1266.3908045977012"/>
      <point x="321.1264367816092" y="1127.5862068965516"/>
      <point x="283.1264367816092" y="946.0" type="curve"/>
      <point x="181.9310344827586" y="471.2183908045977" type="line"/>
      <point x="144.73563218390805" y="294.82758620689657"/>
      <point x="112.34482758620689" y="158.41379310344828"/>
    </contour>
  </outline>
</glyph>
<glyph name="S" format="2">
  <advance width="1172.712643678161"/>
  <unicode hex="0053"/>
  <anchor x="489.1724137931035" y="0.0" name="bottom"/>
  <anchor x="789.1724137931035" y="1426.0" name="top"/>
  <outline>
    <contour>
      <point x="541.9770114942529" y="-21.586206896551722" type="curve" smooth="yes"/>
      <point x="856.2758620689656" y="-21.586206896551722"/>
      <point x="1011.8620689655172" y="101.63218390804597"/>
      <point x="1060.6436781609195" y="333.54022988505744" type="curve" smooth="yes"/>
      <point x="1101.0344827586207" y="526.2988505747127"/>
      <point x="1019.8390804597701" y="661.471264367816"/>
      <point x="707.816091954023" y="792.6896551724137" type="curve" smooth="yes"/>
      <point x="469.6551724137931" y="893.5632183908046"/>
      <point x="392.0" y="965.5862068965516"/>
      <point x="422.8275862068965" y="1110.1149425287354" type="curve" smooth="yes"/>
      <point x="454.06896551724134" y="1257.9080459770116"/>
      <point x="604.2298850574713" y="1291.5402298850574"/>
      <point x="745.9540229885057" y="1295.5402298850574" type="curve"/>
      <point x="816.7586206896552" y="1295.5402298850574"/>
      <point x="965.5402298850576" y="1255.1494252873565"/>
      <point x="1131.126436781609" y="1165.5402298850574" type="curve"/>
      <point x="1183.4252873563219" y="1337.9540229885058" type="line"/>
      <point x="1071.83908045977" y="1380.781609195402"/>
      <point x="884.3448275862069" y="1452.3908045977012"/>
      <point x="732.8045977011494" y="1452.3908045977012" type="curve" smooth="yes"/>
      <point x="444.89655172413796" y="1452.3908045977012"/>
      <point x="281.28735632183907" y="1337.218390804598"/>
      <point x="237.70114942528735" y="1128.0919540229886" type="curve" smooth="yes"/>
      <point x="190.50574712643677" y="905.7241379310344"/>
      <point x="306.8965517241379" y="780.2068965517242"/>
      <point x="579.7701149425287" y="665.7701149425287" type="curve" smooth="yes"/>
      <point x="791.8850574712643" y="576.9195402298851"/>
      <point x="906.3448275862069" y="499.2643678160919"/>
      <point x="875.5172413793103" y="349.1264367816092" type="curve" smooth="yes"/>
      <point x="838.6666666666666" y="170.50574712643677"/>
      <point x="688.8965517241379" y="138.0689655172414"/>
      <point x="542.7816091954023" y="134.0689655172414" type="curve"/>
      <point x="414.367816091954" y="134.0689655172414"/>
      <point x="251.60919540229887" y="196.45977011494256"/>
      <point x="99.19540229885058" y="285.67816091954023" type="curve"/>
      <point x="47.28735632183909" y="116.85057471264368" type="line"/>
      <point x="159.28735632183907" y="66.4367816091954"/>
      <point x="333.655172413793" y="-21.586206896551722"/>
    </contour>
  </outline>
</glyph>
<glyph name="V" format="2">
  <advance width="1375.4105263157894"/>
  <unicode hex="0056"/>
  <anchor x="585.1578947368421" y="0.0" name="bottom"/>
  <anchor x="885.1578947368421" y="1426.0" name="top"/>
  <outline>
    <contour>
      <point x="450.67368421052635" y="0.0" type="curve"/>
      <point x="725.621052631579" y="0.0" type="line"/>
      <point x="796.3157894736843" y="145.45263157894738"/>
      <point x="891.0105263157895" y="319.81052631578945"/>
      <point x="967.7263157894737" y="453.4526315789474" type="curve"/>
      <point x="1219.4947368421053" y="900.0" type="line"/>
      <point x="1306.5684210526315" y="1054.5473684210526"/>
      <point x="1425.2842105263157" y="1257.6421052631579"/>
      <point x="1534.021052631579" y="1426.0" type="curve"/>
      <point x="1292.2105263157896" y="1426.0" type="line"/>
      <point x="1188.1263157894737" y="1217.7052631578947"/>
      <point x="1064.9473684210527" y="981.6"/>
      <point x="952.8421052631579" y="776.2105263157895" type="curve"/>
      <point x="630.1473684210526" y="187.49473684210528" type="line"/>
      <point x="612.6736842105264" y="187.49473684210528" type="line"/>
      <point x="531.8947368421053" y="772.7578947368421" type="line"/>
      <point x="503.57894736842104" y="978.5052631578948"/>
      <point x="472.0" y="1220.6105263157895"/>
      <point x="451.8736842105263" y="1426.0" type="curve"/>
      <point x="234.29473684210527" y="1426.0" type="line"/>
      <point x="274.1263157894737" y="1256.1894736842105"/>
      <point x="308.65263157894736" y="1050.1894736842105"/>
      <point x="331.17894736842106" y="898.5473684210526" type="curve"/>
      <point x="396.7578947368421" y="453.4526315789474" type="line"/>
      <point x="416.7368421052632" y="317.4526315789474"/>
      <point x="437.43157894736845" y="142.54736842105262"/>
    </contour>
  </outline>
</glyph>
<glyph name="W" format="2">
  <advance width="2037.4105263157894"/>
  <unicode hex="0057"/>
  <anchor x="911.5157894736842" y="0.0" name="bottom"/>
  <anchor x="1211.5157894736842" y="1426.0" name="top"/>
  <outline>
    <contour>
      <point x="347.8526315789474" y="0.0" type="curve"/>
      <point x="603.2421052631579" y="0.0" type="line"/>
      <point x="683.3473684210526" y="192.63157894736844"/>
      <point x="789.0736842105263" y="424.69473684210527"/>
      <point x="880.4631578947369" y="615.6842105263158" type="curve"/>
      <point x="1144.821052631579" y="1172.1263157894737" type="line"/>
      <point x="1162.2947368421053" y="1172.1263157894737" type="line"/>
      <point x="1197.1368421052632" y="615.6842105263158" type="line"/>
      <point x="1208.5684210526315" y="423.6"/>
      <point x="1218.7157894736843" y="194.0842105263158"/>
      <point x="1224.3157894736844" y="0.0" type="curve"/>
      <point x="1487.7263157894736" y="0.0" type="line"/>
      <point x="1541.3473684210526" y="137.09473684210525"/>
      <point x="1626.9684210526316" y="309.4526315789474"/>
      <point x="1698.2315789473685" y="451.4526315789474" type="curve"/>
      <point x="1921.1157894736841" y="900.0" type="line"/>
      <point x="1999.8315789473684" y="1058.9052631578948"/>
      <point x="2102.3789473684205" y="1256.7368421052631"/>
      <point x="2201.115789473684" y="1426.0" type="curve"/>
      <point x="1962.042105263158" y="1426.0" type="line"/>
      <point x="1875.0315789473684" y="1224.9894736842105"/>
      <point x="1765.8526315789475" y="987.4526315789474"/>
      <point x="1671.0105263157895" y="787.8947368421052" type="curve"/>
      <point x="1398.2947368421053" y="213.57894736842107" type="line"/>
      <point x="1380.821052631579" y="213.57894736842107" type="line"/>
      <point x="1349.2631578947369" y="786.8" type="line"/>
      <point x="1337.4736842105262" y="994.1684210526316"/>
      <point x="1327.8736842105263" y="1222.0842105263157"/>
      <point x="1324.4631578947367" y="1426.0" type="curve"/>
      <point x="1091.3052631578948" y="1426.0" type="line"/>
      <point x="1004.6526315789473" y="1226.4421052631578"/>
      <point x="895.6421052631579" y="984.9052631578948"/>
      <point x="804.6105263157896" y="789.3473684210526" type="curve"/>
      <point x="534.9684210526316" y="213.57894736842107" type="line"/>
      <point x="517.4947368421052" y="213.57894736842107" type="line"/>
      <point x="484.86315789473684" y="776.6315789473684" type="line"/>
      <point x="472.71578947368425" y="981.0947368421052"/>
      <point x="462.9473684210527" y="1222.6315789473683"/>
      <point x="460.6315789473684" y="1426.0" type="curve"/>
      <point x="231.20000000000002" y="1426.0" type="line"/>
      <point x="258.3157894736842" y="1259.0947368421052"/>
      <point x="279.0315789473684" y="1053.0947368421052"/>
      <point x="292.2947368421053" y="892.7368421052631" type="curve"/>
      <point x="326.0842105263158" y="450.0" type="line"/>
      <point x="337.34736842105264" y="311.4526315789474"/>
      <point x="346.4210526315789" y="142.54736842105265"/>
    </contour>
  </outline>
</glyph>
<glyph name="X" format="2">
  <advance width="1372.1894736842105"/>
  <unicode hex="0058"/>
  <outline>
    <contour>
      <point x="-43.53684210526316" y="0.0" type="curve"/>
      <point x="211.7263157894737" y="0.0" type="line"/>
      <point x="305.2631578947369" y="125.76842105263158"/>
      <point x="388.1052631578948" y="231.9157894736842"/>
      <point x="478.75789473684216" y="340.58947368421053" type="curve"/>
      <point x="691.6842105263157" y="599.9368421052632" type="line"/>
      <point x="709.1578947368421" y="599.9368421052632" type="line"/>
      <point x="827.578947368421" y="342.0421052631579" type="line"/>
      <point x="875.3473684210526" y="239.17894736842106"/>
      <point x="925.4736842105262" y="125.76842105263158"/>
      <point x="972.4842105263159" y="0.0" type="curve"/>
      <point x="1208.2736842105264" y="0.0" type="line"/>
      <point x="1121.915789473684" y="147.26315789473685"/>
      <point x="1053.3894736842105" y="282.35789473684207"/>
      <point x="980.1473684210526" y="438.5473684210526" type="curve"/>
      <point x="834.7578947368421" y="749.6421052631579" type="line"/>
      <point x="822.378947368421" y="692.1052631578947" type="line"/>
      <point x="1097.0526315789475" y="1018.5052631578948" type="line"/>
      <point x="1196.1263157894737" y="1136.336842105263"/>
      <point x="1318.6526315789474" y="1277.8105263157895"/>
      <point x="1460.4842105263158" y="1426.0" type="curve"/>
      <point x="1203.221052631579" y="1426.0" type="line"/>
      <point x="1106.9473684210527" y="1300.4"/>
      <point x="1011.0315789473684" y="1173.536842105263"/>
      <point x="917.8315789473684" y="1062.6736842105263" type="curve"/>
      <point x="740.1473684210526" y="847.1157894736842" type="line"/>
      <point x="722.6736842105263" y="847.1157894736842" type="line"/>
      <point x="629.4947368421052" y="1059.7684210526315" type="line"/>
      <point x="581.7263157894737" y="1169.1789473684212"/>
      <point x="531.7894736842106" y="1296.5894736842106"/>
      <point x="486.0421052631579" y="1426.0" type="curve"/>
      <point x="256.2736842105263" y="1426.0" type="line"/>
      <point x="342.82105263157894" y="1267.0947368421052"/>
      <point x="404.61052631578946" y="1130.9052631578948"/>
      <point x="464.40000000000003" y="996.7157894736843" type="curve"/>
      <point x="594.3368421052631" y="704.5263157894736" type="line"/>
      <point x="605.8105263157894" y="759.3263157894737" type="line"/>
      <point x="312.9684210526316" y="406.7578947368421" type="line"/>
      <point x="190.08421052631581" y="258.9263157894737"/>
      <point x="78.10526315789475" y="129.2842105263158"/>
    </contour>
  </outline>
</glyph>
<glyph name="Y" format="2">
  <advance width="1303.9789473684211"/>
  <unicode hex="0059"/>
  <anchor x="550.0842105263158" y="0.0" name="bottom"/>
  <anchor x="851.1789473684211" y="1426.0" name="top"/>
  <anchor x="235.4526315789474" y="1426.0" name="topleft"/>
  <outline>
    <contour>
      <point x="589.1578947368421" y="557.3052631578947" type="line"/>
      <point x="750.421052631579" y="557.3052631578947" type="line"/>
      <point x="1175.3052631578948" y="1085.0315789473684" type="line"/>
      <point x="1264.2105263157896" y="1195.6"/>
      <point x="1359.1157894736841" y="1310.5263157894738"/>
      <point x="1465.3263157894737" y="1426.0" type="curve"/>
      <point x="1212.421052631579" y="1426.0" type="line"/>
      <point x="1080.9263157894738" y="1239.157894736842"/>
      <point x="1008.0842105263158" y="1141.2"/>
      <point x="888.9052631578948" y="986.1684210526316" type="curve"/>
      <point x="707.957894736842" y="751.8947368421053" type="line"/>
      <point x="691.0315789473684" y="751.8947368421053" type="line"/>
      <point x="603.4947368421052" y="993.978947368421" type="line"/>
      <point x="549.0105263157894" y="1142.6526315789474"/>
      <point x="519.0526315789473" y="1234.8"/>
      <point x="462.06315789473683" y="1426.0" type="curve"/>
      <point x="235.55789473684212" y="1426.0" type="line"/>
      <point x="302.1263157894736" y="1291.9789473684211"/>
      <point x="342.6736842105263" y="1197.0526315789473"/>
      <point x="385.93684210526317" y="1085.0315789473684" type="curve"/>
    </contour>
    <contour>
      <point x="446.7578947368421" y="0.0" type="curve"/>
      <point x="656.5052631578948" y="0.0" type="line"/>
      <point x="678.4842105263159" y="158.16842105263157"/>
      <point x="702.6526315789474" y="291.9789473684211"/>
      <point x="740.6526315789474" y="471.0736842105263" type="curve"/>
      <point x="791.2421052631579" y="708.3789473684211" type="line"/>
      <point x="609.5578947368421" y="708.3789473684211" type="line"/>
      <point x="558.9684210526316" y="471.0736842105263" type="line"/>
      <point x="522.421052631579" y="294.88421052631577"/>
      <point x="489.6842105263158" y="158.16842105263157"/>
    </contour>
  </outline>
</glyph>
<glyph name="Z" format="2">
  <advance width="1342.6315789473683"/>
  <unicode hex="005A"/>
  <anchor x="567.4947368421052" y="0.0" name="bottom"/>
  <anchor x="717.4947368421052" y="714.0" name="center"/>
  <anchor x="867.4947368421052" y="1426.0" name="top"/>
  <outline>
    <contour>
      <point x="-8.231578947368426" y="0.0" type="line"/>
      <point x="1134.5052631578947" y="0.0" type="line"/>
      <point x="1172.3999999999999" y="176.54736842105262" type="line"/>
      <point x="1008.0842105263157" y="158.8842105263158"/>
      <point x="746.7157894736843" y="155.05263157894737"/>
      <point x="568.2315789473685" y="155.05263157894737" type="curve"/>
      <point x="196.35789473684216" y="155.05263157894737" type="line"/>
      <point x="223.6421052631579" y="78.96842105263158" type="line"/>
      <point x="943.5368421052632" y="822.4842105263158" type="line"/>
      <point x="1093.4736842105265" y="978.421052631579"/>
      <point x="1244.5052631578947" y="1133.8105263157895"/>
      <point x="1395.3473684210526" y="1278.9894736842105" type="curve"/>
      <point x="1426.3157894736842" y="1426.0" type="line"/>
      <point x="307.6" y="1426.0" type="line"/>
      <point x="271.1578947368421" y="1248.7157894736843" type="line"/>
      <point x="476.1894736842105" y="1265.663157894737"/>
      <point x="667.7684210526315" y="1270.9473684210527"/>
      <point x="835.8947368421053" y="1270.9473684210527" type="curve"/>
      <point x="1243.578947368421" y="1270.9473684210527" type="line"/>
      <point x="1197.578947368421" y="1335.4105263157894" type="line"/>
      <point x="515.4526315789474" y="626.3789473684211" type="line"/>
      <point x="364.77894736842103" y="469.70526315789476"/>
      <point x="154.1263157894737" y="252.14736842105262"/>
      <point x="19.45263157894736" y="126.77894736842106" type="curve"/>
    </contour>
  </outline>
</glyph>
<glyph name="bracketleft" format="2">
  <advance width="744.7368421052631"/>
  <unicode hex="005B"/>
  <outline>
    <contour>
      <point x="26.947368421052637" y="-233.85263157894738" type="curve"/>
      <point x="207.8736842105263" y="-233.85263157894738" type="line"/>
      <point x="212.25263157894736" y="-206.14736842105262" type="line"/>
      <point x="234.23157894736843" y="-47.97894736842105"/>
      <point x="259.85263157894735" y="88.73684210526316"/>
      <point x="296.4" y="264.9263157894737" type="curve"/>
      <point x="457.6631578947368" y="1029.7894736842106" type="line"/>
      <point x="494.7578947368421" y="1208.1684210526316"/>
      <point x="527.4947368421052" y="1346.5263157894738"/>
      <point x="572.421052631579" y="1506.3368421052633" type="curve"/>
      <point x="578.8" y="1532.5894736842106" type="line"/>
      <point x="397.87368421052633" y="1532.5894736842106" type="line"/>
      <point x="372.2526315789474" y="1374.2315789473685"/>
      <point x="346.63157894736844" y="1232.9684210526316"/>
      <point x="309.5368421052632" y="1056.042105263158" type="curve"/>
      <point x="137.5157894736842" y="237.22105263157894" type="line"/>
      <point x="100.96842105263158" y="62.484210526315785"/>
      <point x="68.23157894736842" y="-75.6842105263158"/>
    </contour>
    <contour>
      <point x="170.1684210526316" y="-233.85263157894738" type="line"/>
      <point x="559.6" y="-233.85263157894738" type="line"/>
      <point x="589.6631578947369" y="-87.01052631578948" type="line"/>
      <point x="494.40000000000003" y="-93.93684210526315"/>
      <point x="393.13684210526316" y="-95.57894736842105"/>
      <point x="279.5157894736842" y="-95.57894736842105" type="curve"/>
      <point x="198.58947368421053" y="-95.57894736842105" type="line"/>
    </contour>
    <contour>
      <point x="503.3684210526316" y="1394.3157894736842" type="line"/>
      <point x="582.1263157894737" y="1394.3157894736842" type="line"/>
      <point x="717.7473684210527" y="1394.3157894736842"/>
      <point x="810.4631578947368" y="1391.0315789473684"/>
      <point x="897.1789473684211" y="1385.7473684210527" type="curve"/>
      <point x="929.2421052631579" y="1532.5894736842106" type="line"/>
      <point x="532.3368421052631" y="1532.5894736842106" type="line"/>
    </contour>
  </outline>
</glyph>
<glyph name="backslash" format="2">
  <advance width="901.7263157894737"/>
  <unicode hex="005C"/>
  <outline>
    <contour>
      <point x="568.5263157894738" y="0.0" type="curve"/>
      <point x="748.0" y="0.0" type="line"/>
      <point x="707.621052631579" y="148.0"/>
      <point x="672.1684210526316" y="274.0"/>
      <point x="631.0947368421054" y="456.0" type="curve"/>
      <point x="520.5894736842106" y="950.5473684210526" type="line"/>
      <point x="478.9684210526316" y="1140.0"/>
      <point x="451.3473684210526" y="1273.4526315789474"/>
      <point x="426.8421052631579" y="1426.0" type="curve"/>
      <point x="248.46315789473684" y="1426.0" type="line"/>
      <point x="294.29473684210524" y="1272.0"/>
      <point x="326.1052631578947" y="1143.4526315789474"/>
      <point x="367.7263157894737" y="949.4526315789474" type="curve"/>
      <point x="477.6842105263158" y="456.0" type="line"/>
      <point x="519.3052631578948" y="274.0"/>
      <point x="545.4736842105264" y="148.0"/>
    </contour>
  </outline>
</glyph>
<glyph name="asciicircum" format="2">
  <advance width="1217.221052631579"/>
  <unicode hex="005E"/>
  <outline>
    <contour>
      <point x="1007.5368421052632" y="757.8947368421052" type="curve"/>
      <point x="1154.7157894736843" y="760.4421052631579" type="line"/>
      <point x="1059.8315789473684" y="963.9368421052632"/>
      <point x="971.8526315789474" y="1167.7894736842106"/>
      <point x="896.0842105263158" y="1371.2842105263157" type="curve"/>
      <point x="659.0736842105264" y="1371.2842105263157" type="line"/>
      <point x="510.9473684210526" y="1172.3368421052633"/>
      <point x="349.87368421052633" y="972.1052631578948"/>
      <point x="175.3684210526316" y="764.4421052631579" type="curve"/>
      <point x="343.3052631578948" y="764.4421052631579" type="line"/>
      <point x="486.14736842105265" y="918.9263157894736"/>
      <point x="621.7052631578947" y="1073.7684210526315"/>
      <point x="755.8105263157895" y="1228.2526315789473" type="curve"/>
      <point x="772.7368421052631" y="1228.2526315789473" type="line"/>
      <point x="849.2421052631579" y="1071.7684210526315"/>
      <point x="923.7473684210527" y="914.378947368421"/>
    </contour>
  </outline>
</glyph>
<glyph name="underscore" format="2">
  <advance width="803.7894736842105"/>
  <unicode hex="005F"/>
  <outline>
    <contour>
      <point x="-177.32631578947368" y="-248.96842105263158" type="line"/>
      <point x="-50.56842105263158" y="-244.42105263157893"/>
      <point x="71.4736842105263" y="-242.77894736842106"/>
      <point x="171.49473684210525" y="-241.68421052631578" type="curve"/>
      <point x="322.7368421052632" y="-241.68421052631578" type="line"/>
      <point x="421.66315789473686" y="-242.77894736842106"/>
      <point x="542.6105263157895" y="-244.42105263157893"/>
      <point x="666.4631578947368" y="-248.96842105263158" type="curve"/>
      <point x="699.0736842105263" y="-96.29473684210527" type="line"/>
      <point x="571.7684210526315" y="-100.84210526315789"/>
      <point x="449.7263157894737" y="-102.48421052631579"/>
      <point x="350.2526315789474" y="-103.57894736842105" type="curve"/>
      <point x="199.01052631578946" y="-103.57894736842105" type="line"/>
      <point x="99.53684210526316" y="-102.48421052631579"/>
      <point x="-21.41052631578947" y="-100.84210526315789"/>
      <point x="-144.71578947368423" y="-96.29473684210527" type="curve"/>
    </contour>
  </outline>
</glyph>
<glyph name="a" format="2">
  <advance width="1052.3218390804598"/>
  <unicode hex="0061"/>
  <anchor x="420.0" y="0.0" name="bottom"/>
  <anchor x="792.6206896551724" y="0.0" name="ogonek"/>
  <anchor x="632.0" y="992.7816091954023" name="top"/>
  <outline>
    <contour>
      <point x="330.5287356321839" y="-20.39080459770115" type="curve" smooth="yes"/>
      <point x="453.33333333333326" y="-20.39080459770115"/>
      <point x="580.1839080459769" y="54.390804597701155"/>
      <point x="660.6206896551724" y="142.8735632183908" type="curve"/>
      <point x="677.4022988505747" y="142.8735632183908" type="line"/>
      <point x="684.6206896551723" y="0.0" type="line"/>
      <point x="853.816091954023" y="0.0" type="line"/>
      <point x="838.2298850574713" y="114.36781609195403"/>
      <point x="837.4022988505748" y="213.1264367816092"/>
      <point x="855.7931034482759" y="301.4942528735632" type="curve"/>
      <point x="881.816091954023" y="422.0" type="line" smooth="yes"/>
      <point x="900.6206896551724" y="506.02298850574715"/>
      <point x="917.816091954023" y="572.8275862068965"/>
      <point x="931.0114942528736" y="633.6091954022988" type="curve" smooth="yes"/>
      <point x="980.5977011494253" y="861.1724137931035"/>
      <point x="863.8850574712643" y="1015.1724137931035"/>
      <point x="599.6091954022988" y="1015.1724137931035" type="curve" smooth="yes"/>
      <point x="497.2413793103448" y="1015.1724137931035"/>
      <point x="342.0919540229885" y="975.9540229885058"/>
      <point x="244.50574712643677" y="953.5402298850576" type="curve"/>
      <point x="217.77011494252872" y="787.080459770115" type="line"/>
      <point x="366.2068965517241" y="839.4942528735633"/>
      <point x="508.5287356321839" y="872.2758620689655"/>
      <point x="559.7471264367816" y="872.2758620689655" type="curve" smooth="yes"/>
      <point x="722.6206896551724" y="872.2758620689655"/>
      <point x="805.8620689655173" y="795.4252873563219"/>
      <point x="767.7931034482759" y="634.7586206896552" type="curve"/>
      <point x="424.91954022988506" y="573.5172413793103" type="line" smooth="yes"/>
      <point x="258.5287356321839" y="543.9080459770115"/>
      <point x="102.89655172413794" y="496.3448275862069"/>
      <point x="62.0919540229885" y="310.3448275862069" type="curve" smooth="yes"/>
      <point x="21.287356321839077" y="127.54022988505747"/>
      <point x="133.72413793103448" y="-20.39080459770115"/>
    </contour>
    <contour>
      <point x="387.51724137931035" y="115.72413793103449" type="curve" smooth="yes"/>
      <point x="275.74712643678157" y="115.72413793103449"/>
      <point x="206.43678160919538" y="177.79310344827587"/>
      <point x="230.48275862068965" y="298.3908045977011" type="curve" smooth="yes"/>
      <point x="251.3103448275862" y="401.31034482758616"/>
      <point x="346.6666666666667" y="430.91954022988506"/>
      <point x="466.39080459770116" y="454.94252873563215" type="curve" smooth="yes"/>
      <point x="653.7931034482758" y="493.37931034482756"/>
      <point x="703.8390804597701" y="510.98850574712645"/>
      <point x="739.8620689655173" y="529.3793103448276" type="curve"/>
      <point x="693.4022988505748" y="308.32183908045977" type="line"/>
      <point x="584.5287356321838" y="167.74712643678157"/>
      <point x="460.04597701149424" y="115.72413793103449"/>
    </contour>
  </outline>
</glyph>
<glyph name="b" format="2">
  <advance width="1184.378947368421"/>
  <unicode hex="0062"/>
  <outline>
    <contour>
      <point x="599.957894736842" y="-21.83157894736842" type="curve" smooth="yes"/>
      <point x="840.6736842105263" y="-21.83157894736842"/>
      <point x="1013.0105263157893" y="160.21052631578948"/>
      <point x="1073.0105263157893" y="446.56842105263155" type="curve" smooth="yes"/>
      <point x="1135.557894736842" y="747.6631578947369"/>
      <point x="1022.5052631578947" y="1015.6631578947369"/>
      <point x="729.0947368421052" y="1015.6631578947369" type="curve" smooth="yes"/>
      <point x="628.9473684210527" y="1015.6631578947369"/>
      <point x="507.178947368421" y="948.6105263157895"/>
      <point x="435.72631578947374" y="878.5894736842105" type="curve"/>
      <point x="418.25263157894744" y="878.5894736842105" type="line"/>
      <point x="441.51578947368426" y="987.4526315789474" type="line"/>
      <point x="478.6105263157895" y="1163.4736842105262"/>
      <point x="519.1789473684211" y="1325.3052631578948"/>
      <point x="567.0105263157895" y="1486.5684210526315" type="curve"/>
      <point x="350.0" y="1459.6421052631579" type="line"/>
      <point x="337.4947368421052" y="1309.621052631579"/>
      <point x="311.3263157894737" y="1154.1684210526316"/>
      <point x="276.42105263157896" y="987.4526315789474" type="curve"/>
      <point x="159.8736842105263" y="437.62105263157895" type="line"/>
      <point x="125.32631578947367" y="273.9789473684211"/>
      <point x="93.13684210526314" y="146.7157894736842"/>
      <point x="52.7578947368421" y="0.0" type="curve"/>
      <point x="198.88421052631577" y="0.0" type="line"/>
      <point x="252.18947368421058" y="150.31578947368422" type="line"/>
      <point x="268.021052631579" y="150.31578947368422" type="line"/>
      <point x="347.4526315789474" y="47.95789473684211"/>
      <point x="485.4315789473684" y="-21.83157894736842"/>
    </contour>
    <contour>
      <point x="562.1894736842105" y="127.55789473684212" type="curve"/>
      <point x="462.46315789473687" y="128.6526315789474"/>
      <point x="359.4736842105263" y="187.13684210526318"/>
      <point x="293.72631578947374" y="288.4842105263158" type="curve"/>
      <point x="385.3052631578948" y="720.4" type="line"/>
      <point x="469.2210526315789" y="808.1473684210525"/>
      <point x="579.6631578947369" y="865.9157894736842"/>
      <point x="662.5052631578947" y="867.9157894736842" type="curve"/>
      <point x="875.578947368421" y="861.9157894736842"/>
      <point x="950.4210526315788" y="680.0421052631579"/>
      <point x="905.3684210526314" y="461.13684210526316" type="curve" smooth="yes"/>
      <point x="865.5789473684209" y="270.5473684210526"/>
      <point x="756.5684210526316" y="134.10526315789474"/>
    </contour>
  </outline>
</glyph>
<glyph name="d" format="2">
  <advance width="1156.042105263158"/>
  <unicode hex="0064"/>
  <anchor x="516.2105263157895" y="0.0" name="bottom"/>
  <anchor x="581.8315789473684" y="496.18947368421055" name="center"/>
  <anchor x="821.3052631578947" y="1451.4736842105262" name="top"/>
  <anchor x="1212.0631578947368" y="992.3789473684211" name="topright"/>
  <outline>
    <contour>
      <point x="455.83157894736837" y="-21.83157894736842" type="curve" smooth="yes"/>
      <point x="556.5473684210527" y="-21.83157894736842"/>
      <point x="682.8842105263159" y="39.242105263157896"/>
      <point x="769.4315789473684" y="141.97894736842107" type="curve"/>
      <point x="785.2631578947369" y="141.97894736842107" type="line"/>
      <point x="764.3789473684211" y="0.0" type="line"/>
      <point x="916.7157894736843" y="0.0" type="line"/>
      <point x="940.1473684210526" y="146.7157894736842"/>
      <point x="962.3157894736843" y="273.9789473684211"/>
      <point x="996.8631578947369" y="437.62105263157895" type="curve"/>
      <point x="1113.4105263157894" y="987.4526315789474" type="line"/>
      <point x="1150.5052631578947" y="1163.4736842105262"/>
      <point x="1191.0736842105262" y="1325.3052631578948"/>
      <point x="1238.9052631578948" y="1486.5684210526315" type="curve"/>
      <point x="1021.8947368421052" y="1459.6421052631579" type="line"/>
      <point x="1009.3894736842105" y="1309.621052631579"/>
      <point x="983.2210526315789" y="1154.1684210526316"/>
      <point x="948.3157894736842" y="987.4526315789474" type="curve"/>
      <point x="923.5999999999999" y="869.8736842105262" type="line"/>
      <point x="906.1263157894737" y="869.8736842105262" type="line"/>
      <point x="838.1473684210525" y="948.0631578947368"/>
      <point x="706.1894736842106" y="1015.6631578947369"/>
      <point x="584.9684210526316" y="1015.6631578947369" type="curve" smooth="yes"/>
      <point x="344.2526315789474" y="1015.6631578947369"/>
      <point x="171.9157894736842" y="833.6210526315789"/>
      <point x="111.91578947368421" y="547.2631578947369" type="curve" smooth="yes"/>
      <point x="49.36842105263158" y="246.1684210526316"/>
      <point x="162.42105263157896" y="-21.83157894736842"/>
    </contour>
    <contour>
      <point x="522.421052631579" y="125.91578947368421" type="curve"/>
      <point x="309.34736842105264" y="130.46315789473684"/>
      <point x="233.0526315789474" y="315.2421052631579"/>
      <point x="279.5578947368421" y="532.6947368421053" type="curve" smooth="yes"/>
      <point x="320.8" y="726.1894736842105"/>
      <point x="428.3578947368421" y="859.7263157894737"/>
      <point x="622.7368421052631" y="866.2736842105263" type="curve"/>
      <point x="726.821052631579" y="863.7263157894737"/>
      <point x="828.3578947368421" y="811.0526315789473"/>
      <point x="894.1052631578947" y="732.9473684210526" type="curve"/>
      <point x="805.4315789473684" y="311.2" type="line"/>
      <point x="731.6842105263158" y="197.30526315789476"/>
      <point x="624.1473684210526" y="129.3684210526316"/>
    </contour>
  </outline>
</glyph>
<glyph name="f" format="2">
  <advance width="788.9894736842106"/>
  <unicode hex="0066"/>
  <outline>
    <contour>
      <point x="117.87368421052632" y="0.0" type="curve"/>
      <point x="309.93684210526317" y="0.0" type="line"/>
      <point x="333.3684210526316" y="146.7157894736842"/>
      <point x="355.5368421052632" y="273.9789473684211"/>
      <point x="390.0842105263158" y="437.62105263157895" type="curve"/>
      <point x="499.53684210526313" y="954.5263157894736" type="line"/>
      <point x="511.5578947368421" y="992.3789473684211" type="line"/>
      <point x="507.1578947368421" y="1014.0"/>
      <point x="511.66315789473686" y="1082.6736842105263"/>
      <point x="522.0210526315789" y="1130.1052631578948" type="curve" smooth="yes"/>
      <point x="552.357894736842" y="1272.5263157894738"/>
      <point x="622.1473684210525" y="1346.2736842105264"/>
      <point x="769.8315789473684" y="1346.2736842105264" type="curve" smooth="yes"/>
      <point x="819.6210526315789" y="1346.2736842105264"/>
      <point x="887.0947368421052" y="1328.2736842105262"/>
      <point x="939.1157894736842" y="1308.6315789473683" type="curve"/>
      <point x="982.6526315789474" y="1456.7368421052631" type="line"/>
      <point x="920.0631578947367" y="1474.1894736842105"/>
      <point x="822.5473684210526" y="1490.7368421052631"/>
      <point x="764.357894736842" y="1490.7368421052631" type="curve" smooth="yes"/>
      <point x="575.6" y="1490.7368421052631"/>
      <point x="423.15789473684214" y="1405.2842105263157"/>
      <point x="368.23157894736846" y="1147.221052631579" type="curve" smooth="yes"/>
      <point x="318.98947368421057" y="912.2736842105263"/>
      <point x="282.8" y="718.6736842105263"/>
      <point x="245.53684210526313" y="537.6210526315789" type="curve"/>
      <point x="224.9894736842105" y="437.62105263157895" type="line"/>
      <point x="190.44210526315788" y="273.9789473684211"/>
      <point x="158.25263157894733" y="146.7157894736842"/>
    </contour>
    <contour>
      <point x="122.27368421052633" y="848.2736842105263" type="line"/>
      <point x="361.41052631578947" y="867.578947368421" type="line"/>
      <point x="428.8631578947368" y="867.578947368421" type="line"/>
      <point x="556.6526315789473" y="866.4842105263158"/>
      <point x="681.1578947368421" y="861.2"/>
      <point x="812.0421052631579" y="848.2736842105263" type="curve"/>
      <point x="843.0105263157894" y="992.3789473684211" type="line"/>
      <point x="153.2421052631579" y="992.3789473684211" type="line"/>
    </contour>
  </outline>
</glyph>
<glyph name="h" format="2">
  <advance width="1152.4210526315787"/>
  <unicode hex="0068"/>
  <guideline x="72.10526315789474" y="721.9368421052632" angle="4.470799999999997"/>
  <anchor x="509.57894736842104" y="0.0" name="bottom"/>
  <anchor x="634.5052631578948" y="818.0" name="center"/>
  <anchor x="745.0947368421052" y="1451.4736842105262" name="top"/>
  <outline>
    <contour>
      <point x="52.7578947368421" y="0.0" type="curve"/>
      <point x="244.82105263157897" y="0.0" type="line"/>
      <point x="268.25263157894744" y="146.7157894736842"/>
      <point x="290.421052631579" y="273.9789473684211"/>
      <point x="323.3263157894737" y="430.5052631578947" type="curve"/>
      <point x="374.40000000000003" y="667.7052631578948" type="line"/>
      <point x="469.41052631578947" y="768.5263157894738"/>
      <point x="600.0210526315789" y="859.7052631578947"/>
      <point x="697.9157894736841" y="859.7052631578947" type="curve" smooth="yes"/>
      <point x="851.957894736842" y="859.7052631578947"/>
      <point x="891.9157894736842" y="762.4842105263158"/>
      <point x="853.3894736842105" y="584.9473684210526" type="curve"/>
      <point x="821.9578947368421" y="430.5052631578947" type="line"/>
      <point x="789.0526315789474" y="273.9789473684211"/>
      <point x="757.4105263157895" y="146.7157894736842"/>
      <point x="718.1263157894738" y="0.0" type="curve"/>
      <point x="909.0947368421052" y="0.0" type="line"/>
      <point x="930.8842105263159" y="146.7157894736842"/>
      <point x="954.1473684210526" y="273.9789473684211"/>
      <point x="988.6947368421053" y="437.62105263157895" type="curve"/>
      <point x="1004.6947368421053" y="514.1684210526315"/>
      <point x="1021.621052631579" y="575.1157894736842"/>
      <point x="1033.621052631579" y="630.2105263157895" type="curve" smooth="yes"/>
      <point x="1085.9789473684211" y="869.8315789473684"/>
      <point x="993.4315789473684" y="1015.6631578947369"/>
      <point x="774.7157894736843" y="1015.6631578947369" type="curve" smooth="yes"/>
      <point x="651.8526315789474" y="1015.6631578947369"/>
      <point x="507.7263157894737" y="915.178947368421"/>
      <point x="425.0105263157895" y="835.8947368421053" type="curve"/>
      <point x="408.44210526315794" y="835.8947368421053" type="line"/>
      <point x="441.51578947368426" y="987.4526315789474" type="line"/>
      <point x="478.6105263157895" y="1163.4736842105262"/>
      <point x="519.1789473684211" y="1325.3052631578946"/>
      <point x="567.0105263157895" y="1486.5684210526315" type="curve"/>
      <point x="350.0" y="1459.6421052631579" type="line"/>
      <point x="337.4947368421052" y="1309.621052631579"/>
      <point x="311.3263157894737" y="1154.1684210526316"/>
      <point x="276.42105263157896" y="987.4526315789474" type="curve"/>
      <point x="159.8736842105263" y="437.62105263157895" type="line"/>
      <point x="125.32631578947367" y="273.9789473684211"/>
      <point x="93.13684210526314" y="146.7157894736842"/>
    </contour>
  </outline>
</glyph>
<glyph name="k" format="2">
  <advance width="1087.2842105263157"/>
  <unicode hex="006B"/>
  <anchor x="451.1578947368421" y="0.0" name="bottom"/>
  <anchor x="756.2526315789473" y="1451.4736842105262" name="top"/>
  <outline>
    <contour>
      <point x="727.4526315789474" y="0.0" type="curve"/>
      <point x="957.3473684210527" y="0.0" type="line"/>
      <point x="843.9368421052633" y="117.28421052631579"/>
      <point x="741.8105263157895" y="233.66315789473686"/>
      <point x="642.778947368421" y="350.94736842105266" type="curve"/>
      <point x="476.4842105263158" y="551.9368421052632" type="line"/>
      <point x="501.2631578947369" y="472.33684210526314" type="line"/>
      <point x="702.6315789473684" y="642.7157894736843" type="line"/>
      <point x="841.6631578947367" y="759.4526315789474"/>
      <point x="983.6" y="875.6421052631579"/>
      <point x="1132.8210526315788" y="992.3789473684211" type="curve"/>
      <point x="891.4736842105264" y="992.3789473684211" type="line"/>
      <point x="789.578947368421" y="899.3052631578947"/>
      <point x="681.8526315789474" y="805.3263157894737"/>
      <point x="574.4842105263158" y="712.2526315789473" type="curve"/>
      <point x="396.98947368421057" y="560.4631578947368" type="line"/>
      <point x="332.61052631578946" y="560.4631578947368" type="line"/>
      <point x="307.4736842105263" y="442.06315789473683" type="line"/>
      <point x="364.2315789473684" y="442.06315789473683" type="line"/>
      <point x="509.8947368421053" y="272.65263157894736" type="line"/>
      <point x="585.4526315789474" y="181.76842105263157"/>
      <point x="659.3684210526316" y="90.88421052631578"/>
    </contour>
    <contour>
      <point x="52.7578947368421" y="0.0" type="curve"/>
      <point x="244.82105263157897" y="0.0" type="line"/>
      <point x="267.70526315789476" y="140.14736842105262"/>
      <point x="288.7789473684211" y="261.93684210526317"/>
      <point x="319.4947368421053" y="411.89473684210526" type="curve"/>
      <point x="441.51578947368426" y="987.4526315789474" type="line"/>
      <point x="478.6105263157895" y="1163.4736842105262"/>
      <point x="519.1789473684211" y="1325.3052631578946"/>
      <point x="567.0105263157895" y="1486.5684210526315" type="curve"/>
      <point x="350.0" y="1459.6421052631579" type="line"/>
      <point x="337.4947368421052" y="1309.621052631579"/>
      <point x="311.3263157894737" y="1154.1684210526316"/>
      <point x="276.42105263157896" y="987.4526315789474" type="curve"/>
      <point x="159.8736842105263" y="437.62105263157895" type="line"/>
      <point x="125.32631578947367" y="273.9789473684211"/>
      <point x="93.13684210526314" y="146.7157894736842"/>
    </contour>
  </outline>
</glyph>
<glyph name="m" format="2">
  <advance width="1761.6631578947367"/>
  <unicode hex="006D"/>
  <anchor x="795.8105263157895" y="0.0" name="bottom"/>
  <anchor x="1004.9052631578948" y="992.3789473684211" name="top"/>
  <outline>
    <contour>
      <point x="63.663157894736834" y="0.0" type="curve"/>
      <point x="255.7263157894737" y="0.0" type="line"/>
      <point x="279.15789473684214" y="146.7157894736842"/>
      <point x="301.32631578947377" y="273.9789473684211"/>
      <point x="334.23157894736846" y="430.5052631578947" type="curve"/>
      <point x="385.3052631578948" y="667.7052631578948" type="line"/>
      <point x="480.3157894736842" y="768.5263157894736"/>
      <point x="604.0210526315789" y="859.7052631578947"/>
      <point x="699.0105263157894" y="859.7052631578947" type="curve" smooth="yes"/>
      <point x="834.5263157894736" y="859.7052631578947"/>
      <point x="874.4842105263157" y="762.4842105263158"/>
      <point x="835.957894736842" y="584.9473684210526" type="curve"/>
      <point x="804.5263157894736" y="430.5052631578947" type="line"/>
      <point x="771.6210526315789" y="273.9789473684211"/>
      <point x="739.978947368421" y="146.7157894736842"/>
      <point x="700.6947368421052" y="0.0" type="curve"/>
      <point x="891.6631578947369" y="0.0" type="line"/>
      <point x="913.4526315789475" y="146.7157894736842"/>
      <point x="936.7157894736843" y="273.9789473684211"/>
      <point x="971.2631578947369" y="437.62105263157895" type="curve"/>
      <point x="987.2631578947369" y="514.1684210526315"/>
      <point x="1004.1894736842106" y="575.1157894736842"/>
      <point x="1016.1894736842106" y="630.2105263157895" type="curve" smooth="yes"/>
      <point x="1027.2842105263157" y="682.5894736842105"/>
      <point x="1032.1894736842105" y="728.9684210526316"/>
      <point x="1030.0" y="771.7052631578947" type="curve"/>
      <point x="1023.621052631579" y="777.5157894736842" type="line"/>
      <point x="1017.4315789473684" y="927.8526315789474"/>
      <point x="930.5263157894738" y="1015.6631578947369"/>
      <point x="774.357894736842" y="1015.6631578947369" type="curve" smooth="yes"/>
      <point x="651.4736842105262" y="1015.6631578947369"/>
      <point x="505.1368421052632" y="911.8947368421052"/>
      <point x="418.94736842105266" y="825.6842105263158" type="curve"/>
      <point x="402.3789473684211" y="825.6842105263158" type="line"/>
      <point x="421.0947368421053" y="1002.2105263157895" type="line"/>
      <point x="256.7368421052631" y="992.3789473684211" type="line"/>
      <point x="248.04210526315785" y="839.4526315789474"/>
      <point x="223.32631578947368" y="684.0"/>
      <point x="192.77894736842103" y="537.6210526315789" type="curve"/>
      <point x="170.77894736842103" y="437.62105263157895" type="line"/>
      <point x="136.2315789473684" y="273.9789473684211"/>
      <point x="104.04210526315788" y="146.7157894736842"/>
    </contour>
    <contour>
      <point x="1327.3684210526317" y="0.0" type="curve"/>
      <point x="1518.3368421052633" y="0.0" type="line"/>
      <point x="1540.1263157894737" y="146.7157894736842"/>
      <point x="1563.3894736842105" y="273.9789473684211"/>
      <point x="1597.9368421052632" y="437.62105263157895" type="curve"/>
      <point x="1613.9368421052632" y="514.1684210526315"/>
      <point x="1630.8631578947368" y="575.1157894736842"/>
      <point x="1642.8631578947368" y="630.2105263157895" type="curve" smooth="yes"/>
      <point x="1695.221052631579" y="869.8315789473685"/>
      <point x="1602.6736842105263" y="1015.6631578947369"/>
      <point x="1401.0315789473684" y="1015.6631578947369" type="curve" smooth="yes"/>
      <point x="1278.1473684210523" y="1015.6631578947369"/>
      <point x="1125.0947368421052" y="907.5368421052633"/>
      <point x="1036.0" y="818.421052631579" type="curve"/>
      <point x="1015.978947368421" y="818.421052631579" type="line"/>
      <point x="1011.978947368421" y="667.7052631578948" type="line"/>
      <point x="1106.9894736842105" y="768.5263157894736"/>
      <point x="1230.6947368421054" y="859.7052631578947"/>
      <point x="1325.6842105263158" y="859.7052631578947" type="curve" smooth="yes"/>
      <point x="1461.1999999999998" y="859.7052631578947"/>
      <point x="1501.157894736842" y="762.4842105263158"/>
      <point x="1462.6315789473686" y="584.9473684210526" type="curve"/>
      <point x="1431.2" y="430.5052631578947" type="line"/>
      <point x="1398.2947368421053" y="273.9789473684211"/>
      <point x="1366.6526315789474" y="146.7157894736842"/>
    </contour>
  </outline>
</glyph>
<glyph name="n" format="2">
  <advance width="1163.3263157894735"/>
  <unicode hex="006E"/>
  <anchor x="486.18947368421055" y="0.0" name="bottom"/>
  <anchor x="695.2842105263157" y="992.3789473684211" name="top"/>
  <outline>
    <contour>
      <point x="63.663157894736834" y="0.0" type="curve"/>
      <point x="255.7263157894737" y="0.0" type="line"/>
      <point x="279.15789473684214" y="146.7157894736842"/>
      <point x="301.32631578947377" y="273.9789473684211"/>
      <point x="334.23157894736846" y="430.5052631578947" type="curve"/>
      <point x="385.3052631578948" y="667.7052631578948" type="line"/>
      <point x="480.3157894736842" y="768.5263157894738"/>
      <point x="610.9263157894736" y="859.7052631578947"/>
      <point x="708.8210526315788" y="859.7052631578947" type="curve" smooth="yes"/>
      <point x="862.8631578947368" y="859.7052631578947"/>
      <point x="902.8210526315789" y="762.4842105263158"/>
      <point x="864.2947368421053" y="584.9473684210526" type="curve"/>
      <point x="832.8631578947369" y="430.5052631578947" type="line"/>
      <point x="799.9578947368421" y="273.9789473684211"/>
      <point x="768.3157894736843" y="146.7157894736842"/>
      <point x="729.0315789473684" y="0.0" type="curve"/>
      <point x="920.0" y="0.0" type="line"/>
      <point x="941.7894736842106" y="146.7157894736842"/>
      <point x="965.0526315789474" y="273.9789473684211"/>
      <point x="999.6" y="437.62105263157895" type="curve"/>
      <point x="1015.6" y="514.1684210526315"/>
      <point x="1032.5263157894738" y="575.1157894736842"/>
      <point x="1044.5263157894738" y="630.2105263157895" type="curve" smooth="yes"/>
      <point x="1096.8842105263159" y="869.8315789473684"/>
      <point x="1004.3368421052631" y="1015.6631578947369"/>
      <point x="785.621052631579" y="1015.6631578947369" type="curve" smooth="yes"/>
      <point x="657.2842105263157" y="1015.6631578947369"/>
      <point x="505.68421052631584" y="911.8947368421052"/>
      <point x="418.94736842105266" y="825.6842105263158" type="curve"/>
      <point x="402.3789473684211" y="825.6842105263158" type="line"/>
      <point x="421.0947368421053" y="1002.2105263157895" type="line"/>
      <point x="256.7368421052631" y="992.3789473684211" type="line"/>
      <point x="248.04210526315785" y="839.4526315789474"/>
      <point x="223.32631578947368" y="684.0"/>
      <point x="192.77894736842103" y="537.6210526315789" type="curve"/>
      <point x="170.77894736842103" y="437.62105263157895" type="line"/>
      <point x="136.2315789473684" y="273.9789473684211"/>
      <point x="104.04210526315788" y="146.7157894736842"/>
    </contour>
  </outline>
</glyph>
<glyph name="o" format="2">
  <advance width="1194.5473684210526"/>
  <unicode hex="006F"/>
  <anchor x="492.0" y="0.0" name="bottom"/>
  <anchor x="596.5473684210526" y="496.18947368421055" name="center"/>
  <anchor x="695.5368421052632" y="0.0" name="ogonek"/>
  <anchor x="701.0947368421052" y="992.3789473684211" name="top"/>
  <anchor x="1169.6" y="992.3789473684211" name="topright"/>
  <outline>
    <contour>
      <point x="547.8315789473684" y="-21.83157894736842" type="curve" smooth="yes"/>
      <point x="824.4421052631579" y="-21.83157894736842"/>
      <point x="1027.8947368421052" y="165.43157894736842"/>
      <point x="1087.536842105263" y="445.09473684210525" type="curve" smooth="yes"/>
      <point x="1151.536842105263" y="743.6421052631579"/>
      <point x="990.0631578947368" y="1015.6631578947369"/>
      <point x="648.1684210526316" y="1015.6631578947369" type="curve" smooth="yes"/>
      <point x="388.4421052631579" y="1015.6631578947369"/>
      <point x="169.55789473684212" y="844.9263157894736"/>
      <point x="108.46315789473685" y="549.2842105263157" type="curve" smooth="yes"/>
      <point x="47.915789473684214" y="256.5473684210526"/>
      <point x="196.2947368421053" y="-21.83157894736842"/>
    </contour>
    <contour>
      <point x="554.021052631579" y="121.53684210526316" type="curve"/>
      <point x="317.1578947368421" y="128.6315789473684"/>
      <point x="230.86315789473684" y="314.8631578947369"/>
      <point x="275.5578947368421" y="529.6210526315789" type="curve" smooth="yes"/>
      <point x="315.89473684210526" y="726.4000000000001"/>
      <point x="447.24210526315795" y="865.2"/>
      <point x="646.5263157894736" y="872.2947368421053" type="curve"/>
      <point x="869.5999999999999" y="864.1052631578948"/>
      <point x="967.4947368421052" y="686.9473684210526"/>
      <point x="920.4421052631578" y="464.2105263157895" type="curve" smooth="yes"/>
      <point x="880.6526315789473" y="273.9789473684211"/>
      <point x="754.2105263157896" y="128.6315789473684"/>
    </contour>
  </outline>
</glyph>
<glyph name="p" format="2">
  <advance width="1195.2842105263157"/>
  <unicode hex="0070"/>
  <outline>
    <contour>
      <point x="-19.789473684210535" y="-390.18947368421055" type="curve"/>
      <point x="177.01052631578952" y="-384.0" type="line"/>
      <point x="196.80000000000004" y="-237.2842105263158"/>
      <point x="218.42105263157896" y="-110.02105263157895"/>
      <point x="252.7789473684211" y="46.50526315789474" type="curve"/>
      <point x="274.5894736842106" y="143.7473684210526" type="line"/>
      <point x="289.87368421052633" y="143.7473684210526" type="line"/>
      <point x="367.11578947368423" y="45.76842105263158"/>
      <point x="500.1684210526316" y="-21.83157894736842"/>
      <point x="610.8631578947368" y="-21.83157894736842" type="curve" smooth="yes"/>
      <point x="851.578947368421" y="-21.83157894736842"/>
      <point x="1023.9157894736842" y="160.21052631578948"/>
      <point x="1083.9157894736843" y="446.56842105263155" type="curve" smooth="yes"/>
      <point x="1146.463157894737" y="747.6631578947369"/>
      <point x="1033.4105263157896" y="1015.6631578947369"/>
      <point x="740.0" y="1015.6631578947369" type="curve" smooth="yes"/>
      <point x="634.021052631579" y="1015.6631578947369"/>
      <point x="506.4210526315789" y="944.421052631579"/>
      <point x="429.6842105263158" y="866.9263157894736" type="curve"/>
      <point x="411.66315789473686" y="866.9263157894736" type="line"/>
      <point x="426.0210526315789" y="1002.2105263157895" type="line"/>
      <point x="256.7368421052631" y="992.3789473684211" type="line"/>
      <point x="248.04210526315788" y="839.4526315789474"/>
      <point x="223.32631578947365" y="684.0"/>
      <point x="192.77894736842103" y="537.6210526315789" type="curve"/>
      <point x="89.32631578947368" y="53.62105263157895" type="line"/>
      <point x="54.77894736842104" y="-110.02105263157895"/>
      <point x="20.589473684210517" y="-243.47368421052633"/>
    </contour>
    <contour>
      <point x="573.0947368421052" y="127.55789473684212" type="curve"/>
      <point x="473.3684210526316" y="128.6526315789474"/>
      <point x="370.37894736842105" y="187.13684210526318"/>
      <point x="304.6315789473685" y="288.4842105263158" type="curve"/>
      <point x="396.21052631578954" y="720.4" type="line"/>
      <point x="480.12631578947367" y="808.1473684210525"/>
      <point x="590.5684210526316" y="865.9157894736842"/>
      <point x="673.4105263157894" y="867.9157894736842" type="curve"/>
      <point x="886.4842105263158" y="861.9157894736842"/>
      <point x="961.3263157894736" y="680.0421052631579"/>
      <point x="916.2736842105262" y="461.13684210526316" type="curve" smooth="yes"/>
      <point x="876.4842105263157" y="270.5473684210526"/>
      <point x="767.4736842105264" y="134.10526315789474"/>
    </contour>
  </outline>
</glyph>
<glyph name="q" format="2">
  <advance width="1172.7368421052631"/>
  <unicode hex="0071"/>
  <outline>
    <contour>
      <point x="643.5578947368421" y="-390.18947368421055" type="curve"/>
      <point x="837.621052631579" y="-384.0" type="line"/>
      <point x="861.0526315789474" y="-237.2842105263158"/>
      <point x="883.221052631579" y="-110.02105263157895"/>
      <point x="917.7684210526317" y="53.62105263157895" type="curve"/>
      <point x="1020.3157894736843" y="537.6210526315789" type="line"/>
      <point x="1051.4105263157894" y="687.0947368421052"/>
      <point x="1092.6947368421052" y="846.1894736842105"/>
      <point x="1145.8105263157893" y="1002.2105263157895" type="curve"/>
      <point x="980.3578947368421" y="992.3789473684211" type="line"/>
      <point x="938.3578947368421" y="856.757894736842" type="line"/>
      <point x="920.8842105263158" y="856.757894736842" type="line"/>
      <point x="847.8105263157895" y="945.3263157894737"/>
      <point x="711.4736842105262" y="1015.6631578947369"/>
      <point x="584.9684210526316" y="1015.6631578947369" type="curve" smooth="yes"/>
      <point x="344.2526315789474" y="1015.6631578947369"/>
      <point x="171.9157894736842" y="833.6210526315789"/>
      <point x="111.91578947368421" y="547.2631578947369" type="curve" smooth="yes"/>
      <point x="49.36842105263158" y="246.1684210526316"/>
      <point x="162.42105263157896" y="-21.83157894736842"/>
      <point x="455.83157894736837" y="-21.83157894736842" type="curve" smooth="yes"/>
      <point x="552.1684210526315" y="-21.83157894736842"/>
      <point x="671.3894736842105" y="35.95789473684211"/>
      <point x="753.5578947368421" y="132.1263157894737" type="curve"/>
      <point x="769.9368421052632" y="132.1263157894737" type="line"/>
      <point x="751.0315789473684" y="46.50526315789474" type="line"/>
      <point x="718.1263157894737" y="-110.02105263157895"/>
      <point x="683.9368421052632" y="-243.47368421052633"/>
    </contour>
    <contour>
      <point x="522.421052631579" y="125.91578947368421" type="curve"/>
      <point x="309.34736842105264" y="130.46315789473684"/>
      <point x="233.0526315789474" y="315.2421052631579"/>
      <point x="279.5578947368421" y="532.6947368421053" type="curve" smooth="yes"/>
      <point x="320.8" y="726.1894736842105"/>
      <point x="428.3578947368421" y="859.7263157894737"/>
      <point x="622.7368421052631" y="866.2736842105263" type="curve"/>
      <point x="726.821052631579" y="863.7263157894737"/>
      <point x="828.3578947368421" y="811.0526315789473"/>
      <point x="897.0105263157894" y="732.9473684210526" type="curve"/>
      <point x="806.8842105263158" y="311.2" type="line"/>
      <point x="731.6842105263158" y="197.30526315789476"/>
      <point x="624.1473684210526" y="129.3684210526316"/>
    </contour>
  </outline>
</glyph>
<glyph name="r" format="2">
  <advance width="812.0842105263157"/>
  <unicode hex="0072"/>
  <anchor x="149.6842105263158" y="0.0" name="bottom"/>
  <anchor x="571.2842105263157" y="992.3789473684211" name="top"/>
  <outline>
    <contour>
      <point x="63.663157894736834" y="0.0" type="curve"/>
      <point x="255.7263157894737" y="0.0" type="line"/>
      <point x="279.15789473684214" y="146.7157894736842"/>
      <point x="301.32631578947377" y="273.9789473684211"/>
      <point x="334.23157894736846" y="430.5052631578947" type="curve"/>
      <point x="370.94736842105266" y="599.5368421052632" type="line"/>
      <point x="499.9157894736843" y="801.6842105263158"/>
      <point x="619.1368421052632" y="847.1157894736842"/>
      <point x="688.9052631578946" y="847.1157894736842" type="curve" smooth="yes"/>
      <point x="724.3578947368421" y="847.1157894736842"/>
      <point x="761.4526315789473" y="839.4736842105262"/>
      <point x="816.3789473684211" y="818.9263157894736" type="curve"/>
      <point x="868.1263157894737" y="994.2105263157895" type="line"/>
      <point x="832.6736842105263" y="1005.6631578947369"/>
      <point x="779.578947368421" y="1015.6631578947369"/>
      <point x="737.2421052631579" y="1015.6631578947369" type="curve" smooth="yes"/>
      <point x="651.2421052631579" y="1015.6631578947369"/>
      <point x="535.4736842105262" y="974.757894736842"/>
      <point x="411.68421052631584" y="803.8947368421052" type="curve"/>
      <point x="395.11578947368423" y="803.8947368421052" type="line"/>
      <point x="421.0947368421053" y="1002.2105263157895" type="line"/>
      <point x="256.7368421052631" y="992.3789473684211" type="line"/>
      <point x="248.04210526315785" y="839.4526315789474"/>
      <point x="223.32631578947368" y="684.0"/>
      <point x="192.77894736842103" y="537.6210526315789" type="curve"/>
      <point x="170.77894736842103" y="437.62105263157895" type="line"/>
      <point x="136.2315789473684" y="273.9789473684211"/>
      <point x="104.04210526315788" y="146.7157894736842"/>
    </contour>
  </outline>
</glyph>
<glyph name="v" format="2">
  <advance width="1039.621052631579"/>
  <unicode hex="0076"/>
  <outline>
    <contour>
      <point x="316.06315789473683" y="0.0" type="curve"/>
      <point x="519.0105263157895" y="0.0" type="line"/>
      <point x="586.0842105263158" y="124.54736842105264"/>
      <point x="655.3473684210526" y="247.6421052631579"/>
      <point x="727.7052631578947" y="371.64210526315793" type="curve"/>
      <point x="831.5157894736842" y="548.7368421052631" type="line"/>
      <point x="916.421052631579" y="695.8315789473684"/>
      <point x="1004.7789473684211" y="845.8315789473684"/>
      <point x="1100.4210526315787" y="992.3789473684211" type="curve"/>
      <point x="891.978947368421" y="992.3789473684211" type="line"/>
      <point x="810.6105263157895" y="831.0105263157894"/>
      <point x="725.4105263157895" y="668.1684210526316"/>
      <point x="632.2105263157895" y="499.5157894736842" type="curve"/>
      <point x="457.62105263157895" y="181.11578947368423" type="line"/>
      <point x="440.14736842105265" y="181.11578947368423" type="line"/>
      <point x="397.85263157894735" y="499.5157894736842" type="line"/>
      <point x="374.8" y="668.1684210526316"/>
      <point x="355.38947368421054" y="831.5578947368421"/>
      <point x="340.52631578947364" y="998.5684210526316" type="curve"/>
      <point x="151.2" y="992.3789473684211" type="line"/>
      <point x="182.84210526315792" y="848.378947368421"/>
      <point x="210.29473684210527" y="697.2842105263157"/>
      <point x="234.10526315789474" y="552.1894736842105" type="curve"/>
      <point x="262.4631578947368" y="375.6421052631579" type="line"/>
      <point x="282.82105263157894" y="254.0"/>
      <point x="301.5368421052632" y="124.54736842105264"/>
    </contour>
  </outline>
</glyph>
<glyph name="w" format="2">
  <advance width="1613.7894736842106"/>
  <unicode hex="0077"/>
  <anchor x="701.5157894736842" y="0.0" name="bottom"/>
  <anchor x="910.0631578947368" y="992.3789473684211" name="top"/>
  <outline>
    <contour>
      <point x="266.0631578947369" y="0.0" type="curve"/>
      <point x="466.0842105263158" y="0.0" type="line"/>
      <point x="538.7368421052632" y="153.7263157894737"/>
      <point x="620.4842105263158" y="318.7157894736842"/>
      <point x="696.9684210526316" y="469.5368421052632" type="curve"/>
      <point x="845.0315789473684" y="762.2736842105263" type="line"/>
      <point x="861.4105263157894" y="762.2736842105263" type="line"/>
      <point x="888.821052631579" y="475.178947368421" type="line"/>
      <point x="902.2526315789473" y="324.7157894736842"/>
      <point x="916.5894736842106" y="150.82105263157897"/>
      <point x="924.7368421052633" y="0.0" type="curve"/>
      <point x="1142.2526315789473" y="0.0" type="line"/>
      <point x="1200.2315789473685" y="122.54736842105264"/>
      <point x="1265.1368421052632" y="249.09473684210528"/>
      <point x="1334.5894736842106" y="379.6421052631579" type="curve"/>
      <point x="1427.4947368421053" y="553.6421052631579" type="line"/>
      <point x="1505.4947368421053" y="699.8315789473684"/>
      <point x="1582.9473684210527" y="843.8315789473684"/>
      <point x="1674.2315789473685" y="992.3789473684211" type="curve"/>
      <point x="1465.242105263158" y="992.3789473684211" type="line"/>
      <point x="1399.8526315789475" y="844.9894736842106"/>
      <point x="1308.1052631578948" y="659.4315789473684"/>
      <point x="1227.0736842105264" y="497.13684210526316" type="curve"/>
      <point x="1067.0105263157895" y="176.54736842105262" type="line"/>
      <point x="1051.536842105263" y="176.54736842105262" type="line"/>
      <point x="1024.863157894737" y="494.58947368421053" type="line"/>
      <point x="1011.0736842105264" y="658.8842105263158"/>
      <point x="998.3789473684211" y="832.0842105263158"/>
      <point x="991.8736842105262" y="992.3789473684211" type="curve"/>
      <point x="812.6105263157895" y="992.3789473684211" type="line"/>
      <point x="735.6" y="822.2736842105263"/>
      <point x="654.5684210526316" y="657.0736842105263"/>
      <point x="572.9894736842106" y="491.6842105263158" type="curve"/>
      <point x="417.2842105263158" y="176.54736842105262" type="line"/>
      <point x="401.8105263157895" y="176.54736842105262" type="line"/>
      <point x="373.6842105263158" y="485.87368421052633" type="line"/>
      <point x="359.89473684210526" y="648.7157894736843"/>
      <point x="344.2947368421053" y="832.8210526315789"/>
      <point x="337.7894736842105" y="998.5684210526316" type="curve"/>
      <point x="146.4631578947368" y="992.3789473684211" type="line"/>
      <point x="175.74736842105264" y="842.378947368421"/>
      <point x="193.2" y="700.7368421052631"/>
      <point x="209.5578947368421" y="553.6421052631579" type="curve"/>
      <point x="230.82105263157894" y="376.1894736842105" type="line"/>
      <point x="245.17894736842103" y="249.6421052631579"/>
      <point x="257.5368421052632" y="124.54736842105264"/>
    </contour>
  </outline>
</glyph>
<glyph name="x" format="2">
  <advance width="1076.378947368421"/>
  <unicode hex="0078"/>
  <outline>
    <contour>
      <point x="-53.705263157894734" y="0.0" type="curve"/>
      <point x="172.02105263157898" y="0.0" type="line"/>
      <point x="240.1263157894737" y="88.69473684210526"/>
      <point x="292.8" y="153.03157894736842"/>
      <point x="366.7368421052632" y="241.3684210526316" type="curve"/>
      <point x="510.6105263157894" y="410.2105263157895" type="line"/>
      <point x="524.9894736842105" y="410.2105263157895" type="line"/>
      <point x="608.5263157894736" y="235.7263157894737" type="line"/>
      <point x="650.2947368421053" y="149.03157894736842"/>
      <point x="679.3473684210526" y="85.6"/>
      <point x="712.9263157894737" y="0.0" type="curve"/>
      <point x="920.2736842105263" y="0.0" type="line"/>
      <point x="843.9157894736842" y="127.2842105263158"/>
      <point x="801.2" y="208.02105263157895"/>
      <point x="750.6736842105263" y="304.5684210526316" type="curve"/>
      <point x="631.6210526315789" y="533.1368421052632" type="line"/>
      <point x="630.3578947368421" y="489.2631578947368" type="line"/>
      <point x="824.6947368421053" y="702.0" type="line"/>
      <point x="914.8631578947368" y="800.5473684210526"/>
      <point x="972.3157894736842" y="862.7368421052631"/>
      <point x="1097.578947368421" y="992.3789473684211" type="curve"/>
      <point x="871.3052631578947" y="992.3789473684211" type="line"/>
      <point x="804.1052631578947" y="903.6842105263157"/>
      <point x="749.7894736842105" y="838.2526315789473"/>
      <point x="679.1157894736842" y="754.2736842105263" type="curve"/>
      <point x="542.8631578947368" y="594.1473684210526" type="line"/>
      <point x="528.8421052631578" y="594.1473684210526" type="line"/>
      <point x="455.8315789473684" y="754.8210526315789" type="line"/>
      <point x="420.77894736842103" y="833.8947368421052"/>
      <point x="389.72631578947363" y="906.421052631579"/>
      <point x="355.6" y="998.5684210526316" type="curve"/>
      <point x="160.46315789473684" y="992.3789473684211" type="line"/>
      <point x="229.7263157894737" y="869.2842105263157"/>
      <point x="264.9894736842105" y="797.0947368421052"/>
      <point x="314.42105263157896" y="695.6421052631579" type="curve"/>
      <point x="416.9263157894737" y="483.4526315789474" type="line"/>
      <point x="424.7578947368421" y="530.2315789473685" type="line"/>
      <point x="227.3473684210526" y="306.2105263157895" type="line"/>
      <point x="138.27368421052634" y="204.9263157894737"/>
      <point x="73.5578947368421" y="133.2842105263158"/>
    </contour>
  </outline>
</glyph>
<glyph name="y" format="2">
  <advance width="1045.4315789473685"/>
  <unicode hex="0079"/>
  <anchor x="685.0315789473684" y="0.0" name="bottom"/>
  <anchor x="628.4421052631579" y="992.3789473684211" name="top"/>
  <outline>
    <contour>
      <point x="70.02105263157891" y="-390.18947368421055" type="curve"/>
      <point x="279.5578947368421" y="-384.0" type="line"/>
      <point x="356.44210526315794" y="-240.0"/>
      <point x="452.79999999999995" y="-75.81052631578947"/>
      <point x="606.0631578947368" y="178.18947368421053" type="curve"/>
      <point x="774.421052631579" y="457.2842105263158" type="line"/>
      <point x="924.7789473684211" y="707.8315789473684"/>
      <point x="999.6842105263158" y="830.3789473684211"/>
      <point x="1101.6842105263158" y="992.3789473684211" type="curve"/>
      <point x="894.8842105263158" y="992.3789473684211" type="line"/>
      <point x="811.5157894736842" y="826.6315789473684"/>
      <point x="724.8631578947369" y="666.8842105263158"/>
      <point x="629.6631578947369" y="496.7789473684211" type="curve"/>
      <point x="449.6210526315789" y="176.73684210526318" type="line"/>
      <point x="432.14736842105265" y="176.73684210526318" type="line"/>
      <point x="392.75789473684205" y="495.87368421052633" type="line"/>
      <point x="370.61052631578946" y="667.0736842105263"/>
      <point x="352.65263157894736" y="827.3684210526316"/>
      <point x="338.88421052631577" y="998.5684210526316" type="curve"/>
      <point x="149.5578947368421" y="992.3789473684211" type="line"/>
      <point x="181.7473684210526" y="849.8315789473684"/>
      <point x="206.65263157894736" y="697.8315789473684"/>
      <point x="229.01052631578946" y="555.2842105263157" type="curve"/>
      <point x="256.82105263157894" y="375.2842105263158" type="line"/>
      <point x="277.72631578947363" y="241.64210526315787"/>
      <point x="295.34736842105264" y="100.73684210526316"/>
      <point x="311.87368421052633" y="-35.810526315789474" type="curve"/>
      <point x="324.63157894736844" y="10.610526315789475" type="line"/>
      <point x="248.6315789473684" y="-120.86315789473683"/>
      <point x="160.42105263157896" y="-258.7157894736842"/>
    </contour>
  </outline>
</glyph>
<glyph name="z" format="2">
  <advance width="993.5578947368421"/>
  <unicode hex="007A"/>
  <anchor x="388.7789473684211" y="0.0" name="bottom"/>
  <anchor x="493.3263157894737" y="496.18947368421055" name="center"/>
  <anchor x="597.8736842105263" y="992.3789473684211" name="top"/>
  <outline>
    <contour>
      <point x="-27.49473684210526" y="0.0" type="line"/>
      <point x="817.7684210526315" y="0.0" type="line"/>
      <point x="849.2842105263157" y="146.2947368421053" type="line"/>
      <point x="711.8736842105263" y="134.08421052631581"/>
      <point x="529.3894736842105" y="128.2526315789474"/>
      <point x="420.33684210526314" y="128.2526315789474" type="curve"/>
      <point x="178.9684210526316" y="128.2526315789474" type="line"/>
      <point x="198.27368421052634" y="91.09473684210528" type="line"/>
      <point x="596.6105263157895" y="501.7894736842105" type="line"/>
      <point x="718.1894736842106" y="626.821052631579"/>
      <point x="873.0315789473684" y="780.7368421052631"/>
      <point x="970.821052631579" y="875.0526315789473" type="curve"/>
      <point x="995.0526315789474" y="992.3789473684211" type="line"/>
      <point x="185.4315789473684" y="992.3789473684211" type="line"/>
      <point x="153.36842105263156" y="843.3473684210526" type="line"/>
      <point x="302.7789473684211" y="858.6526315789473"/>
      <point x="488.3578947368421" y="863.578947368421"/>
      <point x="595.957894736842" y="863.578947368421" type="curve"/>
      <point x="815.1578947368421" y="863.578947368421" type="line"/>
      <point x="790.9263157894737" y="919.8315789473684" type="line"/>
      <point x="388.56842105263155" y="500.7368421052632" type="line"/>
      <point x="274.4421052631579" y="381.5157894736842"/>
      <point x="138.31578947368422" y="244.1263157894737"/>
      <point x="-5.452631578947367" y="103.47368421052632" type="curve"/>
    </contour>
  </outline>
</glyph>
<glyph name="braceleft" format="2">
  <advance width="808.5894736842106"/>
  <unicode hex="007B"/>
  <outline>
    <contour>
      <point x="462.8421052631579" y="-233.85263157894738" type="curve" smooth="yes"/>
      <point x="624.9052631578948" y="-233.85263157894738" type="line"/>
      <point x="653.8736842105263" y="-91.38947368421053" type="line"/>
      <point x="586.7789473684211" y="-95.03157894736842"/>
      <point x="532.7789473684211" y="-95.57894736842105"/>
      <point x="498.77894736842103" y="-95.57894736842105" type="curve"/>
      <point x="373.22105263157897" y="-93.38947368421053"/>
      <point x="330.16842105263163" y="-16.694736842105257"/>
      <point x="350.88421052631577" y="93.62105263157895" type="curve" smooth="yes"/>
      <point x="408.2947368421053" y="386.33684210526314" type="line" smooth="yes"/>
      <point x="437.2" y="533.0736842105263"/>
      <point x="396.2947368421053" y="595.2631578947369"/>
      <point x="303.6842105263158" y="636.5473684210526" type="curve"/>
      <point x="306.7789473684211" y="653.4736842105262" type="line"/>
      <point x="416.4842105263158" y="696.5894736842105"/>
      <point x="482.6736842105263" y="757.5368421052632"/>
      <point x="518.8631578947369" y="913.1789473684211" type="curve" smooth="yes"/>
      <point x="590.6315789473684" y="1233.8315789473684" type="line" smooth="yes"/>
      <point x="616.4421052631578" y="1348.505263157895"/>
      <point x="680.9473684210527" y="1392.6736842105263"/>
      <point x="799.2421052631579" y="1394.3157894736842" type="curve"/>
      <point x="837.6" y="1394.3157894736842"/>
      <point x="895.4105263157894" y="1393.7684210526315"/>
      <point x="962.1263157894737" y="1390.1263157894737" type="curve"/>
      <point x="993.0947368421052" y="1532.5894736842106" type="line"/>
      <point x="795.221052631579" y="1532.5894736842106" type="line" smooth="yes"/>
      <point x="598.4" y="1532.5894736842106"/>
      <point x="472.6947368421052" y="1453.8315789473684"/>
      <point x="434.31578947368416" y="1271.9368421052632" type="curve"/>
      <point x="410.50526315789466" y="1155.242105263158"/>
      <point x="389.07368421052627" y="1027.3052631578948"/>
      <point x="364.7157894736842" y="910.6105263157895" type="curve"/>
      <point x="334.5473684210526" y="767.0315789473684"/>
      <point x="232.96842105263158" y="711.578947368421"/>
      <point x="136.44210526315788" y="711.578947368421" type="curve" smooth="yes"/>
      <point x="70.58947368421053" y="711.578947368421" type="line"/>
      <point x="44.357894736842105" y="585.7052631578947" type="line"/>
      <point x="110.21052631578947" y="585.7052631578947" type="line" smooth="yes"/>
      <point x="206.73684210526318" y="585.7052631578947"/>
      <point x="284.31578947368416" y="530.2526315789473"/>
      <point x="254.1473684210526" y="386.6736842105263" type="curve"/>
      <point x="232.88421052631577" y="284.9052631578947"/>
      <point x="207.4315789473684" y="184.58947368421053"/>
      <point x="186.16842105263154" y="82.82105263157895" type="curve"/>
      <point x="149.24210526315787" y="-94.71578947368421"/>
      <point x="252.94736842105263" y="-233.85263157894738"/>
    </contour>
  </outline>
</glyph>
<glyph name="asciitilde" format="2">
  <advance width="1136.421052631579"/>
  <unicode hex="007E"/>
  <outline>
    <contour>
      <point x="813.1157894736841" y="441.9157894736842" type="curve" smooth="yes"/>
      <point x="940.0842105263157" y="441.9157894736842"/>
      <point x="1024.2947368421053" y="543.6421052631579"/>
      <point x="1061.957894736842" y="724.1263157894737" type="curve"/>
      <point x="951.4105263157895" y="724.1263157894737" type="line"/>
      <point x="920.1473684210526" y="632.9263157894737"/>
      <point x="887.621052631579" y="594.4"/>
      <point x="815.3052631578947" y="589.8526315789474" type="curve"/>
      <point x="680.8000000000001" y="596.5894736842105"/>
      <point x="532.5894736842106" y="755.0526315789474"/>
      <point x="374.77894736842103" y="755.0526315789474" type="curve" smooth="yes"/>
      <point x="244.5263157894737" y="755.0526315789474"/>
      <point x="157.76842105263157" y="651.3263157894737"/>
      <point x="118.65263157894736" y="472.8421052631579" type="curve"/>
      <point x="229.20000000000002" y="472.8421052631579" type="line"/>
      <point x="260.4631578947368" y="564.0421052631579"/>
      <point x="297.53684210526313" y="602.5684210526316"/>
      <point x="369.4947368421052" y="607.1157894736842" type="curve"/>
      <point x="502.71578947368414" y="600.3789473684211"/>
      <point x="653.1157894736842" y="441.9157894736842"/>
    </contour>
  </outline>
</glyph>
<glyph name="cent" format="2">
  <advance width="988.6736842105263"/>
  <unicode hex="00A2"/>
  <anchor x="466.69473684210527" y="0.0" name="bottom"/>
  <anchor x="662.7157894736843" y="992.3789473684211" name="top"/>
  <outline>
    <contour>
      <point x="326.8" y="-274.0" type="curve"/>
      <point x="469.9789473684211" y="-274.0" type="line"/>
      <point x="509.95789473684215" y="-41.09473684210526"/>
      <point x="554.5052631578948" y="168.0"/>
      <point x="600.5052631578948" y="384.5473684210526" type="curve"/>
      <point x="644.5052631578948" y="590.1894736842105" type="line"/>
      <point x="690.5052631578948" y="806.7368421052631"/>
      <point x="734.5052631578948" y="1014.1894736842105"/>
      <point x="793.9789473684211" y="1248.7368421052631" type="curve"/>
      <point x="650.8" y="1248.7368421052631" type="line"/>
      <point x="610.2736842105263" y="1014.7368421052631"/>
      <point x="566.2736842105263" y="806.1894736842105"/>
      <point x="520.2736842105263" y="590.1894736842105" type="curve"/>
      <point x="476.2736842105263" y="384.5473684210526" type="line"/>
      <point x="430.82105263157894" y="170.18947368421053"/>
      <point x="386.2736842105263" y="-39.45263157894737"/>
    </contour>
    <contour>
      <point x="561.1157894736842" y="-20.189473684210526" type="curve" smooth="yes"/>
      <point x="649.0947368421052" y="-20.189473684210526"/>
      <point x="750.9052631578948" y="11.978947368421053"/>
      <point x="804.9052631578948" y="36.694736842105264" type="curve"/>
      <point x="821.8736842105263" y="197.70526315789476" type="line"/>
      <point x="751.7052631578947" y="156.98947368421054"/>
      <point x="656.9894736842106" y="125.72631578947369"/>
      <point x="586.2947368421053" y="124.27368421052633" type="curve" smooth="yes"/>
      <point x="353.34736842105264" y="128.2736842105263"/>
      <point x="221.41052631578947" y="278.5263157894737"/>
      <point x="276.10526315789474" y="532.9052631578946" type="curve" smooth="yes"/>
      <point x="322.8" y="747.8315789473685"/>
      <point x="468.86315789473684" y="857.9157894736842"/>
      <point x="655.4526315789474" y="867.9157894736842" type="curve"/>
      <point x="720.6947368421052" y="867.9157894736842"/>
      <point x="828.4842105263158" y="838.6526315789474"/>
      <point x="939.2210526315789" y="775.3894736842104" type="curve"/>
      <point x="984.2105263157895" y="929.1368421052631" type="line"/>
      <point x="902.5684210526316" y="965.8526315789474"/>
      <point x="774.5473684210527" y="1015.1157894736842"/>
      <point x="656.357894736842" y="1015.1157894736842" type="curve" smooth="yes"/>
      <point x="373.36842105263156" y="1015.1157894736842"/>
      <point x="166.10526315789474" y="826.7578947368421"/>
      <point x="109.01052631578948" y="552.021052631579" type="curve" smooth="yes"/>
      <point x="39.72631578947369" y="215.97894736842105"/>
      <point x="221.6" y="-20.189473684210526"/>
    </contour>
  </outline>
</glyph>
<glyph name="sterling" format="2">
  <advance width="1182.0842105263157"/>
  <unicode hex="00A3"/>
  <outline>
    <contour>
      <point x="23.55789473684211" y="0.0" type="line"/>
      <point x="1010.2736842105264" y="0.0" type="line"/>
      <point x="1046.1684210526316" y="168.90526315789475" type="line"/>
      <point x="872.5473684210526" y="154.14736842105265"/>
      <point x="720.5684210526316" y="153.05263157894737"/>
      <point x="463.87368421052633" y="153.05263157894737" type="curve"/>
      <point x="179.3684210526316" y="153.05263157894737" type="line"/>
      <point x="205.6" y="109.03157894736843" type="line"/>
      <point x="393.621052631579" y="255.5368421052632"/>
      <point x="429.97894736842113" y="376.23157894736846"/>
      <point x="453.7894736842106" y="485.4736842105263" type="curve" smooth="yes"/>
      <point x="546.6315789473684" y="920.6315789473684" type="line" smooth="yes"/>
      <point x="593.8736842105263" y="1141.221052631579"/>
      <point x="699.2842105263157" y="1241.7052631578947"/>
      <point x="881.5368421052632" y="1245.3473684210526" type="curve"/>
      <point x="948.7789473684211" y="1245.3473684210526"/>
      <point x="1060.0210526315789" y="1216.0842105263157"/>
      <point x="1174.757894736842" y="1153.7263157894736" type="curve"/>
      <point x="1226.6736842105263" y="1313.136842105263" type="line"/>
      <point x="1136.6526315789474" y="1349.3052631578946"/>
      <point x="996.9684210526317" y="1397.4736842105262"/>
      <point x="868.2105263157895" y="1397.4736842105262" type="curve" smooth="yes"/>
      <point x="613.7263157894737" y="1397.4736842105262"/>
      <point x="434.9684210526316" y="1249.7894736842104"/>
      <point x="371.87368421052633" y="946.6736842105264" type="curve" smooth="yes"/>
      <point x="339.15789473684214" y="797.2631578947369"/>
      <point x="303.7263157894737" y="600.2105263157895"/>
      <point x="270.821052631579" y="443.13684210526316" type="curve"/>
      <point x="251.91578947368424" y="354.9894736842105"/>
      <point x="215.74736842105267" y="232.67368421052632"/>
      <point x="45.95789473684211" y="104.90526315789474" type="curve"/>
    </contour>
    <contour>
      <point x="158.46315789473684" y="683.0947368421052" type="line"/>
      <point x="285.7684210526316" y="689.8315789473684"/>
      <point x="405.0736842105263" y="690.378947368421"/>
      <point x="507.28421052631586" y="690.378947368421" type="curve"/>
      <point x="574.9473684210526" y="690.378947368421" type="line"/>
      <point x="677.1578947368421" y="690.378947368421"/>
      <point x="795.3684210526316" y="689.8315789473684"/>
      <point x="918.6736842105264" y="683.0947368421052" type="curve"/>
      <point x="948.0" y="820.4421052631578" type="line"/>
      <point x="822.1473684210525" y="813.7052631578947"/>
      <point x="702.8421052631578" y="813.1578947368421"/>
      <point x="600.6315789473683" y="813.1578947368421" type="curve"/>
      <point x="532.9684210526316" y="813.1578947368421" type="line"/>
      <point x="430.7578947368421" y="813.1578947368421"/>
      <point x="312.5473684210526" y="813.7052631578947"/>
      <point x="187.78947368421055" y="820.4421052631578" type="curve"/>
    </contour>
  </outline>
</glyph>
<glyph name="currency" format="2">
  <advance width="1245.9789473684211"/>
  <unicode hex="00A4"/>
  <outline>
    <contour>
      <point x="622.2526315789474" y="229.89473684210523" type="curve" smooth="yes"/>
      <point x="852.6947368421053" y="229.89473684210523"/>
      <point x="1007.8315789473685" y="343.178947368421"/>
      <point x="1056.7578947368422" y="586.6947368421053" type="curve" smooth="yes"/>
      <point x="1107.1368421052632" y="835.6631578947369"/>
      <point x="936.0" y="1050.463157894737"/>
      <point x="680.9894736842106" y="1050.463157894737" type="curve" smooth="yes"/>
      <point x="460.71578947368425" y="1050.463157894737"/>
      <point x="293.05263157894734" y="938.6315789473684"/>
      <point x="244.12631578947367" y="695.1157894736842" type="curve" smooth="yes"/>
      <point x="193.7473684210526" y="444.6947368421052"/>
      <point x="361.43157894736845" y="229.89473684210523"/>
    </contour>
    <contour>
      <point x="196.33684210526317" y="101.47368421052632" type="line"/>
      <point x="283.2631578947368" y="191.6842105263158"/>
      <point x="369.2842105263158" y="272.25263157894733"/>
      <point x="443.85263157894735" y="342.2736842105263" type="curve"/>
      <point x="341.4526315789474" y="451.9578947368421" type="line"/>
      <point x="267.43157894736845" y="382.4842105263158"/>
      <point x="178.86315789473684" y="303.0105263157895"/>
      <point x="84.10526315789474" y="222.6315789473684" type="curve"/>
    </contour>
    <contour>
      <point x="632.8210526315789" y="373.8105263157895" type="curve"/>
      <point x="468.9263157894737" y="380.00000000000006"/>
      <point x="361.17894736842106" y="512.8210526315789"/>
      <point x="393.15789473684214" y="675.0736842105263" type="curve" smooth="yes"/>
      <point x="422.58947368421053" y="828.0421052631579"/>
      <point x="533.6" y="902.5473684210526"/>
      <point x="672.6105263157895" y="908.1894736842105" type="curve"/>
      <point x="833.2421052631579" y="901.4526315789474"/>
      <point x="940.8" y="767.5368421052632"/>
      <point x="909.3684210526316" y="608.9263157894737" type="curve" smooth="yes"/>
      <point x="877.9368421052632" y="450.67368421052635"/>
      <point x="780.0" y="377.8105263157895"/>
    </contour>
    <contour>
      <point x="391.62105263157895" y="815.8736842105263" type="curve"/>
      <point x="498.2105263157895" y="915.5368421052632" type="line"/>
      <point x="428.1894736842105" y="991.5578947368422"/>
      <point x="348.7157894736842" y="1078.1263157894737"/>
      <point x="268.3368421052632" y="1173.4315789473685" type="curve"/>
      <point x="150.82105263157897" y="1062.842105263158" type="line"/>
      <point x="240.1263157894737" y="977.3684210526316"/>
      <point x="322.14736842105265" y="889.8947368421052"/>
    </contour>
    <contour>
      <point x="1040.5473684210526" y="109.4736842105263" type="curve"/>
      <point x="1158.0631578947368" y="220.06315789473683" type="line"/>
      <point x="1068.7578947368422" y="305.53684210526313"/>
      <point x="986.7368421052631" y="393.0105263157895"/>
      <point x="917.2631578947369" y="467.0315789473684" type="curve"/>
      <point x="810.6736842105263" y="367.36842105263156" type="line"/>
      <point x="880.6947368421053" y="291.3473684210526"/>
      <point x="960.1684210526316" y="204.77894736842106"/>
    </contour>
    <contour>
      <point x="967.4315789473684" y="830.9473684210527" type="line"/>
      <point x="1041.4526315789474" y="900.421052631579"/>
      <point x="1130.021052631579" y="979.8947368421053"/>
      <point x="1224.778947368421" y="1060.2736842105264" type="curve"/>
      <point x="1112.5473684210526" y="1181.4315789473685" type="line"/>
      <point x="1025.621052631579" y="1091.221052631579"/>
      <point x="939.6" y="1010.6526315789474"/>
      <point x="865.0315789473684" y="940.6315789473684" type="curve"/>
    </contour>
  </outline>
</glyph>
<glyph name="yen" format="2">
  <advance width="1249.7894736842104"/>
  <unicode hex="00A5"/>
  <outline>
    <contour>
      <point x="557.7052631578947" y="538.7789473684211" type="line"/>
      <point x="712.042105263158" y="538.7789473684211" type="line"/>
      <point x="1113.4736842105262" y="1041.4105263157894" type="line"/>
      <point x="1205.8315789473684" y="1156.8842105263159"/>
      <point x="1295.6421052631579" y="1269.2631578947369"/>
      <point x="1389.3052631578948" y="1371.2842105263157" type="curve"/>
      <point x="1153.3473684210526" y="1371.2842105263157" type="line"/>
      <point x="1027.6631578947367" y="1190.4421052631578"/>
      <point x="964.4421052631579" y="1107.2"/>
      <point x="853.6210526315789" y="963.0736842105264" type="curve"/>
      <point x="671.2210526315789" y="725.3473684210526" type="line"/>
      <point x="654.8421052631578" y="725.3473684210526" type="line"/>
      <point x="573.6631578947369" y="953.9789473684211" type="line"/>
      <point x="522.6315789473683" y="1097.3684210526317"/>
      <point x="494.12631578947367" y="1188.6315789473683"/>
      <point x="440.5894736842105" y="1371.2842105263157" type="curve"/>
      <point x="228.4842105263158" y="1371.2842105263157" type="line"/>
      <point x="306.3157894736842" y="1202.5263157894738"/>
      <point x="330.6736842105263" y="1138.6947368421054"/>
      <point x="367.93684210526317" y="1039.7684210526315" type="curve"/>
    </contour>
    <contour>
      <point x="420.9473684210526" y="0.0" type="curve"/>
      <point x="621.0315789473684" y="0.0" type="line"/>
      <point x="640.2736842105263" y="152.16842105263157"/>
      <point x="667.1789473684211" y="282.88421052631577"/>
      <point x="703.1789473684211" y="449.9789473684211" type="curve"/>
      <point x="751.7684210526315" y="679.6421052631579" type="line"/>
      <point x="578.6526315789473" y="679.6421052631579" type="line"/>
      <point x="530.0631578947368" y="450.5263157894737" type="line"/>
      <point x="494.06315789473683" y="283.4315789473684"/>
      <point x="466.06315789473683" y="152.16842105263157"/>
    </contour>
    <contour>
      <point x="114.65263157894735" y="275.32631578947365" type="line"/>
      <point x="240.50526315789475" y="282.06315789473683"/>
      <point x="359.2631578947368" y="282.61052631578946"/>
      <point x="461.4736842105263" y="282.61052631578946" type="curve"/>
      <point x="700.0842105263158" y="282.61052631578946" type="line"/>
      <point x="802.2947368421052" y="282.61052631578946"/>
      <point x="921.0526315789474" y="282.06315789473683"/>
      <point x="1045.8105263157895" y="275.32631578947365" type="curve"/>
      <point x="1070.9473684210525" y="398.9894736842105" type="line"/>
      <point x="945.0947368421054" y="394.9894736842105"/>
      <point x="826.3368421052631" y="394.4421052631579"/>
      <point x="724.1263157894738" y="394.4421052631579" type="curve"/>
      <point x="485.5157894736842" y="394.4421052631579" type="line"/>
      <point x="383.30526315789473" y="394.4421052631579"/>
      <point x="264.5473684210526" y="394.9894736842105"/>
      <point x="139.78947368421052" y="398.9894736842105" type="curve"/>
    </contour>
    <contour>
      <point x="175.22105263157894" y="564.8842105263158" type="line"/>
      <point x="301.978947368421" y="568.8842105263158"/>
      <point x="420.7368421052631" y="569.4315789473684"/>
      <point x="522.9473684210527" y="569.4315789473684" type="curve"/>
      <point x="761.5578947368422" y="569.4315789473684" type="line"/>
      <point x="863.7684210526315" y="569.4315789473684"/>
      <point x="982.5263157894738" y="568.8842105263158"/>
      <point x="1106.378947368421" y="564.8842105263158" type="curve"/>
      <point x="1132.9684210526316" y="688.5473684210526" type="line"/>
      <point x="1006.5684210526316" y="681.8105263157895"/>
      <point x="887.8105263157894" y="681.2631578947369"/>
      <point x="785.6" y="681.2631578947369" type="curve"/>
      <point x="546.9894736842106" y="681.2631578947369" type="line"/>
      <point x="444.77894736842103" y="681.2631578947369"/>
      <point x="326.0210526315789" y="681.8105263157895"/>
      <point x="201.8105263157895" y="688.5473684210526" type="curve"/>
    </contour>
  </outline>
</glyph>
<glyph name="brokenbar" format="2">
  <advance width="528.4631578947368"/>
  <unicode hex="00A6"/>
  <outline>
    <contour>
      <point x="240.25263157894736" y="726.5263157894736" type="line"/>
      <point x="387.8315789473684" y="726.5263157894736" type="line"/>
      <point x="426.3789473684211" y="908.5263157894736" type="line"/>
      <point x="472.3789473684211" y="1124.5263157894738"/>
      <point x="516.9263157894737" y="1332.5263157894738"/>
      <point x="575.8526315789475" y="1566.5263157894738" type="curve"/>
      <point x="409.3263157894737" y="1566.5263157894738" type="line"/>
      <point x="368.2526315789474" y="1332.5263157894738"/>
      <point x="324.8" y="1124.5263157894738"/>
      <point x="278.8" y="908.5263157894736" type="curve"/>
    </contour>
    <contour>
      <point x="9.326315789473675" y="-313.4736842105263" type="curve"/>
      <point x="175.8526315789474" y="-313.4736842105263" type="line"/>
      <point x="216.9263157894737" y="-79.47368421052632"/>
      <point x="260.3789473684211" y="128.52631578947367"/>
      <point x="306.3789473684211" y="344.5263157894737" type="curve"/>
      <point x="344.3789473684211" y="526.5263157894736" type="line"/>
      <point x="196.79999999999998" y="526.5263157894736" type="line"/>
      <point x="158.79999999999998" y="344.5263157894737" type="line"/>
      <point x="112.79999999999998" y="128.52631578947367"/>
      <point x="67.7052631578947" y="-79.47368421052632"/>
    </contour>
  </outline>
</glyph>
<glyph name="section" format="2">
  <advance width="1092.5977011494253"/>
  <unicode hex="00A7"/>
  <outline>
    <contour>
      <point x="381.12643678160924" y="-251.17241379310346" type="curve" smooth="yes"/>
      <point x="641.8390804597701" y="-251.17241379310346"/>
      <point x="783.0114942528736" y="-145.60919540229887"/>
      <point x="820.2068965517242" y="28.36781609195403" type="curve" smooth="yes"/>
      <point x="864.2068965517242" y="235.14942528735634"/>
      <point x="730.9425287356322" y="340.3448275862069"/>
      <point x="515.7931034482759" y="434.7356321839081" type="curve" smooth="yes"/>
      <point x="309.28735632183907" y="525.1954022988506"/>
      <point x="278.8735632183908" y="585.6321839080459"/>
      <point x="302.09195402298855" y="691.3333333333334" type="curve" smooth="yes"/>
      <point x="328.11494252873564" y="811.8620689655172"/>
      <point x="453.81609195402297" y="850.2298850574713"/>
      <point x="535.8390804597701" y="858.2298850574713" type="curve"/>
      <point x="453.4942528735632" y="972.0229885057471" type="line"/>
      <point x="311.9310344827586" y="950.8045977011494"/>
      <point x="166.8735632183908" y="858.8275862068965"/>
      <point x="134.09195402298852" y="706.5057471264369" type="curve" smooth="yes"/>
      <point x="96.48275862068965" y="529.264367816092"/>
      <point x="180.57471264367814" y="429.7241379310345"/>
      <point x="393.3103448275862" y="330.94252873563215" type="curve" smooth="yes"/>
      <point x="608.9885057471264" y="230.89655172413794"/>
      <point x="680.6206896551724" y="177.632183908046"/>
      <point x="652.5977011494253" y="46.71264367816092" type="curve" smooth="yes"/>
      <point x="624.5747126436781" y="-83.81609195402298"/>
      <point x="502.0689655172414" y="-107.0574712643678"/>
      <point x="371.58620689655174" y="-111.0574712643678" type="curve"/>
      <point x="267.1494252873564" y="-111.0574712643678"/>
      <point x="131.99999999999997" y="-59.47126436781609"/>
      <point x="4.390804597701149" y="20.52873563218391" type="curve"/>
      <point x="-41.93103448275862" y="-131.14942528735634" type="line"/>
      <point x="55.241379310344826" y="-175.95402298850573"/>
      <point x="204.0" y="-251.17241379310346"/>
    </contour>
    <contour>
      <point x="721.9080459770115" y="234.00000000000003" type="line"/>
      <point x="889.0344827586207" y="262.41379310344826"/>
      <point x="997.3563218390805" y="355.1954022988506"/>
      <point x="1027.7471264367816" y="503.1264367816092" type="curve" smooth="yes"/>
      <point x="1068.1609195402298" y="697.9540229885058"/>
      <point x="938.4827586206897" y="801.5402298850574"/>
      <point x="724.528735632184" y="895.9310344827586" type="curve" smooth="yes"/>
      <point x="520.4137931034483" y="986.3908045977012"/>
      <point x="486.4137931034483" y="1048.0459770114944"/>
      <point x="509.632183908046" y="1154.5287356321837" type="curve" smooth="yes"/>
      <point x="538.4597701149426" y="1285.471264367816"/>
      <point x="678.5747126436783" y="1307.080459770115"/>
      <point x="752.6206896551724" y="1312.2758620689656" type="curve"/>
      <point x="812.6206896551724" y="1312.2758620689656"/>
      <point x="937.4252873563219" y="1281.4942528735633"/>
      <point x="1085.034482758621" y="1204.2988505747126" type="curve"/>
      <point x="1128.551724137931" y="1352.3908045977012" type="line"/>
      <point x="1028.551724137931" y="1394.8045977011493"/>
      <point x="863.8390804597702" y="1452.3908045977012"/>
      <point x="735.8850574712644" y="1452.3908045977012" type="curve" smooth="yes"/>
      <point x="533.6091954022988" y="1452.3908045977012"/>
      <point x="379.2183908045977" y="1353.218390804598"/>
      <point x="341.632183908046" y="1176.8735632183907" type="curve" smooth="yes"/>
      <point x="301.632183908046" y="988.4827586206897"/>
      <point x="400.0689655172414" y="886.1379310344827"/>
      <point x="603.2413793103449" y="793.3333333333333" type="curve" smooth="yes"/>
      <point x="818.919540229885" y="694.4827586206897"/>
      <point x="888.9655172413793" y="639.2413793103449"/>
      <point x="862.1379310344828" y="508.32183908045977" type="curve" smooth="yes"/>
      <point x="841.3103448275863" y="405.4022988505747"/>
      <point x="738.4827586206895" y="352.2298850574712"/>
      <point x="633.2183908045977" y="340.62068965517244" type="curve"/>
    </contour>
  </outline>
</glyph>
<glyph name="ordfeminine" format="2">
  <advance width="790.3448275862069"/>
  <unicode hex="00AA"/>
  <outline>
    <contour>
      <point x="365.67816091954023" y="665.2183908045977" type="curve" smooth="yes"/>
      <point x="458.48275862068965" y="665.2183908045977"/>
      <point x="552.9195402298851" y="720.4137931034483"/>
      <point x="616.1379310344827" y="800.0229885057471" type="curve"/>
      <point x="628.5287356321838" y="800.0229885057471" type="line"/>
      <point x="635.3333333333334" y="680.4137931034483" type="line"/>
      <point x="764.2758620689655" y="680.4137931034483" type="line"/>
      <point x="753.8850574712643" y="768.3908045977012"/>
      <point x="751.471264367816" y="838.7586206896551"/>
      <point x="765.8620689655172" y="910.3448275862069" type="curve"/>
      <point x="785.0804597701149" y="1000.8275862068965" type="line" smooth="yes"/>
      <point x="797.8850574712643" y="1061.6551724137933"/>
      <point x="815.0804597701149" y="1121.6551724137933"/>
      <point x="822.2758620689655" y="1160.4137931034484" type="curve" smooth="yes"/>
      <point x="859.471264367816" y="1336.390804597701"/>
      <point x="771.1264367816092" y="1452.3908045977012"/>
      <point x="577.9770114942529" y="1452.3908045977012" type="curve" smooth="yes"/>
      <point x="500.0" y="1452.3908045977012"/>
      <point x="381.632183908046" y="1420.3908045977012"/>
      <point x="306.04597701149424" y="1402.781609195402" type="curve"/>
      <point x="286.48275862068965" y="1270.6206896551723" type="line"/>
      <point x="402.50574712643686" y="1313.816091954023"/>
      <point x="506.45977011494256" y="1337.4022988505747"/>
      <point x="544.8735632183908" y="1337.4022988505747" type="curve" smooth="yes"/>
      <point x="665.7241379310345" y="1337.4022988505747"/>
      <point x="728.1609195402299" y="1281.7701149425288"/>
      <point x="700.1149425287356" y="1169.5862068965519" type="curve"/>
      <point x="444.85057471264366" y="1122.7586206896551" type="line" smooth="yes"/>
      <point x="312.4827586206897" y="1098.7586206896551"/>
      <point x="198.04597701149424" y="1049.9999999999998"/>
      <point x="166.04597701149424" y="905.6091954022988" type="curve" smooth="yes"/>
      <point x="134.04597701149424" y="766.4137931034483"/>
      <point x="221.6551724137931" y="665.2183908045977"/>
    </contour>
    <contour>
      <point x="421.1034482758621" y="775.4252873563219" type="curve" smooth="yes"/>
      <point x="333.816091954023" y="775.4252873563219"/>
      <point x="271.7701149425288" y="819.0574712643678"/>
      <point x="291.7931034482759" y="915.1724137931034" type="curve" smooth="yes"/>
      <point x="310.2068965517241" y="1000.0459770114942"/>
      <point x="390.2758620689655" y="1019.6551724137931"/>
      <point x="476.7586206896552" y="1038.0689655172412" type="curve" smooth="yes"/>
      <point x="618.5057471264367" y="1068.0919540229886"/>
      <point x="648.919540229885" y="1078.896551724138"/>
      <point x="682.9425287356321" y="1094.896551724138" type="curve"/>
      <point x="644.1149425287356" y="915.5632183908045" type="line"/>
      <point x="568.0459770114943" y="806.2528735632184"/>
      <point x="482.7586206896552" y="775.4252873563219"/>
    </contour>
  </outline>
</glyph>
<glyph name="logicalnot" format="2">
  <advance width="1136.421052631579"/>
  <unicode hex="00AC"/>
  <outline>
    <contour>
      <point x="773.9578947368421" y="118.50526315789473" type="curve"/>
      <point x="939.3894736842105" y="118.50526315789473" type="line"/>
      <point x="958.8421052631579" y="240.90526315789475"/>
      <point x="983.9368421052632" y="362.021052631579"/>
      <point x="1005.578947368421" y="463.6842105263158" type="curve"/>
      <point x="1051.7894736842106" y="678.7368421052631" type="line"/>
      <point x="924.4842105263158" y="672.0"/>
      <point x="805.7263157894737" y="671.4526315789474"/>
      <point x="703.5157894736842" y="671.4526315789474" type="curve"/>
      <point x="506.8" y="671.4526315789474" type="line"/>
      <point x="404.58947368421053" y="671.4526315789474"/>
      <point x="285.8315789473684" y="672.0"/>
      <point x="162.52631578947367" y="678.7368421052631" type="curve"/>
      <point x="128.27368421052628" y="516.5894736842106" type="line"/>
      <point x="254.6736842105263" y="523.3263157894737"/>
      <point x="373.4315789473684" y="523.8736842105263"/>
      <point x="475.6421052631579" y="523.8736842105263" type="curve"/>
      <point x="672.3578947368421" y="523.8736842105263" type="line"/>
      <point x="765.2842105263157" y="523.8736842105263"/>
      <point x="874.2105263157895" y="523.3263157894737"/>
      <point x="986.5894736842106" y="516.5894736842106" type="curve"/>
      <point x="889.4526315789474" y="627.3684210526316" type="line"/>
      <point x="854.7157894736841" y="464.2315789473684" type="line"/>
      <point x="833.0736842105263" y="362.5684210526316"/>
      <point x="806.8842105263158" y="240.90526315789475"/>
    </contour>
  </outline>
</glyph>
<glyph name="plusminus" format="2">
  <advance width="1136.421052631579"/>
  <unicode hex="00B1"/>
  <outline>
    <contour>
      <point x="16.484210526315792" y="-7.28421052631579" type="line"/>
      <point x="142.33684210526317" y="-0.5473684210526316"/>
      <point x="261.6421052631579" y="0.0"/>
      <point x="363.85263157894735" y="0.0" type="curve"/>
      <point x="560.5684210526316" y="0.0" type="line"/>
      <point x="662.7789473684211" y="0.0"/>
      <point x="780.9894736842106" y="-0.5473684210526316"/>
      <point x="905.7473684210527" y="-7.28421052631579" type="curve"/>
      <point x="940.0" y="154.86315789473684" type="line"/>
      <point x="813.6" y="148.12631578947367"/>
      <point x="694.8421052631579" y="147.57894736842104"/>
      <point x="592.6315789473684" y="147.57894736842104" type="curve"/>
      <point x="395.9157894736842" y="147.57894736842104" type="line"/>
      <point x="293.7052631578947" y="147.57894736842104"/>
      <point x="174.94736842105266" y="148.12631578947367"/>
      <point x="50.73684210526316" y="154.86315789473684" type="curve"/>
    </contour>
    <contour>
      <point x="168.67368421052632" y="710.2105263157895" type="line"/>
      <point x="296.52631578947364" y="716.9473684210526"/>
      <point x="415.28421052631575" y="717.4947368421052"/>
      <point x="517.4947368421052" y="717.4947368421052" type="curve"/>
      <point x="714.2105263157895" y="717.4947368421052" type="line"/>
      <point x="816.421052631579" y="717.4947368421052"/>
      <point x="935.1789473684211" y="716.9473684210526"/>
      <point x="1057.9368421052632" y="710.2105263157895" type="curve"/>
      <point x="1092.1894736842105" y="872.3578947368421" type="line"/>
      <point x="966.3368421052631" y="865.621052631579"/>
      <point x="847.578947368421" y="865.0736842105264"/>
      <point x="745.3684210526316" y="865.0736842105264" type="curve"/>
      <point x="548.6526315789473" y="865.0736842105264" type="line"/>
      <point x="446.4421052631579" y="865.0736842105264"/>
      <point x="327.6842105263158" y="865.621052631579"/>
      <point x="202.92631578947368" y="872.3578947368421" type="curve"/>
    </contour>
    <contour>
      <point x="446.79999999999995" y="323.0736842105263" type="curve"/>
      <point x="614.2315789473683" y="323.0736842105263" type="line"/>
      <point x="635.1368421052631" y="446.9263157894737"/>
      <point x="658.7789473684211" y="567.1368421052632"/>
      <point x="680.421052631579" y="669.3473684210526" type="curve"/>
      <point x="732.7578947368421" y="913.2210526315789" type="line"/>
      <point x="754.4" y="1015.4315789473684"/>
      <point x="780.5894736842105" y="1134.1894736842105"/>
      <point x="813.5157894736841" y="1259.4947368421053" type="curve"/>
      <point x="646.0842105263158" y="1259.4947368421053" type="line"/>
      <point x="625.1789473684211" y="1135.6421052631579"/>
      <point x="601.5368421052632" y="1015.4315789473684"/>
      <point x="579.8947368421053" y="913.2210526315789" type="curve"/>
      <point x="527.5578947368422" y="669.3473684210526" type="line"/>
      <point x="505.9157894736842" y="567.1368421052632"/>
      <point x="479.7263157894737" y="446.9263157894737"/>
    </contour>
  </outline>
</glyph>
<glyph name="paragraph" format="2">
  <advance width="1094.3578947368421"/>
  <unicode hex="00B6"/>
  <outline>
    <contour>
      <point x="514.9052631578948" y="599.1789473684211" type="curve" smooth="yes"/>
      <point x="527.8526315789474" y="599.1789473684211" type="line"/>
      <point x="681.4315789473685" y="1426.0" type="line"/>
      <point x="610.7368421052631" y="1426.0" type="line"/>
      <point x="405.7473684210526" y="1426.0"/>
      <point x="233.57894736842107" y="1290.5263157894738"/>
      <point x="184.4842105263158" y="1054.5052631578947" type="curve" smooth="yes"/>
      <point x="135.38947368421054" y="820.8421052631579"/>
      <point x="257.41052631578947" y="599.1789473684211"/>
    </contour>
    <contour>
      <point x="259.2421052631579" y="-349.6421052631579" type="curve"/>
      <point x="391.2842105263158" y="-349.6421052631579" type="line"/>
      <point x="434.0" y="-115.09473684210526"/>
      <point x="477.4526315789474" y="93.81052631578946"/>
      <point x="523.4526315789474" y="310.3578947368421" type="curve"/>
      <point x="620.0" y="766.0" type="line"/>
      <point x="666.0" y="982.5473684210526"/>
      <point x="710.5473684210526" y="1191.4526315789474"/>
      <point x="769.4736842105264" y="1426.0" type="curve"/>
      <point x="645.2631578947369" y="1426.0" type="line"/>
      <point x="595.2631578947369" y="1191.4526315789474"/>
      <point x="551.2631578947369" y="982.5473684210526"/>
      <point x="505.2631578947368" y="766.0" type="curve"/>
      <point x="408.7157894736842" y="310.3578947368421" type="line"/>
      <point x="362.7157894736842" y="93.81052631578946"/>
      <point x="318.1684210526316" y="-115.09473684210526"/>
    </contour>
    <contour>
      <point x="553.7263157894738" y="-349.6421052631579" type="curve"/>
      <point x="685.7684210526317" y="-349.6421052631579" type="line"/>
      <point x="726.8421052631579" y="-115.09473684210526"/>
      <point x="770.2947368421053" y="93.81052631578946"/>
      <point x="816.2947368421053" y="310.3578947368421" type="curve"/>
      <point x="912.8421052631579" y="766.0" type="line"/>
      <point x="958.8421052631579" y="982.5473684210526"/>
      <point x="1003.3894736842105" y="1191.4526315789474"/>
      <point x="1062.3157894736842" y="1426.0" type="curve"/>
      <point x="928.6315789473684" y="1426.0" type="line"/>
      <point x="887.5578947368422" y="1191.4526315789474"/>
      <point x="844.1052631578948" y="982.5473684210526"/>
      <point x="798.1052631578948" y="766.0" type="curve"/>
      <point x="701.5578947368422" y="310.3578947368421" type="line"/>
      <point x="655.5578947368422" y="93.81052631578946"/>
      <point x="611.0105263157895" y="-115.09473684210526"/>
    </contour>
    <contour>
      <point x="671.8947368421053" y="1316.7368421052631" type="line"/>
      <point x="868.6105263157895" y="1316.7368421052631" type="line"/>
      <point x="970.8210526315789" y="1316.7368421052631"/>
      <point x="1089.0315789473684" y="1316.1894736842105"/>
      <point x="1212.336842105263" y="1309.4526315789474" type="curve"/>
      <point x="1237.2842105263157" y="1426.0" type="line"/>
      <point x="1111.9789473684211" y="1426.0"/>
      <point x="993.2210526315789" y="1426.0"/>
      <point x="891.0105263157894" y="1426.0" type="curve"/>
      <point x="694.2947368421053" y="1426.0" type="line"/>
    </contour>
  </outline>
</glyph>
<glyph name="ordmasculine" format="2">
  <advance width="910.5684210526316"/>
  <unicode hex="00BA"/>
  <outline>
    <contour>
      <point x="536.9263157894736" y="663.978947368421" type="curve" smooth="yes"/>
      <point x="744.6105263157895" y="663.978947368421"/>
      <point x="900.0631578947368" y="806.3368421052631"/>
      <point x="945.1578947368421" y="1018.7157894736843" type="curve" smooth="yes"/>
      <point x="993.7052631578947" y="1245.8105263157895"/>
      <point x="871.3263157894736" y="1452.1894736842105"/>
      <point x="613.4526315789474" y="1452.1894736842105" type="curve" smooth="yes"/>
      <point x="418.29473684210524" y="1452.1894736842105"/>
      <point x="251.7684210526316" y="1324.0"/>
      <point x="205.22105263157894" y="1098.3578947368421" type="curve" smooth="yes"/>
      <point x="158.67368421052632" y="873.6210526315789"/>
      <point x="274.5052631578947" y="663.978947368421"/>
    </contour>
    <contour>
      <point x="542.0210526315789" y="778.1684210526316" type="curve"/>
      <point x="370.71578947368425" y="783.2631578947369"/>
      <point x="303.4947368421053" y="920.0842105263158"/>
      <point x="336.9263157894737" y="1082.8842105263159" type="curve" smooth="yes"/>
      <point x="367.4526315789474" y="1234.6105263157895"/>
      <point x="471.55789473684206" y="1333.4526315789474"/>
      <point x="611.8105263157894" y="1338.0" type="curve"/>
      <point x="769.6842105263158" y="1332.3578947368421"/>
      <point x="849.2421052631579" y="1208.9684210526316"/>
      <point x="812.9052631578948" y="1032.7368421052631" type="curve" smooth="yes"/>
      <point x="782.3789473684211" y="885.9157894736843"/>
      <point x="682.2736842105263" y="783.2631578947369"/>
    </contour>
  </outline>
</glyph>
